<svg xmlns="http://www.w3.org/2000/svg" xmlns:xlink="http://www.w3.org/1999/xlink" contentStyleType="text/css" data-diagram-type="CLASS" height="612px" preserveAspectRatio="none" style="width:1677px;height:612px;background:#FFFFFF;" version="1.1" viewBox="0 0 1677 612" width="1677px" zoomAndPan="magnify"><defs/><g><!--class MLCoupling<In,Out>--><g class="entity" data-entity="MLCoupling.In.Out." data-source-line="11" data-uid="ent0002" id="entity_MLCoupling.In.Out."><rect fill="#FFFFE0" height="170.3438" rx="2.5" ry="2.5" style="stroke:#000000;stroke-width:0.5;" width="459.1865" x="330.5" y="11"/><ellipse cx="481.9365" cy="31.1328" fill="#ADD1B2" rx="11" ry="11" style="stroke:#181818;stroke-width:1;"/><path d="M484.9053,36.7734 Q484.3271,37.0703 483.6865,37.2109 Q483.0459,37.3672 482.3428,37.3672 Q479.8428,37.3672 478.5146,35.7266 Q477.2021,34.0703 477.2021,30.9453 Q477.2021,27.8203 478.5146,26.1641 Q479.8428,24.5078 482.3428,24.5078 Q483.0459,24.5078 483.6865,24.6641 Q484.3428,24.8203 484.9053,25.1172 L484.9053,27.8359 Q484.2803,27.2578 483.6865,26.9922 Q483.0928,26.7109 482.4678,26.7109 Q481.124,26.7109 480.4365,27.7891 Q479.749,28.8516 479.749,30.9453 Q479.749,33.0391 480.4365,34.1172 Q481.124,35.1797 482.4678,35.1797 Q483.0928,35.1797 483.6865,34.9141 Q484.2803,34.6328 484.9053,34.0547 L484.9053,36.7734 Z " fill="#000000"/><text fill="#000000" font-family="sans-serif" font-size="12" font-style="italic" lengthAdjust="spacing" textLength="64.3301" x="544.1782" y="27.1387">&#171;abstract&#187;</text><text fill="#000000" font-family="sans-serif" font-size="14" lengthAdjust="spacing" textLength="147.8135" x="502.4365" y="42.9639">MLCoupling&lt;In,Out&gt;</text><line style="stroke:#000000;stroke-width:0.5;" x1="331.5" x2="788.6865" y1="51.2656" y2="51.2656"/><text fill="#000000" font-family="sans-serif" font-size="14" lengthAdjust="spacing" textLength="408.5703" x="336.5" y="68.2607">-provider: std::unique_ptr&lt;MLCouplingProvider&lt;In,Out&gt;&gt;</text><text fill="#000000" font-family="sans-serif" font-size="14" lengthAdjust="spacing" textLength="447.1865" x="336.5" y="84.5576">-application: std::unique_ptr&lt;MLCouplingApplication&lt;In,Out&gt;&gt;</text><text fill="#000000" font-family="sans-serif" font-size="14" lengthAdjust="spacing" textLength="238.1436" x="336.5" y="100.8545">#input_data: std::shared_ptr&lt;In&gt;</text><text fill="#000000" font-family="sans-serif" font-size="14" lengthAdjust="spacing" textLength="260.6885" x="336.5" y="117.1514">#output_data: std::shared_ptr&lt;Out&gt;</text><line style="stroke:#000000;stroke-width:0.5;" x1="331.5" x2="788.6865" y1="124.4531" y2="124.4531"/><text fill="#000000" font-family="sans-serif" font-size="14" lengthAdjust="spacing" textLength="203.5605" x="336.5" y="141.4482">+init(provider*, application*)</text><text fill="#000000" font-family="sans-serif" font-size="14" lengthAdjust="spacing" textLength="129.835" x="336.5" y="157.7451">+infer_ml_model()</text><text fill="#000000" font-family="sans-serif" font-size="14" lengthAdjust="spacing" textLength="72.666" x="336.5" y="174.042">+finalize()</text></g><!--class MLCouplingProvider<In,Out>--><g class="entity" data-entity="MLCouplingProvider.In.Out." data-source-line="21" data-uid="ent0003" id="entity_MLCouplingProvider.In.Out."><rect fill="#FFFFE0" height="105.1563" rx="2.5" ry="2.5" style="stroke:#000000;stroke-width:0.5;" width="238.0078" x="7" y="294.5"/><ellipse cx="22" cy="314.6328" fill="#ADD1B2" rx="11" ry="11" style="stroke:#181818;stroke-width:1;"/><path d="M24.9688,320.2734 Q24.3906,320.5703 23.75,320.7109 Q23.1094,320.8672 22.4063,320.8672 Q19.9063,320.8672 18.5781,319.2266 Q17.2656,317.5703 17.2656,314.4453 Q17.2656,311.3203 18.5781,309.6641 Q19.9063,308.0078 22.4063,308.0078 Q23.1094,308.0078 23.75,308.1641 Q24.4063,308.3203 24.9688,308.6172 L24.9688,311.3359 Q24.3438,310.7578 23.75,310.4922 Q23.1563,310.2109 22.5313,310.2109 Q21.1875,310.2109 20.5,311.2891 Q19.8125,312.3516 19.8125,314.4453 Q19.8125,316.5391 20.5,317.6172 Q21.1875,318.6797 22.5313,318.6797 Q23.1563,318.6797 23.75,318.4141 Q24.3438,318.1328 24.9688,317.5547 L24.9688,320.2734 Z " fill="#000000"/><text fill="#000000" font-family="sans-serif" font-size="12" font-style="italic" lengthAdjust="spacing" textLength="64.3301" x="106.8389" y="310.6387">&#171;abstract&#187;</text><text fill="#000000" font-family="sans-serif" font-size="14" lengthAdjust="spacing" textLength="206.0078" x="36" y="326.4639">MLCouplingProvider&lt;In,Out&gt;</text><line style="stroke:#000000;stroke-width:0.5;" x1="8" x2="244.0078" y1="334.7656" y2="334.7656"/><line style="stroke:#000000;stroke-width:0.5;" x1="8" x2="244.0078" y1="342.7656" y2="342.7656"/><text fill="#000000" font-family="sans-serif" font-size="14" lengthAdjust="spacing" textLength="44.7959" x="13" y="359.7607">+init()</text><text fill="#000000" font-family="sans-serif" font-size="14" lengthAdjust="spacing" textLength="88.5117" x="13" y="376.0576">+inference()</text><text fill="#000000" font-family="sans-serif" font-size="14" lengthAdjust="spacing" textLength="72.666" x="13" y="392.3545">+finalize()</text></g><!--class MLCouplingApplication<In,Out>--><g class="entity" data-entity="MLCouplingApplication.In.Out." data-source-line="27" data-uid="ent0004" id="entity_MLCouplingApplication.In.Out."><rect fill="#FFFFE0" height="170.3438" rx="2.5" ry="2.5" style="stroke:#000000;stroke-width:0.5;" width="497.2012" x="646.5" y="262"/><ellipse cx="777.832" cy="282.1328" fill="#ADD1B2" rx="11" ry="11" style="stroke:#181818;stroke-width:1;"/><path d="M780.8008,287.7734 Q780.2227,288.0703 779.582,288.2109 Q778.9414,288.3672 778.2383,288.3672 Q775.7383,288.3672 774.4102,286.7266 Q773.0977,285.0703 773.0977,281.9453 Q773.0977,278.8203 774.4102,277.1641 Q775.7383,275.5078 778.2383,275.5078 Q778.9414,275.5078 779.582,275.6641 Q780.2383,275.8203 780.8008,276.1172 L780.8008,278.8359 Q780.1758,278.2578 779.582,277.9922 Q778.9883,277.7109 778.3633,277.7109 Q777.0195,277.7109 776.332,278.7891 Q775.6445,279.8516 775.6445,281.9453 Q775.6445,284.0391 776.332,285.1172 Q777.0195,286.1797 778.3633,286.1797 Q778.9883,286.1797 779.582,285.9141 Q780.1758,285.6328 780.8008,285.0547 L780.8008,287.7734 Z " fill="#000000"/><text fill="#000000" font-family="sans-serif" font-size="12" font-style="italic" lengthAdjust="spacing" textLength="64.3301" x="879.1855" y="278.1387">&#171;abstract&#187;</text><text fill="#000000" font-family="sans-serif" font-size="14" lengthAdjust="spacing" textLength="226.0371" x="798.332" y="293.9639">MLCouplingApplication&lt;In,Out&gt;</text><line style="stroke:#000000;stroke-width:0.5;" x1="647.5" x2="1142.7012" y1="302.2656" y2="302.2656"/><text fill="#000000" font-family="sans-serif" font-size="14" lengthAdjust="spacing" textLength="485.2012" x="652.5" y="319.2607">-normalization: std::shared_ptr&lt;MLCouplingNormalization&lt;In,Out&gt;&gt;</text><line style="stroke:#000000;stroke-width:0.5;" x1="647.5" x2="1142.7012" y1="326.5625" y2="326.5625"/><text fill="#000000" font-family="sans-serif" font-size="14" lengthAdjust="spacing" textLength="44.7959" x="652.5" y="343.5576">+init()</text><text fill="#000000" font-family="sans-serif" font-size="14" lengthAdjust="spacing" textLength="129.835" x="652.5" y="359.8545">+infer_ml_model()</text><text fill="#000000" font-family="sans-serif" font-size="14" lengthAdjust="spacing" textLength="72.666" x="652.5" y="376.1514">+finalize()</text><text fill="#000000" font-family="sans-serif" font-size="14" lengthAdjust="spacing" textLength="77.4648" x="652.5" y="392.4482">+ml_step()</text><text fill="#000000" font-family="sans-serif" font-size="14" lengthAdjust="spacing" textLength="158.7373" x="652.5" y="408.7451">#normalize_input(In&amp;)</text><text fill="#000000" font-family="sans-serif" font-size="14" lengthAdjust="spacing" textLength="198.7822" x="652.5" y="425.042">#denormalize_output(Out&amp;)</text></g><!--class MLCouplingNormalization<In,Out>--><g class="entity" data-entity="MLCouplingNormalization.In.Out." data-source-line="37" data-uid="ent0005" id="entity_MLCouplingNormalization.In.Out."><rect fill="#FFFFE0" height="88.8594" rx="2.5" ry="2.5" style="stroke:#000000;stroke-width:0.5;" width="277.3486" x="512.5" y="513"/><ellipse cx="527.5" cy="533.1328" fill="#ADD1B2" rx="11" ry="11" style="stroke:#181818;stroke-width:1;"/><path d="M530.4688,538.7734 Q529.8906,539.0703 529.25,539.2109 Q528.6094,539.3672 527.9063,539.3672 Q525.4063,539.3672 524.0781,537.7266 Q522.7656,536.0703 522.7656,532.9453 Q522.7656,529.8203 524.0781,528.1641 Q525.4063,526.5078 527.9063,526.5078 Q528.6094,526.5078 529.25,526.6641 Q529.9063,526.8203 530.4688,527.1172 L530.4688,529.8359 Q529.8438,529.2578 529.25,528.9922 Q528.6563,528.7109 528.0313,528.7109 Q526.6875,528.7109 526,529.7891 Q525.3125,530.8516 525.3125,532.9453 Q525.3125,535.0391 526,536.1172 Q526.6875,537.1797 528.0313,537.1797 Q528.6563,537.1797 529.25,536.9141 Q529.8438,536.6328 530.4688,536.0547 L530.4688,538.7734 Z " fill="#000000"/><text fill="#000000" font-family="sans-serif" font-size="12" font-style="italic" lengthAdjust="spacing" textLength="64.3301" x="632.0093" y="529.1387">&#171;abstract&#187;</text><text fill="#000000" font-family="sans-serif" font-size="14" lengthAdjust="spacing" textLength="245.3486" x="541.5" y="544.9639">MLCouplingNormalization&lt;In,Out&gt;</text><line style="stroke:#000000;stroke-width:0.5;" x1="513.5" x2="788.8486" y1="553.2656" y2="553.2656"/><line style="stroke:#000000;stroke-width:0.5;" x1="513.5" x2="788.8486" y1="561.2656" y2="561.2656"/><text fill="#000000" font-family="sans-serif" font-size="14" lengthAdjust="spacing" textLength="158.7373" x="518.5" y="578.2607">+normalize_input(In&amp;)</text><text fill="#000000" font-family="sans-serif" font-size="14" lengthAdjust="spacing" textLength="198.7822" x="518.5" y="594.5576">+denormalize_output(Out&amp;)</text></g><!--class MLCouplingMinMaxNormalization<In,Out>--><g class="entity" data-entity="MLCouplingMinMaxNormalization.In.Out." data-source-line="42" data-uid="ent0006" id="entity_MLCouplingMinMaxNormalization.In.Out."><rect fill="#F1F1F1" height="145.7813" rx="2.5" ry="2.5" style="stroke:#000000;stroke-width:0.5;" width="331.1338" x="280.5" y="274"/><ellipse cx="295.5" cy="290" fill="#ADD1B2" rx="11" ry="11" style="stroke:#181818;stroke-width:1;"/><path d="M298.4688,295.6406 Q297.8906,295.9375 297.25,296.0781 Q296.6094,296.2344 295.9063,296.2344 Q293.4063,296.2344 292.0781,294.5938 Q290.7656,292.9375 290.7656,289.8125 Q290.7656,286.6875 292.0781,285.0313 Q293.4063,283.375 295.9063,283.375 Q296.6094,283.375 297.25,283.5313 Q297.9063,283.6875 298.4688,283.9844 L298.4688,286.7031 Q297.8438,286.125 297.25,285.8594 Q296.6563,285.5781 296.0313,285.5781 Q294.6875,285.5781 294,286.6563 Q293.3125,287.7188 293.3125,289.8125 Q293.3125,291.9063 294,292.9844 Q294.6875,294.0469 296.0313,294.0469 Q296.6563,294.0469 297.25,293.7813 Q297.8438,293.5 298.4688,292.9219 L298.4688,295.6406 Z " fill="#000000"/><text fill="#000000" font-family="sans-serif" font-size="14" lengthAdjust="spacing" textLength="299.1338" x="309.5" y="294.8467">MLCouplingMinMaxNormalization&lt;In,Out&gt;</text><line style="stroke:#000000;stroke-width:0.5;" x1="281.5" x2="610.6338" y1="306" y2="306"/><text fill="#000000" font-family="sans-serif" font-size="14" lengthAdjust="spacing" textLength="103.6328" x="286.5" y="322.9951">-input_min_: In</text><text fill="#000000" font-family="sans-serif" font-size="14" lengthAdjust="spacing" textLength="107.7344" x="286.5" y="339.292">-input_max_: In</text><text fill="#000000" font-family="sans-serif" font-size="14" lengthAdjust="spacing" textLength="126.1777" x="286.5" y="355.5889">-output_min_: Out</text><text fill="#000000" font-family="sans-serif" font-size="14" lengthAdjust="spacing" textLength="130.2793" x="286.5" y="371.8857">-output_max_: Out</text><line style="stroke:#000000;stroke-width:0.5;" x1="281.5" x2="610.6338" y1="379.1875" y2="379.1875"/><text fill="#000000" font-family="sans-serif" font-size="14" lengthAdjust="spacing" textLength="158.7373" x="286.5" y="396.1826">+normalize_input(In&amp;)</text><text fill="#000000" font-family="sans-serif" font-size="14" lengthAdjust="spacing" textLength="198.7822" x="286.5" y="412.4795">+denormalize_output(Out&amp;)</text></g><!--class MLCouplingApplicationProperties--><g class="entity" data-entity="MLCouplingApplicationProperties" data-source-line="51" data-uid="ent0007" id="entity_MLCouplingApplicationProperties"><rect fill="#F1F1F1" height="96.8906" rx="2.5" ry="2.5" style="stroke:#000000;stroke-width:0.5;" width="333.8223" x="908" y="509"/><ellipse cx="955.1372" cy="525" fill="#ADD1B2" rx="11" ry="11" style="stroke:#181818;stroke-width:1;"/><path d="M958.106,530.6406 Q957.5278,530.9375 956.8872,531.0781 Q956.2466,531.2344 955.5435,531.2344 Q953.0435,531.2344 951.7153,529.5938 Q950.4028,527.9375 950.4028,524.8125 Q950.4028,521.6875 951.7153,520.0313 Q953.0435,518.375 955.5435,518.375 Q956.2466,518.375 956.8872,518.5313 Q957.5435,518.6875 958.106,518.9844 L958.106,521.7031 Q957.481,521.125 956.8872,520.8594 Q956.2935,520.5781 955.6685,520.5781 Q954.3247,520.5781 953.6372,521.6563 Q952.9497,522.7188 952.9497,524.8125 Q952.9497,526.9063 953.6372,527.9844 Q954.3247,529.0469 955.6685,529.0469 Q956.2935,529.0469 956.8872,528.7813 Q957.481,528.5 958.106,527.9219 L958.106,530.6406 Z " fill="#000000"/><text fill="#000000" font-family="sans-serif" font-size="14" lengthAdjust="spacing" textLength="231.0479" x="975.6372" y="529.8467">MLCouplingApplicationProperties</text><line style="stroke:#000000;stroke-width:0.5;" x1="909" x2="1240.8223" y1="541" y2="541"/><line style="stroke:#000000;stroke-width:0.5;" x1="909" x2="1240.8223" y1="549" y2="549"/><text fill="#000000" font-family="sans-serif" font-size="14" lengthAdjust="spacing" textLength="265.4326" x="914" y="565.9951">+~MLCouplingApplicationProperties()</text><text fill="#000000" font-family="sans-serif" font-size="14" lengthAdjust="spacing" textLength="321.8223" x="914" y="582.292">+supports_coupling_without_inference(): bool</text><text fill="#000000" font-family="sans-serif" font-size="14" lengthAdjust="spacing" textLength="265.002" x="914" y="598.5889">+supports_time_step_increase(): bool</text></g><!--class MLCouplingBehavior--><g class="entity" data-entity="MLCouplingBehavior" data-source-line="57" data-uid="ent0008" id="entity_MLCouplingBehavior"><rect fill="#FFFFE0" height="137.75" rx="2.5" ry="2.5" style="stroke:#000000;stroke-width:0.5;" width="416.3867" x="1179" y="278"/><ellipse cx="1311.1011" cy="298.1328" fill="#ADD1B2" rx="11" ry="11" style="stroke:#181818;stroke-width:1;"/><path d="M1314.0698,303.7734 Q1313.4917,304.0703 1312.8511,304.2109 Q1312.2104,304.3672 1311.5073,304.3672 Q1309.0073,304.3672 1307.6792,302.7266 Q1306.3667,301.0703 1306.3667,297.9453 Q1306.3667,294.8203 1307.6792,293.1641 Q1309.0073,291.5078 1311.5073,291.5078 Q1312.2104,291.5078 1312.8511,291.6641 Q1313.5073,291.8203 1314.0698,292.1172 L1314.0698,294.8359 Q1313.4448,294.2578 1312.8511,293.9922 Q1312.2573,293.7109 1311.6323,293.7109 Q1310.2886,293.7109 1309.6011,294.7891 Q1308.9136,295.8516 1308.9136,297.9453 Q1308.9136,300.0391 1309.6011,301.1172 Q1310.2886,302.1797 1311.6323,302.1797 Q1312.2573,302.1797 1312.8511,301.9141 Q1313.4448,301.6328 1314.0698,301.0547 L1314.0698,303.7734 Z " fill="#000000"/><text fill="#000000" font-family="sans-serif" font-size="12" font-style="italic" lengthAdjust="spacing" textLength="64.3301" x="1371.2783" y="294.1387">&#171;abstract&#187;</text><text fill="#000000" font-family="sans-serif" font-size="14" lengthAdjust="spacing" textLength="143.6846" x="1331.6011" y="309.9639">MLCouplingBehavior</text><line style="stroke:#000000;stroke-width:0.5;" x1="1180" x2="1594.3867" y1="318.2656" y2="318.2656"/><text fill="#000000" font-family="sans-serif" font-size="14" lengthAdjust="spacing" textLength="324.0166" x="1185" y="335.2607">-properties: MLCouplingApplicationProperties*</text><line style="stroke:#000000;stroke-width:0.5;" x1="1180" x2="1594.3867" y1="342.5625" y2="342.5625"/><text fill="#000000" font-family="sans-serif" font-size="14" lengthAdjust="spacing" textLength="404.3867" x="1185" y="359.5576">+MLCouplingBehavior(MLCouplingApplicationProperties*)</text><text fill="#000000" font-family="sans-serif" font-size="14" lengthAdjust="spacing" textLength="244.1113" x="1185" y="375.8545">+should_perform_inference(): bool</text><text fill="#000000" font-family="sans-serif" font-size="14" lengthAdjust="spacing" textLength="161.4443" x="1185" y="392.1514">+time_step_delta(): int</text><text fill="#000000" font-family="sans-serif" font-size="14" lengthAdjust="spacing" textLength="187.3115" x="1185" y="408.4482">+should_send_data(): bool</text></g><!--class MLCouplingBehaviorDefault--><g class="entity" data-entity="MLCouplingBehaviorDefault" data-source-line="65" data-uid="ent0009" id="entity_MLCouplingBehaviorDefault"><rect fill="#F1F1F1" height="96.8906" rx="2.5" ry="2.5" style="stroke:#000000;stroke-width:0.5;" width="256.1113" x="1110" y="47.5"/><ellipse cx="1138.173" cy="63.5" fill="#ADD1B2" rx="11" ry="11" style="stroke:#181818;stroke-width:1;"/><path d="M1141.1418,69.1406 Q1140.5637,69.4375 1139.923,69.5781 Q1139.2824,69.7344 1138.5793,69.7344 Q1136.0793,69.7344 1134.7512,68.0938 Q1133.4387,66.4375 1133.4387,63.3125 Q1133.4387,60.1875 1134.7512,58.5313 Q1136.0793,56.875 1138.5793,56.875 Q1139.2824,56.875 1139.923,57.0313 Q1140.5793,57.1875 1141.1418,57.4844 L1141.1418,60.2031 Q1140.5168,59.625 1139.923,59.3594 Q1139.3293,59.0781 1138.7043,59.0781 Q1137.3605,59.0781 1136.673,60.1563 Q1135.9855,61.2188 1135.9855,63.3125 Q1135.9855,65.4063 1136.673,66.4844 Q1137.3605,67.5469 1138.7043,67.5469 Q1139.3293,67.5469 1139.923,67.2813 Q1140.5168,67 1141.1418,66.4219 L1141.1418,69.1406 Z " fill="#000000"/><text fill="#000000" font-family="sans-serif" font-size="14" lengthAdjust="spacing" textLength="194.8379" x="1155.1004" y="68.3467">MLCouplingBehaviorDefault</text><line style="stroke:#000000;stroke-width:0.5;" x1="1111" x2="1365.1113" y1="79.5" y2="79.5"/><line style="stroke:#000000;stroke-width:0.5;" x1="1111" x2="1365.1113" y1="87.5" y2="87.5"/><text fill="#000000" font-family="sans-serif" font-size="14" lengthAdjust="spacing" textLength="244.1113" x="1116" y="104.4951">+should_perform_inference(): bool</text><text fill="#000000" font-family="sans-serif" font-size="14" lengthAdjust="spacing" textLength="161.4443" x="1116" y="120.792">+time_step_delta(): int</text><text fill="#000000" font-family="sans-serif" font-size="14" lengthAdjust="spacing" textLength="187.3115" x="1116" y="137.0889">+should_send_data(): bool</text></g><!--class MLCouplingBehaviorPeriodic--><g class="entity" data-entity="MLCouplingBehaviorPeriodic" data-source-line="71" data-uid="ent0010" id="entity_MLCouplingBehaviorPeriodic"><rect fill="#F1F1F1" height="178.375" rx="2.5" ry="2.5" style="stroke:#000000;stroke-width:0.5;" width="269.6807" x="1401" y="7"/><ellipse cx="1433.2151" cy="23" fill="#ADD1B2" rx="11" ry="11" style="stroke:#181818;stroke-width:1;"/><path d="M1436.1839,28.6406 Q1435.6058,28.9375 1434.9651,29.0781 Q1434.3245,29.2344 1433.6214,29.2344 Q1431.1214,29.2344 1429.7933,27.5938 Q1428.4808,25.9375 1428.4808,22.8125 Q1428.4808,19.6875 1429.7933,18.0313 Q1431.1214,16.375 1433.6214,16.375 Q1434.3245,16.375 1434.9651,16.5313 Q1435.6214,16.6875 1436.1839,16.9844 L1436.1839,19.7031 Q1435.5589,19.125 1434.9651,18.8594 Q1434.3714,18.5781 1433.7464,18.5781 Q1432.4026,18.5781 1431.7151,19.6563 Q1431.0276,20.7188 1431.0276,22.8125 Q1431.0276,24.9063 1431.7151,25.9844 Q1432.4026,27.0469 1433.7464,27.0469 Q1434.3714,27.0469 1434.9651,26.7813 Q1435.5589,26.5 1436.1839,25.9219 L1436.1839,28.6406 Z " fill="#000000"/><text fill="#000000" font-family="sans-serif" font-size="14" lengthAdjust="spacing" textLength="199.4248" x="1451.0407" y="27.8467">MLCouplingBehaviorPeriodic</text><line style="stroke:#000000;stroke-width:0.5;" x1="1402" x2="1669.6807" y1="39" y2="39"/><text fill="#000000" font-family="sans-serif" font-size="14" lengthAdjust="spacing" textLength="155.8799" x="1407" y="55.9951">-step_count: long long</text><text fill="#000000" font-family="sans-serif" font-size="14" lengthAdjust="spacing" textLength="158.7031" x="1407" y="72.292">-inference_interval: int</text><text fill="#000000" font-family="sans-serif" font-size="14" lengthAdjust="spacing" textLength="257.6807" x="1407" y="88.5889">-coupled_steps_before_inference: int</text><text fill="#000000" font-family="sans-serif" font-size="14" lengthAdjust="spacing" textLength="179.3887" x="1407" y="104.8857">-coupled_steps_stride: int</text><text fill="#000000" font-family="sans-serif" font-size="14" lengthAdjust="spacing" textLength="254.4199" x="1407" y="121.1826">-step_increment_after_inference: int</text><line style="stroke:#000000;stroke-width:0.5;" x1="1402" x2="1669.6807" y1="128.4844" y2="128.4844"/><text fill="#000000" font-family="sans-serif" font-size="14" lengthAdjust="spacing" textLength="244.1113" x="1407" y="145.4795">+should_perform_inference(): bool</text><text fill="#000000" font-family="sans-serif" font-size="14" lengthAdjust="spacing" textLength="161.4443" x="1407" y="161.7764">+time_step_delta(): int</text><text fill="#000000" font-family="sans-serif" font-size="14" lengthAdjust="spacing" textLength="187.3115" x="1407" y="178.0732">+should_send_data(): bool</text></g><!--reverse link MLCoupling<In,Out> to MLCouplingProvider<In,Out>--><g class="link" data-entity-1="MLCoupling.In.Out." data-entity-2="MLCouplingProvider.In.Out." data-source-line="83" data-uid="lnk11" id="link_MLCoupling.In.Out._MLCouplingProvider.In.Out."><path codeLine="83" d="M395.0253,186.999 C348.9453,212.549 308.97,235.15 263,262 C245.41,272.27 226.72,283.51 208.97,294.34" fill="none" id="MLCoupling&lt;In,Out&gt;-backto-MLCouplingProvider&lt;In,Out&gt;" style="stroke:#000000;stroke-width:1;"/><polygon fill="#000000" points="405.52,181.18,398.333,180.5913,395.0253,186.999,402.2123,187.5877,405.52,181.18" style="stroke:#000000;stroke-width:1;"/><text fill="#000000" font-family="sans-serif" font-size="13" lengthAdjust="spacing" textLength="33.5981" x="345" y="228.0669">owns</text><text fill="#000000" font-family="sans-serif" font-size="13" lengthAdjust="spacing" textLength="8.271" x="383.4091" y="201.4918">1</text><text fill="#000000" font-family="sans-serif" font-size="13" lengthAdjust="spacing" textLength="8.271" x="211.5993" y="283.3213">1</text></g><!--reverse link MLCoupling<In,Out> to MLCouplingApplication<In,Out>--><g class="link" data-entity-1="MLCoupling.In.Out." data-entity-2="MLCouplingApplication.In.Out." data-source-line="84" data-uid="lnk12" id="link_MLCoupling.In.Out._MLCouplingApplication.In.Out."><path codeLine="84" d="M683.0509,188.4586 C718.0709,214.4886 746.99,235.99 781.99,262" fill="none" id="MLCoupling&lt;In,Out&gt;-backto-MLCouplingApplication&lt;In,Out&gt;" style="stroke:#000000;stroke-width:1;"/><polygon fill="#000000" points="673.42,181.3,675.8493,188.0896,683.0509,188.4586,680.6217,181.669,673.42,181.3" style="stroke:#000000;stroke-width:1;"/><text fill="#000000" font-family="sans-serif" font-size="13" lengthAdjust="spacing" textLength="33.5981" x="739" y="228.0669">owns</text><text fill="#000000" font-family="sans-serif" font-size="13" lengthAdjust="spacing" textLength="8.271" x="674.8269" y="201.3328">1</text><text fill="#000000" font-family="sans-serif" font-size="13" lengthAdjust="spacing" textLength="8.271" x="763.5719" y="250.8192">1</text></g><!--reverse link MLCouplingApplication<In,Out> to MLCouplingNormalization<In,Out>--><g class="link" data-entity-1="MLCouplingApplication.In.Out." data-entity-2="MLCouplingNormalization.In.Out." data-source-line="85" data-uid="lnk13" id="link_MLCouplingApplication.In.Out._MLCouplingNormalization.In.Out."><path codeLine="85" d="M787.3364,439.9949 C754.9264,467.6849 729.36,489.54 701.98,512.94" fill="none" id="MLCouplingApplication&lt;In,Out&gt;-backto-MLCouplingNormalization&lt;In,Out&gt;" style="stroke:#000000;stroke-width:1;"/><polygon fill="none" points="796.46,432.2,789.2999,433.0562,787.3364,439.9949,794.4965,439.1386,796.46,432.2" style="stroke:#000000;stroke-width:1;"/><text fill="#000000" font-family="sans-serif" font-size="13" lengthAdjust="spacing" textLength="81.8276" x="760" y="475.0669">has (shared)</text><text fill="#000000" font-family="sans-serif" font-size="13" lengthAdjust="spacing" textLength="8.271" x="779.3306" y="452.5136">1</text><text fill="#000000" font-family="sans-serif" font-size="13" lengthAdjust="spacing" textLength="24.8066" x="683.9839" y="502.0561">0..1</text></g><!--link MLCouplingMinMaxNormalization<In,Out> to MLCouplingNormalization<In,Out>--><g class="link" data-entity-1="MLCouplingMinMaxNormalization.In.Out." data-entity-2="MLCouplingNormalization.In.Out." data-source-line="86" data-uid="lnk14" id="link_MLCouplingMinMaxNormalization.In.Out._MLCouplingNormalization.In.Out."><path codeLine="86" d="M516.84,420.05 C547.16,450.89 568.9626,473.0525 595.3426,499.8925" fill="none" id="MLCouplingMinMaxNormalization&lt;In,Out&gt;-to-MLCouplingNormalization&lt;In,Out&gt;" style="stroke:#000000;stroke-width:1;"/><polygon fill="none" points="607.96,512.73,599.6217,495.6867,591.0634,504.0984,607.96,512.73" style="stroke:#000000;stroke-width:1;"/></g><!--link MLCouplingApplication<In,Out> to MLCouplingApplicationProperties--><g class="link" data-entity-1="MLCouplingApplication.In.Out." data-entity-2="MLCouplingApplicationProperties" data-source-line="88" data-uid="lnk15" id="link_MLCouplingApplication.In.Out._MLCouplingApplicationProperties"><path codeLine="88" d="M967.69,432.2 C990.23,458.31 1002.5194,472.5333 1022.1194,495.2433" fill="none" id="MLCouplingApplication&lt;In,Out&gt;-to-MLCouplingApplicationProperties" style="stroke:#000000;stroke-width:1;"/><polygon fill="none" points="1033.88,508.87,1026.6616,491.3231,1017.5771,499.1635,1033.88,508.87" style="stroke:#000000;stroke-width:1;"/></g><!--link MLCouplingBehavior to MLCouplingApplicationProperties--><g class="link" data-entity-1="MLCouplingBehavior" data-entity-2="MLCouplingApplicationProperties" data-source-line="89" data-uid="lnk16" id="link_MLCouplingBehavior_MLCouplingApplicationProperties"><path codeLine="89" d="M1284.84,416.27 C1239.52,446.56 1192.2784,478.1259 1151.2684,505.5359" fill="none" id="MLCouplingBehavior-to-MLCouplingApplicationProperties" style="stroke:#000000;stroke-width:1;stroke-dasharray:7,7;"/><polygon fill="#000000" points="1146.28,508.87,1155.9853,507.1944,1150.437,506.0916,1151.5398,500.5433,1146.28,508.87" style="stroke:#000000;stroke-width:1;"/><text fill="#000000" font-family="sans-serif" font-size="13" lengthAdjust="spacing" textLength="29.7832" x="1214" y="475.0669">uses</text></g><!--link MLCouplingBehaviorDefault to MLCouplingBehavior--><g class="link" data-entity-1="MLCouplingBehaviorDefault" data-entity-2="MLCouplingBehavior" data-source-line="90" data-uid="lnk17" id="link_MLCouplingBehaviorDefault_MLCouplingBehavior"><path codeLine="90" d="M1266.55,144.72 C1289.11,182.42 1311.6579,220.0938 1336.9079,262.2938" fill="none" id="MLCouplingBehaviorDefault-to-MLCouplingBehavior" style="stroke:#000000;stroke-width:1;"/><polygon fill="none" points="1346.15,277.74,1342.0566,259.2131,1331.7592,265.3745,1346.15,277.74" style="stroke:#000000;stroke-width:1;"/></g><!--link MLCouplingBehaviorPeriodic to MLCouplingBehavior--><g class="link" data-entity-1="MLCouplingBehaviorPeriodic" data-entity-2="MLCouplingBehavior" data-source-line="91" data-uid="lnk18" id="link_MLCouplingBehaviorPeriodic_MLCouplingBehavior"><path codeLine="91" d="M1483.26,185.14 C1465.01,215.64 1454.0958,233.8861 1436.9558,262.5161" fill="none" id="MLCouplingBehaviorPeriodic-to-MLCouplingBehavior" style="stroke:#000000;stroke-width:1;"/><polygon fill="none" points="1427.71,277.96,1442.1038,265.598,1431.8079,259.4341,1427.71,277.96" style="stroke:#000000;stroke-width:1;"/></g><!--SRC=[nLLDRnen4Btlhx10IWa9ABsk45AIgX9IqaRjgQULsHt0YjVUshCXQfl-zWxUR-858hKg1n3ZvpTldiTZ-oXKnWrFMIovjTU8HYnpX4MirLVn0zXLO6l8aiUFQwDpbTnggGqRVdIV5iAHi9y1eyzD5psRyQL5msESpzcTM6_m6qYfjmLMcmHCmNeZQQEBNXkZj-tWIn04HOh1_TsjpZCfr7gsK9UVSvmFM2T58MB2CgEV1967p68IXhaIttE8CZIpXkAXn5HKyt8lpsWvvYYqEhJzke5r6OQCZCanIZZoai1kk8744InKXT8vziDsT0vtGMm2HrL1uyksll5vZLc1YL8PfJe1EQh2Aw6uf0Ebm8l7n7q7l6QM0ZgPGCLmQXAFJps7fhH9TqnjwrkMD9IVsi2k-Jwr1tqf0eIm25dvVrXBWSYTvMYXpggb19h5uWX7bFxCNxnNQO_DlJaltfRpNgXx_joJkVAwQD5Kg2Xa2zKDykTsi6pJ0aeaUs47hi9_huXMrr2NPc1GW1tKNlq-WgmFrkPPfWtQA2xXqLRWXj97hKOEsL9hkRy3HGgkAmWQ6-2sGVeKty26Fmbj-YTIgIraHyIFIoMlkKV7TjPbKucIhWsO5NdUMsjJ8jqEvBjLeR3BOK4bRaYTLFq7MF5SOdDI_qt90nYX4n4tFU_egGyKXangjNPVTUkNkaWXWddYiX4mOQvvQ0pj66oq12e5cbBwaTG5D5_Rwqq_fQ0muYjAvcFwzyQzOrz0klwn6v7PmFku3juFs7WoSRy77uwGwQrw6udtONZDuuNjgFIEycewxRBspBsGRRXbe-8vEGzE7PUJoQ_vSVRWgDvz7lzu2xpZP3ezOIiLc5kmmQ4hkI-YJX4Sl3xzs_u0]--></g></svg>