<?xml version="1.0" encoding="UTF-8" standalone="no"?><svg xmlns="http://www.w3.org/2000/svg" xmlns:xlink="http://www.w3.org/1999/xlink" contentScriptType="application/ecmascript" contentStyleType="text/css" height="1033px" preserveAspectRatio="none" style="width:2008px;height:1033px;" version="1.1" viewBox="0 0 2008 1033" width="2008px" zoomAndPan="magnify"><defs><filter height="300%" id="f4o8at4206iu3" width="300%" x="-1" y="-1"><feGaussianBlur result="blurOut" stdDeviation="2.0"/><feColorMatrix in="blurOut" result="blurOut2" type="matrix" values="0 0 0 0 0 0 0 0 0 0 0 0 0 0 0 0 0 0 .4 0"/><feOffset dx="4.0" dy="4.0" in="blurOut2" result="blurOut3"/><feBlend in="SourceGraphic" in2="blurOut3" mode="normal"/></filter></defs><g><!--MD5=[f500096b95d7d9013cb48b5434f24db3]
class MLCoupling<In,Out>--><rect fill="#FFFFE0" filter="url(#f4o8at4206iu3)" height="142.1401" id="MLCoupling&lt;In,Out&gt;" style="stroke: #000000; stroke-width: 1.5;" width="365" x="880" y="8.2"/><ellipse cx="1001.75" cy="26.9988" fill="#ADD1B2" rx="11" ry="11" style="stroke: #000000; stroke-width: 1.0;"/><path d="M999.4063,26.8426 Q999.4063,28.7176 999.9844,29.7332 Q1000.5625,30.7332 1001.7188,30.7332 Q1003.0625,30.7332 1003.7188,28.7176 L1005.9844,29.1395 Q1004.875,32.6707 1001.7031,32.6707 Q999.3594,32.6707 998.1406,31.1863 Q996.9219,29.702 996.9219,26.8426 Q996.9219,21.1238 1001.625,21.1238 Q1003.1719,21.1238 1004.2031,21.9363 Q1005.25,22.7488 1005.75,24.3582 L1003.4844,24.9051 Q1003.25,24.0301 1002.7656,23.5457 Q1002.2813,23.0457 1001.6563,23.0457 Q999.4063,23.0457 999.4063,26.8426 Z "/><text fill="#000000" font-family="sans-serif" font-size="12" font-style="italic" lengthAdjust="spacingAndGlyphs" textLength="57" x="1050.25" y="24.4559">«abstract»</text><text fill="#000000" font-family="sans-serif" font-size="12" lengthAdjust="spacingAndGlyphs" textLength="113" x="1022.25" y="38.2547">MLCoupling&lt;In,Out&gt;</text><line style="stroke: #000000; stroke-width: 1.5;" x1="881" x2="1244" y1="45.7977" y2="45.7977"/><text fill="#000000" font-family="sans-serif" font-size="11" lengthAdjust="spacingAndGlyphs" textLength="274" x="886" y="60.1155">-provider: std::unique_ptr&lt;MLCouplingProvider&lt;In,Out&gt;&gt;</text><text fill="#000000" font-family="sans-serif" font-size="11" lengthAdjust="spacingAndGlyphs" textLength="296" x="886" y="72.7645">-application: std::unique_ptr&lt;MLCouplingApplication&lt;In,Out&gt;&gt;</text><text fill="#000000" font-family="sans-serif" font-size="11" lengthAdjust="spacingAndGlyphs" textLength="278" x="886" y="85.4134">-behavior: std::unique_ptr&lt;MLCouplingBehavior&lt;In,Out&gt;&gt;</text><line style="stroke: #000000; stroke-width: 1.5;" x1="881" x2="1244" y1="91.7444" y2="91.7444"/><text fill="#000000" font-family="sans-serif" font-size="11" lengthAdjust="spacingAndGlyphs" textLength="353" x="886" y="106.0623">+init(MLCouplingDataProcessor&lt;In,Out&gt;*, MLCouplingProvider&lt;In,Out&gt;*,</text><text fill="#000000" font-family="sans-serif" font-size="11" lengthAdjust="spacingAndGlyphs" textLength="352" x="886" y="118.7112">MLCouplingApplication&lt;In,Out&gt;*, MLCouplingBehavior&lt;In,Out&gt;* = nullptr)</text><text fill="#000000" font-family="sans-serif" font-size="11" lengthAdjust="spacingAndGlyphs" textLength="87" x="886" y="131.3602">+infer_ml_model()</text><text fill="#000000" font-family="sans-serif" font-size="11" lengthAdjust="spacingAndGlyphs" textLength="47" x="886" y="144.0091">+finalize()</text><!--MD5=[0624b538302a5a462d2624a255cce169]
class MLCouplingProvider<In,Out>--><rect fill="#FFFFE0" filter="url(#f4o8at4206iu3)" height="104.1934" id="MLCouplingProvider&lt;In,Out&gt;" style="stroke: #000000; stroke-width: 1.5;" width="191" x="489" y="270.61"/><ellipse cx="504" cy="289.4088" fill="#ADD1B2" rx="11" ry="11" style="stroke: #000000; stroke-width: 1.0;"/><path d="M501.6563,289.2526 Q501.6563,291.1276 502.2344,292.1432 Q502.8125,293.1432 503.9688,293.1432 Q505.3125,293.1432 505.9688,291.1276 L508.2344,291.5495 Q507.125,295.0807 503.9531,295.0807 Q501.6094,295.0807 500.3906,293.5963 Q499.1719,292.112 499.1719,289.2526 Q499.1719,283.5338 503.875,283.5338 Q505.4219,283.5338 506.4531,284.3463 Q507.5,285.1588 508,286.7682 L505.7344,287.3151 Q505.5,286.4401 505.0156,285.9557 Q504.5313,285.4557 503.9063,285.4557 Q501.6563,285.4557 501.6563,289.2526 Z "/><text fill="#000000" font-family="sans-serif" font-size="12" font-style="italic" lengthAdjust="spacingAndGlyphs" textLength="57" x="569" y="286.8659">«abstract»</text><text fill="#000000" font-family="sans-serif" font-size="12" lengthAdjust="spacingAndGlyphs" textLength="159" x="518" y="300.6647">MLCouplingProvider&lt;In,Out&gt;</text><line style="stroke: #000000; stroke-width: 1.5;" x1="490" x2="679" y1="308.2077" y2="308.2077"/><line style="stroke: #000000; stroke-width: 1.5;" x1="490" x2="679" y1="316.2077" y2="316.2077"/><text fill="#000000" font-family="sans-serif" font-size="11" lengthAdjust="spacingAndGlyphs" textLength="118" x="495" y="330.5255">+~MLCouplingProvider()</text><text fill="#000000" font-family="sans-serif" font-size="11" lengthAdjust="spacingAndGlyphs" textLength="27" x="495" y="343.1745">+init()</text><text fill="#000000" font-family="sans-serif" font-size="11" lengthAdjust="spacingAndGlyphs" textLength="59" x="495" y="355.8234">+inference()</text><text fill="#000000" font-family="sans-serif" font-size="11" lengthAdjust="spacingAndGlyphs" textLength="47" x="495" y="368.4723">+finalize()</text><!--MD5=[9734458d82faec336be428a63de85fff]
class MLCouplingApplication<In,Out>--><rect fill="#FFFFE0" filter="url(#f4o8at4206iu3)" height="192.7358" id="MLCouplingApplication&lt;In,Out&gt;" style="stroke: #000000; stroke-width: 1.5;" width="472" x="826.5" y="226.34"/><ellipse cx="971.25" cy="245.1388" fill="#ADD1B2" rx="11" ry="11" style="stroke: #000000; stroke-width: 1.0;"/><path d="M968.9063,244.9826 Q968.9063,246.8576 969.4844,247.8732 Q970.0625,248.8732 971.2188,248.8732 Q972.5625,248.8732 973.2188,246.8576 L975.4844,247.2795 Q974.375,250.8107 971.2031,250.8107 Q968.8594,250.8107 967.6406,249.3263 Q966.4219,247.842 966.4219,244.9826 Q966.4219,239.2638 971.125,239.2638 Q972.6719,239.2638 973.7031,240.0763 Q974.75,240.8888 975.25,242.4982 L972.9844,243.0451 Q972.75,242.1701 972.2656,241.6857 Q971.7813,241.1857 971.1563,241.1857 Q968.9063,241.1857 968.9063,244.9826 Z "/><text fill="#000000" font-family="sans-serif" font-size="12" font-style="italic" lengthAdjust="spacingAndGlyphs" textLength="57" x="1050.25" y="242.5959">«abstract»</text><text fill="#000000" font-family="sans-serif" font-size="12" lengthAdjust="spacingAndGlyphs" textLength="174" x="991.75" y="256.3947">MLCouplingApplication&lt;In,Out&gt;</text><line style="stroke: #000000; stroke-width: 1.5;" x1="827.5" x2="1297.5" y1="263.9377" y2="263.9377"/><text fill="#000000" font-family="sans-serif" font-size="11" lengthAdjust="spacingAndGlyphs" textLength="344" x="832.5" y="278.2555">-data_processor: std::unique_ptr&lt;MLCouplingDataProcessor&lt;In,Out&gt;&gt;</text><line style="stroke: #000000; stroke-width: 1.5;" x1="827.5" x2="1297.5" y1="284.5866" y2="284.5866"/><text fill="#000000" font-family="sans-serif" font-size="11" lengthAdjust="spacingAndGlyphs" textLength="460" x="832.5" y="298.9045">+MLCouplingApplication(std::unique_ptr&lt;MLCouplingDataProcessor&lt;In,Out&gt;&gt; data_processor)</text><text fill="#000000" font-family="sans-serif" font-size="11" lengthAdjust="spacingAndGlyphs" textLength="129" x="832.5" y="311.5534">+~MLCouplingApplication()</text><text fill="#000000" font-family="sans-serif" font-size="11" lengthAdjust="spacingAndGlyphs" textLength="27" x="832.5" y="324.2023">+init()</text><text fill="#000000" font-family="sans-serif" font-size="11" lengthAdjust="spacingAndGlyphs" textLength="47" x="832.5" y="336.8512">+finalize()</text><text fill="#000000" font-family="sans-serif" font-size="11" lengthAdjust="spacingAndGlyphs" textLength="52" x="832.5" y="349.5002">+ml_step()</text><text fill="#000000" font-family="sans-serif" font-size="11" lengthAdjust="spacingAndGlyphs" textLength="70" x="832.5" y="362.1491">#preprocess()</text><text fill="#000000" font-family="sans-serif" font-size="11" lengthAdjust="spacingAndGlyphs" textLength="87" x="832.5" y="374.798">#infer_ml_model()</text><text fill="#000000" font-family="sans-serif" font-size="11" lengthAdjust="spacingAndGlyphs" textLength="75" x="832.5" y="387.4469">#postprocess()</text><text fill="#000000" font-family="sans-serif" font-size="11" lengthAdjust="spacingAndGlyphs" textLength="88" x="832.5" y="400.0959">-normalize_input()</text><text fill="#000000" font-family="sans-serif" font-size="11" lengthAdjust="spacingAndGlyphs" textLength="107" x="832.5" y="412.7448">-denormalize_output()</text><!--MD5=[6c19f86b9d5afcf28bd36d0fe178c1fc]
class MLCouplingNormalization<In,Out>--><rect fill="#FFFFE0" filter="url(#f4o8at4206iu3)" height="78.8955" id="MLCouplingNormalization&lt;In,Out&gt;" style="stroke: #000000; stroke-width: 1.5;" width="221" x="1248" y="745.56"/><ellipse cx="1263" cy="764.3588" fill="#ADD1B2" rx="11" ry="11" style="stroke: #000000; stroke-width: 1.0;"/><path d="M1260.6563,764.2026 Q1260.6563,766.0776 1261.2344,767.0932 Q1261.8125,768.0932 1262.9688,768.0932 Q1264.3125,768.0932 1264.9688,766.0776 L1267.2344,766.4995 Q1266.125,770.0307 1262.9531,770.0307 Q1260.6094,770.0307 1259.3906,768.5463 Q1258.1719,767.062 1258.1719,764.2026 Q1258.1719,758.4838 1262.875,758.4838 Q1264.4219,758.4838 1265.4531,759.2963 Q1266.5,760.1088 1267,761.7182 L1264.7344,762.2651 Q1264.5,761.3901 1264.0156,760.9057 Q1263.5313,760.4057 1262.9063,760.4057 Q1260.6563,760.4057 1260.6563,764.2026 Z "/><text fill="#000000" font-family="sans-serif" font-size="12" font-style="italic" lengthAdjust="spacingAndGlyphs" textLength="57" x="1343" y="761.8159">«abstract»</text><text fill="#000000" font-family="sans-serif" font-size="12" lengthAdjust="spacingAndGlyphs" textLength="189" x="1277" y="775.6147">MLCouplingNormalization&lt;In,Out&gt;</text><line style="stroke: #000000; stroke-width: 1.5;" x1="1249" x2="1468" y1="783.1577" y2="783.1577"/><line style="stroke: #000000; stroke-width: 1.5;" x1="1249" x2="1468" y1="791.1577" y2="791.1577"/><text fill="#000000" font-family="sans-serif" font-size="11" lengthAdjust="spacingAndGlyphs" textLength="120" x="1254" y="805.4755">+normalize_input(In*, int)</text><text fill="#000000" font-family="sans-serif" font-size="11" lengthAdjust="spacingAndGlyphs" textLength="148" x="1254" y="818.1245">+denormalize_output(Out*, int)</text><!--MD5=[97416592fb3e02693e6c76276d79ae5f]
class MLCouplingMinMaxNormalization<In,Out>--><rect fill="#FEFECE" filter="url(#f4o8at4206iu3)" height="136.5425" id="MLCouplingMinMaxNormalization&lt;In,Out&gt;" style="stroke: #000000; stroke-width: 1.5;" width="264" x="1226.5" y="885.46"/><ellipse cx="1241.5" cy="901.46" fill="#ADD1B2" rx="11" ry="11" style="stroke: #000000; stroke-width: 1.0;"/><path d="M1239.1563,901.3038 Q1239.1563,903.1788 1239.7344,904.1944 Q1240.3125,905.1944 1241.4688,905.1944 Q1242.8125,905.1944 1243.4688,903.1788 L1245.7344,903.6006 Q1244.625,907.1319 1241.4531,907.1319 Q1239.1094,907.1319 1237.8906,905.6475 Q1236.6719,904.1631 1236.6719,901.3038 Q1236.6719,895.585 1241.375,895.585 Q1242.9219,895.585 1243.9531,896.3975 Q1245,897.21 1245.5,898.8194 L1243.2344,899.3663 Q1243,898.4913 1242.5156,898.0069 Q1242.0313,897.5069 1241.4063,897.5069 Q1239.1563,897.5069 1239.1563,901.3038 Z "/><text fill="#000000" font-family="sans-serif" font-size="12" lengthAdjust="spacingAndGlyphs" textLength="232" x="1255.5" y="905.8164">MLCouplingMinMaxNormalization&lt;In,Out&gt;</text><line style="stroke: #000000; stroke-width: 1.5;" x1="1227.5" x2="1489.5" y1="917.46" y2="917.46"/><text fill="#000000" font-family="sans-serif" font-size="11" lengthAdjust="spacingAndGlyphs" textLength="65" x="1232.5" y="931.7779">-input_min: In</text><text fill="#000000" font-family="sans-serif" font-size="11" lengthAdjust="spacingAndGlyphs" textLength="69" x="1232.5" y="944.4268">-input_max: In</text><text fill="#000000" font-family="sans-serif" font-size="11" lengthAdjust="spacingAndGlyphs" textLength="81" x="1232.5" y="957.0757">-output_min: Out</text><text fill="#000000" font-family="sans-serif" font-size="11" lengthAdjust="spacingAndGlyphs" textLength="85" x="1232.5" y="969.7246">-output_max: Out</text><line style="stroke: #000000; stroke-width: 1.5;" x1="1227.5" x2="1489.5" y1="976.0557" y2="976.0557"/><text fill="#000000" font-family="sans-serif" font-size="11" lengthAdjust="spacingAndGlyphs" textLength="247" x="1232.5" y="990.3736">+MLCouplingMinMaxNormalization(In, In, Out, Out)</text><text fill="#000000" font-family="sans-serif" font-size="11" lengthAdjust="spacingAndGlyphs" textLength="120" x="1232.5" y="1003.0225">+normalize_input(In*, int)</text><text fill="#000000" font-family="sans-serif" font-size="11" lengthAdjust="spacingAndGlyphs" textLength="148" x="1232.5" y="1015.6714">+denormalize_output(Out*, int)</text><!--MD5=[b8fbc68d072974482eee1b95ce0fc17b]
class MLCouplingApplicationTurbulenceClosure<In,Out>--><rect fill="#FEFECE" filter="url(#f4o8at4206iu3)" height="123.8936" id="MLCouplingApplicationTurbulenceClosure&lt;In,Out&gt;" style="stroke: #000000; stroke-width: 1.5;" width="311" x="824" y="520.37"/><ellipse cx="839" cy="536.37" fill="#ADD1B2" rx="11" ry="11" style="stroke: #000000; stroke-width: 1.0;"/><path d="M836.6563,536.2138 Q836.6563,538.0888 837.2344,539.1044 Q837.8125,540.1044 838.9688,540.1044 Q840.3125,540.1044 840.9688,538.0888 L843.2344,538.5106 Q842.125,542.0419 838.9531,542.0419 Q836.6094,542.0419 835.3906,540.5575 Q834.1719,539.0731 834.1719,536.2138 Q834.1719,530.495 838.875,530.495 Q840.4219,530.495 841.4531,531.3075 Q842.5,532.12 843,533.7294 L840.7344,534.2763 Q840.5,533.4013 840.0156,532.9169 Q839.5313,532.4169 838.9063,532.4169 Q836.6563,532.4169 836.6563,536.2138 Z "/><text fill="#000000" font-family="sans-serif" font-size="12" lengthAdjust="spacingAndGlyphs" textLength="279" x="853" y="540.7264">MLCouplingApplicationTurbulenceClosure&lt;In,Out&gt;</text><line style="stroke: #000000; stroke-width: 1.5;" x1="825" x2="1134" y1="552.37" y2="552.37"/><line style="stroke: #000000; stroke-width: 1.5;" x1="825" x2="1134" y1="560.37" y2="560.37"/><text fill="#000000" font-family="sans-serif" font-size="11" lengthAdjust="spacingAndGlyphs" textLength="70" x="830" y="574.6879">+preprocess()</text><text fill="#000000" font-family="sans-serif" font-size="11" lengthAdjust="spacingAndGlyphs" textLength="75" x="830" y="587.3368">+postprocess()</text><text fill="#000000" font-family="sans-serif" font-size="11" lengthAdjust="spacingAndGlyphs" textLength="87" x="830" y="599.9857">+infer_ml_model()</text><text fill="#000000" font-family="sans-serif" font-size="11" lengthAdjust="spacingAndGlyphs" textLength="88" x="830" y="612.6346">-uniform_filtering()</text><text fill="#000000" font-family="sans-serif" font-size="11" lengthAdjust="spacingAndGlyphs" textLength="81" x="830" y="625.2836">-downsampling()</text><text fill="#000000" font-family="sans-serif" font-size="11" lengthAdjust="spacingAndGlyphs" textLength="85" x="830" y="637.9325">-compute_tau_ij()</text><!--MD5=[a8a4cbeec90b54dbba0dcc7b11288957]
class MLCouplingDataProcessor<In,Out>--><rect fill="#FEFECE" filter="url(#f4o8at4206iu3)" height="174.4893" id="MLCouplingDataProcessor&lt;In,Out&gt;" style="stroke: #000000; stroke-width: 1.5;" width="378" x="1169.5" y="495.07"/><ellipse cx="1257.25" cy="511.07" fill="#ADD1B2" rx="11" ry="11" style="stroke: #000000; stroke-width: 1.0;"/><path d="M1254.9063,510.9138 Q1254.9063,512.7888 1255.4844,513.8044 Q1256.0625,514.8044 1257.2188,514.8044 Q1258.5625,514.8044 1259.2188,512.7888 L1261.4844,513.2106 Q1260.375,516.7419 1257.2031,516.7419 Q1254.8594,516.7419 1253.6406,515.2575 Q1252.4219,513.7731 1252.4219,510.9138 Q1252.4219,505.195 1257.125,505.195 Q1258.6719,505.195 1259.7031,506.0075 Q1260.75,506.82 1261.25,508.4294 L1258.9844,508.9763 Q1258.75,508.1013 1258.2656,507.6169 Q1257.7813,507.1169 1257.1563,507.1169 Q1254.9063,507.1169 1254.9063,510.9138 Z "/><text fill="#000000" font-family="sans-serif" font-size="12" lengthAdjust="spacingAndGlyphs" textLength="194" x="1277.75" y="515.4264">MLCouplingDataProcessor&lt;In,Out&gt;</text><line style="stroke: #000000; stroke-width: 1.5;" x1="1170.5" x2="1546.5" y1="527.07" y2="527.07"/><text fill="#000000" font-family="sans-serif" font-size="11" lengthAdjust="spacingAndGlyphs" textLength="234" x="1175.5" y="541.3879">std::vector&lt;Out*&gt;, std::vector&lt;std::vector&lt;int&gt;&gt;,</text><text fill="#000000" font-family="sans-serif" font-size="11" lengthAdjust="spacingAndGlyphs" textLength="139" x="1175.5" y="554.0368">#input_data: std::vector&lt;In*&gt;</text><text fill="#000000" font-family="sans-serif" font-size="11" lengthAdjust="spacingAndGlyphs" textLength="262" x="1175.5" y="566.6857">#input_data_dimensions: std::vector&lt;std::vector&lt;int&gt;&gt;</text><text fill="#000000" font-family="sans-serif" font-size="11" lengthAdjust="spacingAndGlyphs" textLength="155" x="1175.5" y="579.3346">#output_data: std::vector&lt;Out*&gt;</text><text fill="#000000" font-family="sans-serif" font-size="11" lengthAdjust="spacingAndGlyphs" textLength="269" x="1175.5" y="591.9836">#output_data_dimensions: std::vector&lt;std::vector&lt;int&gt;&gt;</text><text fill="#000000" font-family="sans-serif" font-size="11" lengthAdjust="spacingAndGlyphs" textLength="323" x="1175.5" y="604.6325">-normalization: std::unique_ptr&lt;MLCouplingNormalization&lt;In,Out&gt;&gt;</text><line style="stroke: #000000; stroke-width: 1.5;" x1="1170.5" x2="1546.5" y1="610.9636" y2="610.9636"/><text fill="#000000" font-family="sans-serif" font-size="11" lengthAdjust="spacingAndGlyphs" textLength="366" x="1175.5" y="625.2814">+MLCouplingDataProcessor(std::vector&lt;In*&gt;, std::vector&lt;std::vector&lt;int&gt;&gt;,</text><text fill="#000000" font-family="sans-serif" font-size="11" lengthAdjust="spacingAndGlyphs" textLength="173" x="1175.5" y="637.9304">MLCouplingNormalization&lt;In,Out&gt;*)</text><text fill="#000000" font-family="sans-serif" font-size="11" lengthAdjust="spacingAndGlyphs" textLength="106" x="1175.5" y="650.5793">#normalize_input(In&amp;)</text><text fill="#000000" font-family="sans-serif" font-size="11" lengthAdjust="spacingAndGlyphs" textLength="134" x="1175.5" y="663.2282">#denormalize_output(Out&amp;)</text><!--MD5=[be39cfb2cfae71551c2ac1a911145cde]
class MLCouplingBehavior--><rect fill="#FFFFE0" filter="url(#f4o8at4206iu3)" height="91.5444" id="MLCouplingBehavior" style="stroke: #000000; stroke-width: 1.5;" width="179" x="1586" y="276.93"/><ellipse cx="1614.95" cy="295.7288" fill="#ADD1B2" rx="11" ry="11" style="stroke: #000000; stroke-width: 1.0;"/><path d="M1612.6063,295.5726 Q1612.6063,297.4476 1613.1844,298.4632 Q1613.7625,299.4632 1614.9188,299.4632 Q1616.2625,299.4632 1616.9188,297.4476 L1619.1844,297.8695 Q1618.075,301.4007 1614.9031,301.4007 Q1612.5594,301.4007 1611.3406,299.9163 Q1610.1219,298.432 1610.1219,295.5726 Q1610.1219,289.8538 1614.825,289.8538 Q1616.3719,289.8538 1617.4031,290.6663 Q1618.45,291.4788 1618.95,293.0882 L1616.6844,293.6351 Q1616.45,292.7601 1615.9656,292.2757 Q1615.4813,291.7757 1614.8563,291.7757 Q1612.6063,291.7757 1612.6063,295.5726 Z "/><text fill="#000000" font-family="sans-serif" font-size="12" font-style="italic" lengthAdjust="spacingAndGlyphs" textLength="57" x="1661.55" y="293.1859">«abstract»</text><text fill="#000000" font-family="sans-serif" font-size="12" lengthAdjust="spacingAndGlyphs" textLength="116" x="1632.05" y="306.9847">MLCouplingBehavior</text><line style="stroke: #000000; stroke-width: 1.5;" x1="1587" x2="1764" y1="314.5277" y2="314.5277"/><line style="stroke: #000000; stroke-width: 1.5;" x1="1587" x2="1764" y1="322.5277" y2="322.5277"/><text fill="#000000" font-family="sans-serif" font-size="11" lengthAdjust="spacingAndGlyphs" textLength="167" x="1592" y="336.8455">+should_perform_inference(): bool</text><text fill="#000000" font-family="sans-serif" font-size="11" lengthAdjust="spacingAndGlyphs" textLength="107" x="1592" y="349.4945">+time_step_delta(): int</text><text fill="#000000" font-family="sans-serif" font-size="11" lengthAdjust="spacingAndGlyphs" textLength="129" x="1592" y="362.1434">+should_send_data(): bool</text><!--MD5=[3f906eb8a64c5fa7c99969f7f216ea4d]
class MLCouplingBehaviorDefault--><rect fill="#FEFECE" filter="url(#f4o8at4206iu3)" height="85.9468" id="MLCouplingBehaviorDefault" style="stroke: #000000; stroke-width: 1.5;" width="187" x="1582" y="539.34"/><ellipse cx="1597" cy="555.34" fill="#ADD1B2" rx="11" ry="11" style="stroke: #000000; stroke-width: 1.0;"/><path d="M1594.6563,555.1837 Q1594.6563,557.0587 1595.2344,558.0744 Q1595.8125,559.0744 1596.9688,559.0744 Q1598.3125,559.0744 1598.9688,557.0587 L1601.2344,557.4806 Q1600.125,561.0119 1596.9531,561.0119 Q1594.6094,561.0119 1593.3906,559.5275 Q1592.1719,558.0431 1592.1719,555.1837 Q1592.1719,549.465 1596.875,549.465 Q1598.4219,549.465 1599.4531,550.2775 Q1600.5,551.09 1601,552.6994 L1598.7344,553.2462 Q1598.5,552.3712 1598.0156,551.8869 Q1597.5313,551.3869 1596.9063,551.3869 Q1594.6563,551.3869 1594.6563,555.1837 Z "/><text fill="#000000" font-family="sans-serif" font-size="12" lengthAdjust="spacingAndGlyphs" textLength="155" x="1611" y="559.6964">MLCouplingBehaviorDefault</text><line style="stroke: #000000; stroke-width: 1.5;" x1="1583" x2="1768" y1="571.34" y2="571.34"/><line style="stroke: #000000; stroke-width: 1.5;" x1="1583" x2="1768" y1="579.34" y2="579.34"/><text fill="#000000" font-family="sans-serif" font-size="11" lengthAdjust="spacingAndGlyphs" textLength="167" x="1588" y="593.6579">+should_perform_inference(): bool</text><text fill="#000000" font-family="sans-serif" font-size="11" lengthAdjust="spacingAndGlyphs" textLength="107" x="1588" y="606.3068">+time_step_delta(): int</text><text fill="#000000" font-family="sans-serif" font-size="11" lengthAdjust="spacingAndGlyphs" textLength="129" x="1588" y="618.9557">+should_send_data(): bool</text><!--MD5=[1ad52a24b6e8672bdb7d3010e92aa71a]
class MLCouplingBehaviorPeriodic--><rect fill="#FEFECE" filter="url(#f4o8at4206iu3)" height="149.1914" id="MLCouplingBehaviorPeriodic" style="stroke: #000000; stroke-width: 1.5;" width="193" x="1804" y="507.72"/><ellipse cx="1819" cy="523.72" fill="#ADD1B2" rx="11" ry="11" style="stroke: #000000; stroke-width: 1.0;"/><path d="M1816.6563,523.5638 Q1816.6563,525.4388 1817.2344,526.4544 Q1817.8125,527.4544 1818.9688,527.4544 Q1820.3125,527.4544 1820.9688,525.4388 L1823.2344,525.8606 Q1822.125,529.3919 1818.9531,529.3919 Q1816.6094,529.3919 1815.3906,527.9075 Q1814.1719,526.4231 1814.1719,523.5638 Q1814.1719,517.845 1818.875,517.845 Q1820.4219,517.845 1821.4531,518.6575 Q1822.5,519.47 1823,521.0794 L1820.7344,521.6263 Q1820.5,520.7513 1820.0156,520.2669 Q1819.5313,519.7669 1818.9063,519.7669 Q1816.6563,519.7669 1816.6563,523.5638 Z "/><text fill="#000000" font-family="sans-serif" font-size="12" lengthAdjust="spacingAndGlyphs" textLength="161" x="1833" y="528.0764">MLCouplingBehaviorPeriodic</text><line style="stroke: #000000; stroke-width: 1.5;" x1="1805" x2="1996" y1="539.72" y2="539.72"/><text fill="#000000" font-family="sans-serif" font-size="11" lengthAdjust="spacingAndGlyphs" textLength="107" x="1810" y="554.0379">-step_count: long long</text><text fill="#000000" font-family="sans-serif" font-size="11" lengthAdjust="spacingAndGlyphs" textLength="107" x="1810" y="566.6868">-inference_interval: int</text><text fill="#000000" font-family="sans-serif" font-size="11" lengthAdjust="spacingAndGlyphs" textLength="180" x="1810" y="579.3357">-coupled_steps_before_inference: int</text><text fill="#000000" font-family="sans-serif" font-size="11" lengthAdjust="spacingAndGlyphs" textLength="125" x="1810" y="591.9846">-coupled_steps_stride: int</text><text fill="#000000" font-family="sans-serif" font-size="11" lengthAdjust="spacingAndGlyphs" textLength="175" x="1810" y="604.6336">-step_increment_after_inference: int</text><line style="stroke: #000000; stroke-width: 1.5;" x1="1805" x2="1996" y1="610.9646" y2="610.9646"/><text fill="#000000" font-family="sans-serif" font-size="11" lengthAdjust="spacingAndGlyphs" textLength="167" x="1810" y="625.2825">+should_perform_inference(): bool</text><text fill="#000000" font-family="sans-serif" font-size="11" lengthAdjust="spacingAndGlyphs" textLength="107" x="1810" y="637.9314">+time_step_delta(): int</text><text fill="#000000" font-family="sans-serif" font-size="11" lengthAdjust="spacingAndGlyphs" textLength="129" x="1810" y="650.5804">+should_send_data(): bool</text><!--MD5=[7074944c2ab3aac83cd978942c4df225]
class MLCouplingProviderPhydll<In,Out>--><rect fill="#FEFECE" filter="url(#f4o8at4206iu3)" height="85.9468" id="MLCouplingProviderPhydll&lt;In,Out&gt;" style="stroke: #000000; stroke-width: 1.5;" width="225" x="6" y="539.34"/><ellipse cx="21" cy="555.34" fill="#ADD1B2" rx="11" ry="11" style="stroke: #000000; stroke-width: 1.0;"/><path d="M18.6563,555.1837 Q18.6563,557.0587 19.2344,558.0744 Q19.8125,559.0744 20.9688,559.0744 Q22.3125,559.0744 22.9688,557.0587 L25.2344,557.4806 Q24.125,561.0119 20.9531,561.0119 Q18.6094,561.0119 17.3906,559.5275 Q16.1719,558.0431 16.1719,555.1837 Q16.1719,549.465 20.875,549.465 Q22.4219,549.465 23.4531,550.2775 Q24.5,551.09 25,552.6994 L22.7344,553.2462 Q22.5,552.3712 22.0156,551.8869 Q21.5313,551.3869 20.9063,551.3869 Q18.6563,551.3869 18.6563,555.1837 Z "/><text fill="#000000" font-family="sans-serif" font-size="12" lengthAdjust="spacingAndGlyphs" textLength="193" x="35" y="559.6964">MLCouplingProviderPhydll&lt;In,Out&gt;</text><line style="stroke: #000000; stroke-width: 1.5;" x1="7" x2="230" y1="571.34" y2="571.34"/><line style="stroke: #000000; stroke-width: 1.5;" x1="7" x2="230" y1="579.34" y2="579.34"/><text fill="#000000" font-family="sans-serif" font-size="11" lengthAdjust="spacingAndGlyphs" textLength="27" x="12" y="593.6579">+init()</text><text fill="#000000" font-family="sans-serif" font-size="11" lengthAdjust="spacingAndGlyphs" textLength="59" x="12" y="606.3068">+inference()</text><text fill="#000000" font-family="sans-serif" font-size="11" lengthAdjust="spacingAndGlyphs" textLength="47" x="12" y="618.9557">+finalize()</text><!--MD5=[8607bbea39033dadd3415aaeaff18542]
class MLCouplingProviderAixelerate<In,Out>--><rect fill="#FEFECE" filter="url(#f4o8at4206iu3)" height="85.9468" id="MLCouplingProviderAixelerate&lt;In,Out&gt;" style="stroke: #000000; stroke-width: 1.5;" width="246" x="266.5" y="539.34"/><ellipse cx="281.5" cy="555.34" fill="#ADD1B2" rx="11" ry="11" style="stroke: #000000; stroke-width: 1.0;"/><path d="M279.1563,555.1837 Q279.1563,557.0587 279.7344,558.0744 Q280.3125,559.0744 281.4688,559.0744 Q282.8125,559.0744 283.4688,557.0587 L285.7344,557.4806 Q284.625,561.0119 281.4531,561.0119 Q279.1094,561.0119 277.8906,559.5275 Q276.6719,558.0431 276.6719,555.1837 Q276.6719,549.465 281.375,549.465 Q282.9219,549.465 283.9531,550.2775 Q285,551.09 285.5,552.6994 L283.2344,553.2462 Q283,552.3712 282.5156,551.8869 Q282.0313,551.3869 281.4063,551.3869 Q279.1563,551.3869 279.1563,555.1837 Z "/><text fill="#000000" font-family="sans-serif" font-size="12" lengthAdjust="spacingAndGlyphs" textLength="214" x="295.5" y="559.6964">MLCouplingProviderAixelerate&lt;In,Out&gt;</text><line style="stroke: #000000; stroke-width: 1.5;" x1="267.5" x2="511.5" y1="571.34" y2="571.34"/><line style="stroke: #000000; stroke-width: 1.5;" x1="267.5" x2="511.5" y1="579.34" y2="579.34"/><text fill="#000000" font-family="sans-serif" font-size="11" lengthAdjust="spacingAndGlyphs" textLength="27" x="272.5" y="593.6579">+init()</text><text fill="#000000" font-family="sans-serif" font-size="11" lengthAdjust="spacingAndGlyphs" textLength="59" x="272.5" y="606.3068">+inference()</text><text fill="#000000" font-family="sans-serif" font-size="11" lengthAdjust="spacingAndGlyphs" textLength="47" x="272.5" y="618.9557">+finalize()</text><!--MD5=[c3379b928cd3c8484581ec34c761cdd7]
class MLCouplingProviderSmartsim<In,Out>--><rect fill="#FEFECE" filter="url(#f4o8at4206iu3)" height="85.9468" id="MLCouplingProviderSmartsim&lt;In,Out&gt;" style="stroke: #000000; stroke-width: 1.5;" width="242" x="547.5" y="539.34"/><ellipse cx="562.5" cy="555.34" fill="#ADD1B2" rx="11" ry="11" style="stroke: #000000; stroke-width: 1.0;"/><path d="M560.1563,555.1837 Q560.1563,557.0587 560.7344,558.0744 Q561.3125,559.0744 562.4688,559.0744 Q563.8125,559.0744 564.4688,557.0587 L566.7344,557.4806 Q565.625,561.0119 562.4531,561.0119 Q560.1094,561.0119 558.8906,559.5275 Q557.6719,558.0431 557.6719,555.1837 Q557.6719,549.465 562.375,549.465 Q563.9219,549.465 564.9531,550.2775 Q566,551.09 566.5,552.6994 L564.2344,553.2462 Q564,552.3712 563.5156,551.8869 Q563.0313,551.3869 562.4063,551.3869 Q560.1563,551.3869 560.1563,555.1837 Z "/><text fill="#000000" font-family="sans-serif" font-size="12" lengthAdjust="spacingAndGlyphs" textLength="210" x="576.5" y="559.6964">MLCouplingProviderSmartsim&lt;In,Out&gt;</text><line style="stroke: #000000; stroke-width: 1.5;" x1="548.5" x2="788.5" y1="571.34" y2="571.34"/><line style="stroke: #000000; stroke-width: 1.5;" x1="548.5" x2="788.5" y1="579.34" y2="579.34"/><text fill="#000000" font-family="sans-serif" font-size="11" lengthAdjust="spacingAndGlyphs" textLength="27" x="553.5" y="593.6579">+init()</text><text fill="#000000" font-family="sans-serif" font-size="11" lengthAdjust="spacingAndGlyphs" textLength="59" x="553.5" y="606.3068">+inference()</text><text fill="#000000" font-family="sans-serif" font-size="11" lengthAdjust="spacingAndGlyphs" textLength="47" x="553.5" y="618.9557">+finalize()</text><!--MD5=[1fd91dcbf383aedd2f1e4b0e3de37ea0]
link MLCoupling<In,Out> to MLCouplingProvider<In,Out>--><path d="M915.6,154.47 C841.89,191.7 754.39,235.9 687.85,269.5 " fill="none" id="MLCoupling&lt;In,Out&gt;-MLCouplingProvider&lt;In,Out&gt;" style="stroke: #000000; stroke-width: 1.0;"/><line style="stroke: #000000; stroke-width: 1.0;" x1="686.9831" x2="683.3793" y1="274.4293" y2="267.2869"/><line style="stroke: #000000; stroke-width: 1.0;" x1="689.6614" x2="686.0576" y1="273.0779" y2="265.9355"/><line style="stroke: #000000; stroke-width: 1.0;" x1="688.7523" x2="681.61" y1="269.0562" y2="272.66"/><line style="stroke: #000000; stroke-width: 1.0;" x1="916.2369" x2="919.8407" y1="149.6607" y2="156.8031"/><line style="stroke: #000000; stroke-width: 1.0;" x1="913.5586" x2="917.1624" y1="151.0121" y2="158.1545"/><line style="stroke: #000000; stroke-width: 1.0;" x1="914.4677" x2="921.61" y1="155.0338" y2="151.43"/><text fill="#000000" font-family="sans-serif" font-size="13" lengthAdjust="spacingAndGlyphs" textLength="30" x="853.5" y="193.5338">owns</text><text fill="#000000" font-family="sans-serif" font-size="13" lengthAdjust="spacingAndGlyphs" textLength="7" x="902.3265" y="170.4692">1</text><text fill="#000000" font-family="sans-serif" font-size="13" lengthAdjust="spacingAndGlyphs" textLength="7" x="687.8488" y="267.2546">1</text><!--MD5=[295b831e619ddb9550140844d5637beb]
link MLCoupling<In,Out> to MLCouplingApplication<In,Out>--><path d="M1062.5,159.14 C1062.5,177.82 1062.5,198.03 1062.5,217.64 " fill="none" id="MLCoupling&lt;In,Out&gt;-MLCouplingApplication&lt;In,Out&gt;" style="stroke: #000000; stroke-width: 1.0;"/><line style="stroke: #000000; stroke-width: 1.0;" x1="1066.5" x2="1058.5" y1="220.49" y2="220.49"/><line style="stroke: #000000; stroke-width: 1.0;" x1="1066.5" x2="1058.5" y1="217.49" y2="217.49"/><line style="stroke: #000000; stroke-width: 1.0;" x1="1062.5" x2="1062.5" y1="216.49" y2="224.49"/><line style="stroke: #000000; stroke-width: 1.0;" x1="1058.5" x2="1066.5" y1="156.26" y2="156.26"/><line style="stroke: #000000; stroke-width: 1.0;" x1="1058.5" x2="1066.5" y1="159.26" y2="159.26"/><line style="stroke: #000000; stroke-width: 1.0;" x1="1062.5" x2="1062.5" y1="160.26" y2="152.26"/><text fill="#000000" font-family="sans-serif" font-size="13" lengthAdjust="spacingAndGlyphs" textLength="30" x="1063.5" y="193.5338">owns</text><text fill="#000000" font-family="sans-serif" font-size="13" lengthAdjust="spacingAndGlyphs" textLength="7" x="1055.1664" y="170.4692">1</text><text fill="#000000" font-family="sans-serif" font-size="13" lengthAdjust="spacingAndGlyphs" textLength="7" x="1055.2102" y="215.6448">1</text><!--MD5=[0db71367c1a681db51e43fb06fd0011e]
link MLCoupling<In,Out> to MLCouplingBehavior--><path d="M1250.12,154.16 C1358.08,196.69 1489.34,248.38 1577.24,283 " fill="none" id="MLCoupling&lt;In,Out&gt;-MLCouplingBehavior" style="stroke: #000000; stroke-width: 1.0;"/><line style="stroke: #000000; stroke-width: 1.0;" x1="1574.2306" x2="1584.46" y1="281.8054" y2="285.85"/><ellipse cx="1574.2306" cy="281.8054" fill="none" rx="4" ry="4" style="stroke: #000000; stroke-width: 1.0;"/><line style="stroke: #000000; stroke-width: 1.0;" x1="1582.211" x2="1579.2694" y1="280.6594" y2="288.099"/><line style="stroke: #000000; stroke-width: 1.0;" x1="1245.1176" x2="1248.0468" y1="156.4868" y2="149.0424"/><line style="stroke: #000000; stroke-width: 1.0;" x1="1247.9093" x2="1250.8385" y1="157.5853" y2="150.1408"/><line style="stroke: #000000; stroke-width: 1.0;" x1="1250.3044" x2="1242.86" y1="154.2292" y2="151.3"/><text fill="#000000" font-family="sans-serif" font-size="13" lengthAdjust="spacingAndGlyphs" textLength="30" x="1352.5" y="193.5338">owns</text><text fill="#000000" font-family="sans-serif" font-size="13" lengthAdjust="spacingAndGlyphs" textLength="7" x="1251.1726" y="170.4692">1</text><text fill="#000000" font-family="sans-serif" font-size="13" lengthAdjust="spacingAndGlyphs" textLength="22" x="1555.851" y="281.181">0..1</text><!--MD5=[7b9297ed4e2a7a6b5f90a6f15c97368a]
link MLCouplingApplication<In,Out> to MLCouplingDataProcessor<In,Out>--><path d="M1178.67,424.81 C1203.09,446.06 1228.73,468.38 1252.74,489.28 " fill="none" id="MLCouplingApplication&lt;In,Out&gt;-MLCouplingDataProcessor&lt;In,Out&gt;" style="stroke: #000000; stroke-width: 1.0;"/><line style="stroke: #000000; stroke-width: 1.0;" x1="1257.6161" x2="1252.3562" y1="488.2062" y2="494.2339"/><line style="stroke: #000000; stroke-width: 1.0;" x1="1255.3557" x2="1250.0958" y1="486.2337" y2="492.2614"/><line style="stroke: #000000; stroke-width: 1.0;" x1="1251.9723" x2="1258" y1="488.5901" y2="493.85"/><line style="stroke: #000000; stroke-width: 1.0;" x1="1173.8239" x2="1179.0838" y1="425.9038" y2="419.8761"/><line style="stroke: #000000; stroke-width: 1.0;" x1="1176.0843" x2="1181.3442" y1="427.8763" y2="421.8486"/><line style="stroke: #000000; stroke-width: 1.0;" x1="1179.4677" x2="1173.44" y1="425.5199" y2="420.26"/><text fill="#000000" font-family="sans-serif" font-size="13" lengthAdjust="spacingAndGlyphs" textLength="30" x="1220.5" y="462.2638">owns</text><text fill="#000000" font-family="sans-serif" font-size="13" lengthAdjust="spacingAndGlyphs" textLength="7" x="1173.4386" y="439.4184">1</text><text fill="#000000" font-family="sans-serif" font-size="13" lengthAdjust="spacingAndGlyphs" textLength="7" x="1242.6576" y="484.3791">1</text><!--MD5=[8c542636dc8d8f2d0d67fa52e25ac382]
link MLCouplingDataProcessor<In,Out> to MLCouplingNormalization<In,Out>--><path d="M1358.5,679.18 C1358.5,698.92 1358.5,718.9 1358.5,736.05 " fill="none" id="MLCouplingDataProcessor&lt;In,Out&gt;-MLCouplingNormalization&lt;In,Out&gt;" style="stroke: #000000; stroke-width: 1.0;"/><line style="stroke: #000000; stroke-width: 1.0;" x1="1358.5196" x2="1358.5" y1="732.75" y2="743.75"/><ellipse cx="1358.5196" cy="732.75" fill="none" rx="4" ry="4" style="stroke: #000000; stroke-width: 1.0;"/><line style="stroke: #000000; stroke-width: 1.0;" x1="1362.5071" x2="1354.5071" y1="739.7571" y2="739.7429"/><line style="stroke: #000000; stroke-width: 1.0;" x1="1354.5" x2="1362.5" y1="675.4" y2="675.4"/><line style="stroke: #000000; stroke-width: 1.0;" x1="1354.5" x2="1362.5" y1="678.4" y2="678.4"/><line style="stroke: #000000; stroke-width: 1.0;" x1="1358.5" x2="1358.5" y1="679.4" y2="671.4"/><text fill="#000000" font-family="sans-serif" font-size="13" lengthAdjust="spacingAndGlyphs" textLength="30" x="1359.5" y="712.7538">owns</text><text fill="#000000" font-family="sans-serif" font-size="13" lengthAdjust="spacingAndGlyphs" textLength="7" x="1351.2211" y="689.6581">1</text><text fill="#000000" font-family="sans-serif" font-size="13" lengthAdjust="spacingAndGlyphs" textLength="22" x="1334.4719" y="734.9222">0..1</text><!--MD5=[f4e824b13bafebbbd0227c49e3c2ac6d]
reverse link MLCouplingNormalization<In,Out> to MLCouplingMinMaxNormalization<In,Out>--><path d="M1358.5,845.83 C1358.5,858.59 1358.5,872.16 1358.5,885.19 " fill="none" id="MLCouplingNormalization&lt;In,Out&gt;&lt;-MLCouplingMinMaxNormalization&lt;In,Out&gt;" style="stroke: #000000; stroke-width: 1.0;"/><polygon fill="none" points="1351.5,846.19,1358.5,826.19,1365.5,846.19,1351.5,846.19" style="stroke: #000000; stroke-width: 1.0;"/><!--MD5=[c579de39c61fe3f98a3d4912dbb11bab]
reverse link MLCouplingApplication<In,Out> to MLCouplingApplicationTurbulenceClosure<In,Out>--><path d="M1025.13,439.68 C1016.22,467.35 1007.05,495.81 999.29,519.89 " fill="none" id="MLCouplingApplication&lt;In,Out&gt;&lt;-MLCouplingApplicationTurbulenceClosure&lt;In,Out&gt;" style="stroke: #000000; stroke-width: 1.0;"/><polygon fill="none" points="1018.45,437.59,1031.25,420.7,1031.78,441.89,1018.45,437.59" style="stroke: #000000; stroke-width: 1.0;"/><!--MD5=[e3c6df0024f4e001d3dbc4060b2b7e2b]
reverse link MLCouplingBehavior to MLCouplingBehaviorDefault--><path d="M1675.5,390.29 C1675.5,437.29 1675.5,498.84 1675.5,539.19 " fill="none" id="MLCouplingBehavior&lt;-MLCouplingBehaviorDefault" style="stroke: #000000; stroke-width: 1.0;"/><polygon fill="none" points="1668.5,390.39,1675.5,370.39,1682.5,390.39,1668.5,390.39" style="stroke: #000000; stroke-width: 1.0;"/><!--MD5=[e9b84672a41d93ca8993bc20b03ec48b]
reverse link MLCouplingBehavior to MLCouplingBehaviorPeriodic--><path d="M1729,384.96 C1761.07,421.68 1802.07,468.62 1835.93,507.39 " fill="none" id="MLCouplingBehavior&lt;-MLCouplingBehaviorPeriodic" style="stroke: #000000; stroke-width: 1.0;"/><polygon fill="none" points="1723.83,389.68,1715.95,370.01,1734.37,380.47,1723.83,389.68" style="stroke: #000000; stroke-width: 1.0;"/><!--MD5=[ab33557bf1fed1f0338cee95bd2d126f]
reverse link MLCouplingProvider<In,Out> to MLCouplingProviderPhydll<In,Out>--><path d="M469.89,378.12 C404.11,410.34 320.55,452.99 248.5,495.07 C225.35,508.6 200.66,524.56 179.09,539.05 " fill="none" id="MLCouplingProvider&lt;In,Out&gt;&lt;-MLCouplingProviderPhydll&lt;In,Out&gt;" style="stroke: #000000; stroke-width: 1.0;"/><polygon fill="none" points="466.41,372.03,487.45,369.55,472.54,384.61,466.41,372.03" style="stroke: #000000; stroke-width: 1.0;"/><!--MD5=[b419ec6e50e8b21fa3170c8b0acee3b6]
reverse link MLCouplingProvider<In,Out> to MLCouplingProviderAixelerate<In,Out>--><path d="M532.55,392.34 C497.28,438.93 451.76,499.07 421.65,538.84 " fill="none" id="MLCouplingProvider&lt;In,Out&gt;&lt;-MLCouplingProviderAixelerate&lt;In,Out&gt;" style="stroke: #000000; stroke-width: 1.0;"/><polygon fill="none" points="526.94,388.15,544.59,376.42,538.1,396.6,526.94,388.15" style="stroke: #000000; stroke-width: 1.0;"/><!--MD5=[0a60636bc2f5c6a9accdd88e8836e263]
reverse link MLCouplingProvider<In,Out> to MLCouplingProviderSmartsim<In,Out>--><path d="M607.89,395.44 C622.93,441.57 641.97,499.94 654.65,538.84 " fill="none" id="MLCouplingProvider&lt;In,Out&gt;&lt;-MLCouplingProviderSmartsim&lt;In,Out&gt;" style="stroke: #000000; stroke-width: 1.0;"/><polygon fill="none" points="601.31,397.84,601.77,376.66,614.62,393.5,601.31,397.84" style="stroke: #000000; stroke-width: 1.0;"/><!--MD5=[2cc0266b95673c8c908dc17791dc3e6a]
@startuml CPP_NEW_ML_Interface

top to bottom direction
skinparam classAttributeIconSize 0
skinparam backgroundColor #FFFFFF
skinparam class {
    BackgroundColor<<abstract>> LightYellow
    BorderColor Black
    ArrowColor Black
}


class "MLCoupling<In,Out>" <<abstract>> {
    - provider: std::unique_ptr<MLCouplingProvider<In,Out>>
    - application: std::unique_ptr<MLCouplingApplication<In,Out>>
    - behavior: std::unique_ptr<MLCouplingBehavior<In,Out>>
    + init(MLCouplingDataProcessor<In,Out>*, MLCouplingProvider<In,Out>*,
           MLCouplingApplication<In,Out>*, MLCouplingBehavior<In,Out>* = nullptr)
    + infer_ml_model()
    + finalize()
}

class "MLCouplingProvider<In,Out>" <<abstract>> {
    + ~MLCouplingProvider()
    + init()
    + inference()
    + finalize()
}

class "MLCouplingApplication<In,Out>" <<abstract>> {
    + MLCouplingApplication(std::unique_ptr<MLCouplingDataProcessor<In,Out>> data_processor)
    + ~MLCouplingApplication()
    - data_processor: std::unique_ptr<MLCouplingDataProcessor<In,Out>>
    + init()
    + finalize()
    + ml_step()
    # preprocess()
    # infer_ml_model()
    # postprocess()
    - normalize_input()
    - denormalize_output()
}

class "MLCouplingNormalization<In,Out>" <<abstract>> {
    + normalize_input(In*, int)
    + denormalize_output(Out*, int)
}

class "MLCouplingMinMaxNormalization<In,Out>" {
    - input_min: In
    - input_max: In
    - output_min: Out
    - output_max: Out
    + MLCouplingMinMaxNormalization(In, In, Out, Out)
    + normalize_input(In*, int)
    + denormalize_output(Out*, int)
}

class "MLCouplingApplicationTurbulenceClosure<In,Out>" {
    + preprocess()
    + postprocess()
    + infer_ml_model()
    - uniform_filtering()
    - downsampling()
    - compute_tau_ij()
}

class "MLCouplingDataProcessor<In,Out>" {
    + MLCouplingDataProcessor(std::vector<In*>, std::vector<std::vector<int>>,
                              std::vector<Out*>, std::vector<std::vector<int>>,
                              MLCouplingNormalization<In,Out>*)
    # input_data: std::vector<In*>
    # input_data_dimensions: std::vector<std::vector<int>>
    # output_data: std::vector<Out*>
    # output_data_dimensions: std::vector<std::vector<int>>
    # normalize_input(In&)
    # denormalize_output(Out&)
    - normalization: std::unique_ptr<MLCouplingNormalization<In,Out>>
}

class "MLCouplingBehavior" <<abstract>> {
    + should_perform_inference(): bool
    + time_step_delta(): int
    + should_send_data(): bool
}

class "MLCouplingBehaviorDefault" {
    + should_perform_inference(): bool
    + time_step_delta(): int
    + should_send_data(): bool
}

class "MLCouplingBehaviorPeriodic" {
    - step_count: long long
    - inference_interval: int
    - coupled_steps_before_inference: int
    - coupled_steps_stride: int
    - step_increment_after_inference: int
    + should_perform_inference(): bool
    + time_step_delta(): int
    + should_send_data(): bool
}

class "MLCouplingProviderPhydll<In,Out>" {
    + init()
    + inference()
    + finalize()
}

class "MLCouplingProviderAixelerate<In,Out>" {
    + init()
    + inference()
    + finalize()
}

class "MLCouplingProviderSmartsim<In,Out>" {
    + init()
    + inference()
    + finalize()
}

"MLCoupling<In,Out>" "1" ||- -|| "1" "MLCouplingProvider<In,Out>" : owns
"MLCoupling<In,Out>" "1" ||- -|| "1" "MLCouplingApplication<In,Out>" : owns
"MLCoupling<In,Out>" "1" ||- -o| "0..1" "MLCouplingBehavior" : owns
"MLCouplingApplication<In,Out>" "1" ||- -|| "1" "MLCouplingDataProcessor<In,Out>" : owns
"MLCouplingDataProcessor<In,Out>" "1" ||- -o| "0..1" "MLCouplingNormalization<In,Out>" : owns
"MLCouplingNormalization<In,Out>" <|- - "MLCouplingMinMaxNormalization<In,Out>"

"MLCouplingApplication<In,Out>" <|- - "MLCouplingApplicationTurbulenceClosure<In,Out>"
"MLCouplingBehavior" <|- - "MLCouplingBehaviorDefault"
"MLCouplingBehavior" <|- - "MLCouplingBehaviorPeriodic"

"MLCouplingProvider<In,Out>" <|- - "MLCouplingProviderPhydll<In,Out>"
"MLCouplingProvider<In,Out>" <|- - "MLCouplingProviderAixelerate<In,Out>"
"MLCouplingProvider<In,Out>" <|- - "MLCouplingProviderSmartsim<In,Out>"

@enduml

PlantUML version 1.2020.02(Sun Mar 01 11:22:07 CET 2020)
(GPL source distribution)
Java Runtime: OpenJDK Runtime Environment
JVM: OpenJDK 64-Bit Server VM
Java Version: 21.0.9+10-Ubuntu-124.04
Operating System: Linux
Default Encoding: UTF-8
Language: de
Country: DE
--></g></svg>