<?xml version="1.0" encoding="UTF-8" standalone="no"?><svg xmlns="http://www.w3.org/2000/svg" xmlns:xlink="http://www.w3.org/1999/xlink" contentScriptType="application/ecmascript" contentStyleType="text/css" height="947px" preserveAspectRatio="none" style="width:2465px;height:947px;" version="1.1" viewBox="0 0 2465 947" width="2465px" zoomAndPan="magnify"><defs><filter height="300%" id="f1rlnrrbeafpgy" width="300%" x="-1" y="-1"><feGaussianBlur result="blurOut" stdDeviation="2.0"/><feColorMatrix in="blurOut" result="blurOut2" type="matrix" values="0 0 0 0 0 0 0 0 0 0 0 0 0 0 0 0 0 0 .4 0"/><feOffset dx="4.0" dy="4.0" in="blurOut2" result="blurOut3"/><feBlend in="SourceGraphic" in2="blurOut3" mode="normal"/></filter></defs><g><!--MD5=[f500096b95d7d9013cb48b5434f24db3]
class MLCoupling<In,Out>--><rect fill="#FEFECE" filter="url(#f1rlnrrbeafpgy)" height="136.5425" id="MLCoupling&lt;In,Out&gt;" style="stroke: #000000; stroke-width: 1.5;" width="322" x="1251" y="7.8"/><ellipse cx="1351.25" cy="23.8" fill="#ADD1B2" rx="11" ry="11" style="stroke: #000000; stroke-width: 1.0;"/><path d="M1348.9063,23.6437 Q1348.9063,25.5187 1349.4844,26.5344 Q1350.0625,27.5344 1351.2188,27.5344 Q1352.5625,27.5344 1353.2188,25.5187 L1355.4844,25.9406 Q1354.375,29.4719 1351.2031,29.4719 Q1348.8594,29.4719 1347.6406,27.9875 Q1346.4219,26.5031 1346.4219,23.6437 Q1346.4219,17.925 1351.125,17.925 Q1352.6719,17.925 1353.7031,18.7375 Q1354.75,19.55 1355.25,21.1594 L1352.9844,21.7062 Q1352.75,20.8312 1352.2656,20.3469 Q1351.7813,19.8469 1351.1563,19.8469 Q1348.9063,19.8469 1348.9063,23.6437 Z "/><text fill="#000000" font-family="sans-serif" font-size="12" lengthAdjust="spacingAndGlyphs" textLength="113" x="1371.75" y="28.1564">MLCoupling&lt;In,Out&gt;</text><line style="stroke: #000000; stroke-width: 1.5;" x1="1252" x2="1572" y1="39.8" y2="39.8"/><text fill="#000000" font-family="sans-serif" font-size="11" lengthAdjust="spacingAndGlyphs" textLength="274" x="1257" y="54.1179">-provider: std::unique_ptr&lt;MLCouplingProvider&lt;In,Out&gt;&gt;</text><text fill="#000000" font-family="sans-serif" font-size="11" lengthAdjust="spacingAndGlyphs" textLength="296" x="1257" y="66.7668">-application: std::unique_ptr&lt;MLCouplingApplication&lt;In,Out&gt;&gt;</text><text fill="#000000" font-family="sans-serif" font-size="11" lengthAdjust="spacingAndGlyphs" textLength="236" x="1257" y="79.4157">-behavior: std::unique_ptr&lt;MLCouplingBehavior&gt;</text><line style="stroke: #000000; stroke-width: 1.5;" x1="1252" x2="1572" y1="85.7468" y2="85.7468"/><text fill="#000000" font-family="sans-serif" font-size="11" lengthAdjust="spacingAndGlyphs" textLength="214" x="1257" y="100.0646">+MLCoupling(MLCouplingProvider&lt;In,Out&gt;*,</text><text fill="#000000" font-family="sans-serif" font-size="11" lengthAdjust="spacingAndGlyphs" textLength="310" x="1257" y="112.7136">MLCouplingApplication&lt;In,Out&gt;*, MLCouplingBehavior* = nullptr)</text><text fill="#000000" font-family="sans-serif" font-size="11" lengthAdjust="spacingAndGlyphs" textLength="77" x="1257" y="125.3625">+~MLCoupling()</text><text fill="#000000" font-family="sans-serif" font-size="11" lengthAdjust="spacingAndGlyphs" textLength="52" x="1257" y="138.0114">+ml_step()</text><!--MD5=[0624b538302a5a462d2624a255cce169]
class MLCouplingProvider<In,Out>--><rect fill="#FFFFE0" filter="url(#f1rlnrrbeafpgy)" height="91.5444" id="MLCouplingProvider&lt;In,Out&gt;" style="stroke: #000000; stroke-width: 1.5;" width="288" x="494" y="296.23"/><ellipse cx="554.25" cy="315.0288" fill="#ADD1B2" rx="11" ry="11" style="stroke: #000000; stroke-width: 1.0;"/><path d="M551.9063,314.8726 Q551.9063,316.7476 552.4844,317.7632 Q553.0625,318.7632 554.2188,318.7632 Q555.5625,318.7632 556.2188,316.7476 L558.4844,317.1695 Q557.375,320.7007 554.2031,320.7007 Q551.8594,320.7007 550.6406,319.2163 Q549.4219,317.732 549.4219,314.8726 Q549.4219,309.1538 554.125,309.1538 Q555.6719,309.1538 556.7031,309.9663 Q557.75,310.7788 558.25,312.3882 L555.9844,312.9351 Q555.75,312.0601 555.2656,311.5757 Q554.7813,311.0757 554.1563,311.0757 Q551.9063,311.0757 551.9063,314.8726 Z "/><text fill="#000000" font-family="sans-serif" font-size="12" font-style="italic" lengthAdjust="spacingAndGlyphs" textLength="57" x="625.75" y="312.4859">«abstract»</text><text fill="#000000" font-family="sans-serif" font-size="12" lengthAdjust="spacingAndGlyphs" textLength="159" x="574.75" y="326.2847">MLCouplingProvider&lt;In,Out&gt;</text><line style="stroke: #000000; stroke-width: 1.5;" x1="495" x2="781" y1="333.8277" y2="333.8277"/><line style="stroke: #000000; stroke-width: 1.5;" x1="495" x2="781" y1="341.8277" y2="341.8277"/><text fill="#000000" font-family="sans-serif" font-size="11" lengthAdjust="spacingAndGlyphs" textLength="112" x="500" y="356.1455">+MLCouplingProvider()</text><text fill="#000000" font-family="sans-serif" font-size="11" lengthAdjust="spacingAndGlyphs" textLength="166" x="500" y="368.7945">+send_data(MLCouplingData&lt;In&gt;)</text><text fill="#000000" font-family="sans-serif" font-size="11" lengthAdjust="spacingAndGlyphs" textLength="276" x="500" y="381.4434">+inference(MLCouplingData&lt;In&gt;): MLCouplingData&lt;Out&gt;</text><!--MD5=[9734458d82faec336be428a63de85fff]
class MLCouplingApplication<In,Out>--><rect fill="#FFFFE0" filter="url(#f1rlnrrbeafpgy)" height="243.3315" id="MLCouplingApplication&lt;In,Out&gt;" style="stroke: #000000; stroke-width: 1.5;" width="356" x="1234" y="220.34"/><ellipse cx="1320.75" cy="239.1388" fill="#ADD1B2" rx="11" ry="11" style="stroke: #000000; stroke-width: 1.0;"/><path d="M1318.4063,238.9826 Q1318.4063,240.8576 1318.9844,241.8732 Q1319.5625,242.8732 1320.7188,242.8732 Q1322.0625,242.8732 1322.7188,240.8576 L1324.9844,241.2795 Q1323.875,244.8107 1320.7031,244.8107 Q1318.3594,244.8107 1317.1406,243.3263 Q1315.9219,241.842 1315.9219,238.9826 Q1315.9219,233.2638 1320.625,233.2638 Q1322.1719,233.2638 1323.2031,234.0763 Q1324.25,234.8888 1324.75,236.4982 L1322.4844,237.0451 Q1322.25,236.1701 1321.7656,235.6857 Q1321.2813,235.1857 1320.6563,235.1857 Q1318.4063,235.1857 1318.4063,238.9826 Z "/><text fill="#000000" font-family="sans-serif" font-size="12" font-style="italic" lengthAdjust="spacingAndGlyphs" textLength="57" x="1399.75" y="236.5959">«abstract»</text><text fill="#000000" font-family="sans-serif" font-size="12" lengthAdjust="spacingAndGlyphs" textLength="174" x="1341.25" y="250.3947">MLCouplingApplication&lt;In,Out&gt;</text><line style="stroke: #000000; stroke-width: 1.5;" x1="1235" x2="1589" y1="257.9377" y2="257.9377"/><text fill="#000000" font-family="sans-serif" font-size="11" lengthAdjust="spacingAndGlyphs" textLength="163" x="1240" y="272.2555">+input_data: MLCouplingData&lt;In&gt;</text><text fill="#000000" font-family="sans-serif" font-size="11" lengthAdjust="spacingAndGlyphs" textLength="267" x="1240" y="284.9045">+input_data_after_preprocessing: MLCouplingData&lt;In&gt;</text><text fill="#000000" font-family="sans-serif" font-size="11" lengthAdjust="spacingAndGlyphs" textLength="297" x="1240" y="297.5534">+output_data_before_postprocessing: MLCouplingData&lt;Out&gt;</text><text fill="#000000" font-family="sans-serif" font-size="11" lengthAdjust="spacingAndGlyphs" textLength="179" x="1240" y="310.2023">+output_data: MLCouplingData&lt;Out&gt;</text><text fill="#000000" font-family="sans-serif" font-size="11" lengthAdjust="spacingAndGlyphs" textLength="325" x="1240" y="322.8512">#normalization: std::unique_ptr&lt;MLCouplingNormalization&lt;In,Out&gt;&gt;</text><text fill="#000000" font-family="sans-serif" font-size="11" lengthAdjust="spacingAndGlyphs" textLength="234" x="1240" y="335.5002">std::vector&lt;Out*&gt;, std::vector&lt;std::vector&lt;int&gt;&gt;,</text><line style="stroke: #000000; stroke-width: 1.5;" x1="1235" x2="1589" y1="341.8312" y2="341.8312"/><text fill="#000000" font-family="sans-serif" font-size="11" lengthAdjust="spacingAndGlyphs" textLength="344" x="1240" y="356.1491">+MLCouplingApplication(std::vector&lt;In*&gt;, std::vector&lt;std::vector&lt;int&gt;&gt;,</text><text fill="#000000" font-family="sans-serif" font-size="11" lengthAdjust="spacingAndGlyphs" textLength="173" x="1240" y="368.798">MLCouplingNormalization&lt;In,Out&gt;*)</text><text fill="#000000" font-family="sans-serif" font-size="11" lengthAdjust="spacingAndGlyphs" textLength="339" x="1240" y="381.4469">+MLCouplingApplication(MLCouplingData&lt;In&gt;, MLCouplingData&lt;Out&gt;,</text><text fill="#000000" font-family="sans-serif" font-size="11" lengthAdjust="spacingAndGlyphs" textLength="173" x="1240" y="394.0959">MLCouplingNormalization&lt;In,Out&gt;*)</text><text fill="#000000" font-family="sans-serif" font-size="11" lengthAdjust="spacingAndGlyphs" textLength="81" x="1240" y="406.7448">+step(bool, bool)</text><text fill="#000000" font-family="sans-serif" font-size="11" lengthAdjust="spacingAndGlyphs" textLength="278" x="1240" y="419.3937">#preprocess(MLCouplingData&lt;In&gt;): MLCouplingData&lt;In&gt;</text><text fill="#000000" font-family="sans-serif" font-size="11" lengthAdjust="spacingAndGlyphs" textLength="182" x="1240" y="432.0426">#coupling_step(MLCouplingData&lt;In&gt;)</text><text fill="#000000" font-family="sans-serif" font-size="11" lengthAdjust="spacingAndGlyphs" textLength="269" x="1240" y="444.6916">#ml_step(MLCouplingData&lt;In&gt;): MLCouplingData&lt;Out&gt;</text><text fill="#000000" font-family="sans-serif" font-size="11" lengthAdjust="spacingAndGlyphs" textLength="301" x="1240" y="457.3405">#postprocess(MLCouplingData&lt;Out&gt;): MLCouplingData&lt;Out&gt;</text><!--MD5=[6c19f86b9d5afcf28bd36d0fe178c1fc]
class MLCouplingNormalization<In,Out>--><rect fill="#FFFFE0" filter="url(#f1rlnrrbeafpgy)" height="78.8955" id="MLCouplingNormalization&lt;In,Out&gt;" style="stroke: #000000; stroke-width: 1.5;" width="231" x="989.5" y="574.82"/><ellipse cx="1009" cy="593.6188" fill="#ADD1B2" rx="11" ry="11" style="stroke: #000000; stroke-width: 1.0;"/><path d="M1006.6563,593.4626 Q1006.6563,595.3376 1007.2344,596.3532 Q1007.8125,597.3532 1008.9688,597.3532 Q1010.3125,597.3532 1010.9688,595.3376 L1013.2344,595.7595 Q1012.125,599.2907 1008.9531,599.2907 Q1006.6094,599.2907 1005.3906,597.8063 Q1004.1719,596.322 1004.1719,593.4626 Q1004.1719,587.7438 1008.875,587.7438 Q1010.4219,587.7438 1011.4531,588.5563 Q1012.5,589.3688 1013,590.9782 L1010.7344,591.5251 Q1010.5,590.6501 1010.0156,590.1657 Q1009.5313,589.6657 1008.9063,589.6657 Q1006.6563,589.6657 1006.6563,593.4626 Z "/><text fill="#000000" font-family="sans-serif" font-size="12" font-style="italic" lengthAdjust="spacingAndGlyphs" textLength="57" x="1090" y="591.0759">«abstract»</text><text fill="#000000" font-family="sans-serif" font-size="12" lengthAdjust="spacingAndGlyphs" textLength="189" x="1024" y="604.8747">MLCouplingNormalization&lt;In,Out&gt;</text><line style="stroke: #000000; stroke-width: 1.5;" x1="990.5" x2="1219.5" y1="612.4177" y2="612.4177"/><line style="stroke: #000000; stroke-width: 1.5;" x1="990.5" x2="1219.5" y1="620.4177" y2="620.4177"/><text fill="#000000" font-family="sans-serif" font-size="11" lengthAdjust="spacingAndGlyphs" textLength="191" x="995.5" y="634.7355">+normalize_input(MLCouplingData&lt;In&gt;)</text><text fill="#000000" font-family="sans-serif" font-size="11" lengthAdjust="spacingAndGlyphs" textLength="219" x="995.5" y="647.3845">+denormalize_output(MLCouplingData&lt;Out&gt;)</text><!--MD5=[97416592fb3e02693e6c76276d79ae5f]
class MLCouplingMinMaxNormalization<In,Out>--><rect fill="#FEFECE" filter="url(#f1rlnrrbeafpgy)" height="187.1382" id="MLCouplingMinMaxNormalization&lt;In,Out&gt;" style="stroke: #000000; stroke-width: 1.5;" width="404" x="903" y="749.86"/><ellipse cx="984.75" cy="765.86" fill="#ADD1B2" rx="11" ry="11" style="stroke: #000000; stroke-width: 1.0;"/><path d="M982.4063,765.7038 Q982.4063,767.5788 982.9844,768.5944 Q983.5625,769.5944 984.7188,769.5944 Q986.0625,769.5944 986.7188,767.5788 L988.9844,768.0006 Q987.875,771.5319 984.7031,771.5319 Q982.3594,771.5319 981.1406,770.0475 Q979.9219,768.5631 979.9219,765.7038 Q979.9219,759.985 984.625,759.985 Q986.1719,759.985 987.2031,760.7975 Q988.25,761.61 988.75,763.2194 L986.4844,763.7663 Q986.25,762.8913 985.7656,762.4069 Q985.2813,761.9069 984.6563,761.9069 Q982.4063,761.9069 982.4063,765.7038 Z "/><text fill="#000000" font-family="sans-serif" font-size="12" lengthAdjust="spacingAndGlyphs" textLength="232" x="1005.25" y="770.2164">MLCouplingMinMaxNormalization&lt;In,Out&gt;</text><line style="stroke: #000000; stroke-width: 1.5;" x1="904" x2="1306" y1="781.86" y2="781.86"/><text fill="#000000" font-family="sans-serif" font-size="11" lengthAdjust="spacingAndGlyphs" textLength="65" x="909" y="796.1779">-input_min: In</text><text fill="#000000" font-family="sans-serif" font-size="11" lengthAdjust="spacingAndGlyphs" textLength="69" x="909" y="808.8268">-input_max: In</text><text fill="#000000" font-family="sans-serif" font-size="11" lengthAdjust="spacingAndGlyphs" textLength="81" x="909" y="821.4757">-output_min: Out</text><text fill="#000000" font-family="sans-serif" font-size="11" lengthAdjust="spacingAndGlyphs" textLength="85" x="909" y="834.1246">-output_max: Out</text><line style="stroke: #000000; stroke-width: 1.5;" x1="904" x2="1306" y1="840.4557" y2="840.4557"/><text fill="#000000" font-family="sans-serif" font-size="11" lengthAdjust="spacingAndGlyphs" textLength="247" x="909" y="854.7736">+MLCouplingMinMaxNormalization(In, In, Out, Out)</text><text fill="#000000" font-family="sans-serif" font-size="11" lengthAdjust="spacingAndGlyphs" textLength="250" x="909" y="867.4225">+MLCouplingMinMaxNormalization(In*, int, Out*, int)</text><text fill="#000000" font-family="sans-serif" font-size="11" lengthAdjust="spacingAndGlyphs" textLength="392" x="909" y="880.0714">+MLCouplingMinMaxNormalization(MLCouplingData&lt;In&gt;, MLCouplingData&lt;Out&gt;)</text><text fill="#000000" font-family="sans-serif" font-size="11" lengthAdjust="spacingAndGlyphs" textLength="120" x="909" y="892.7204">+normalize_input(In*, int)</text><text fill="#000000" font-family="sans-serif" font-size="11" lengthAdjust="spacingAndGlyphs" textLength="191" x="909" y="905.3693">+normalize_input(MLCouplingData&lt;In&gt;)</text><text fill="#000000" font-family="sans-serif" font-size="11" lengthAdjust="spacingAndGlyphs" textLength="148" x="909" y="918.0182">+denormalize_output(Out*, int)</text><text fill="#000000" font-family="sans-serif" font-size="11" lengthAdjust="spacingAndGlyphs" textLength="219" x="909" y="930.6671">+denormalize_output(MLCouplingData&lt;Out&gt;)</text><!--MD5=[b8fbc68d072974482eee1b95ce0fc17b]
class MLCouplingApplicationTurbulenceClosure<In,Out>--><rect fill="#FEFECE" filter="url(#f1rlnrrbeafpgy)" height="136.5425" id="MLCouplingApplicationTurbulenceClosure&lt;In,Out&gt;" style="stroke: #000000; stroke-width: 1.5;" width="313" x="1255.5" y="545.99"/><ellipse cx="1271.4" cy="561.99" fill="#ADD1B2" rx="11" ry="11" style="stroke: #000000; stroke-width: 1.0;"/><path d="M1269.0563,561.8338 Q1269.0563,563.7088 1269.6344,564.7244 Q1270.2125,565.7244 1271.3688,565.7244 Q1272.7125,565.7244 1273.3688,563.7088 L1275.6344,564.1306 Q1274.525,567.6619 1271.3531,567.6619 Q1269.0094,567.6619 1267.7906,566.1775 Q1266.5719,564.6931 1266.5719,561.8338 Q1266.5719,556.115 1271.275,556.115 Q1272.8219,556.115 1273.8531,556.9275 Q1274.9,557.74 1275.4,559.3494 L1273.1344,559.8963 Q1272.9,559.0213 1272.4156,558.5369 Q1271.9313,558.0369 1271.3063,558.0369 Q1269.0563,558.0369 1269.0563,561.8338 Z "/><text fill="#000000" font-family="sans-serif" font-size="12" lengthAdjust="spacingAndGlyphs" textLength="279" x="1285.6" y="566.3464">MLCouplingApplicationTurbulenceClosure&lt;In,Out&gt;</text><line style="stroke: #000000; stroke-width: 1.5;" x1="1256.5" x2="1567.5" y1="577.99" y2="577.99"/><line style="stroke: #000000; stroke-width: 1.5;" x1="1256.5" x2="1567.5" y1="585.99" y2="585.99"/><text fill="#000000" font-family="sans-serif" font-size="11" lengthAdjust="spacingAndGlyphs" textLength="278" x="1261.5" y="600.3079">#preprocess(MLCouplingData&lt;In&gt;): MLCouplingData&lt;In&gt;</text><text fill="#000000" font-family="sans-serif" font-size="11" lengthAdjust="spacingAndGlyphs" textLength="182" x="1261.5" y="612.9568">#coupling_step(MLCouplingData&lt;In&gt;)</text><text fill="#000000" font-family="sans-serif" font-size="11" lengthAdjust="spacingAndGlyphs" textLength="269" x="1261.5" y="625.6057">#ml_step(MLCouplingData&lt;In&gt;): MLCouplingData&lt;Out&gt;</text><text fill="#000000" font-family="sans-serif" font-size="11" lengthAdjust="spacingAndGlyphs" textLength="301" x="1261.5" y="638.2546">#postprocess(MLCouplingData&lt;Out&gt;): MLCouplingData&lt;Out&gt;</text><text fill="#000000" font-family="sans-serif" font-size="11" lengthAdjust="spacingAndGlyphs" textLength="88" x="1261.5" y="650.9036">-uniform_filtering()</text><text fill="#000000" font-family="sans-serif" font-size="11" lengthAdjust="spacingAndGlyphs" textLength="81" x="1261.5" y="663.5525">-downsampling()</text><text fill="#000000" font-family="sans-serif" font-size="11" lengthAdjust="spacingAndGlyphs" textLength="85" x="1261.5" y="676.2014">-compute_tau_ij()</text><!--MD5=[6b8a1d6566fc54ac3a67302d6d4280a4]
class MLCouplingData<T>--><rect fill="#FEFECE" filter="url(#f1rlnrrbeafpgy)" height="98.5957" id="MLCouplingData&lt;T&gt;" style="stroke: #000000; stroke-width: 1.5;" width="400" x="1604" y="564.97"/><ellipse cx="1742.75" cy="580.97" fill="#ADD1B2" rx="11" ry="11" style="stroke: #000000; stroke-width: 1.0;"/><path d="M1740.4063,580.8138 Q1740.4063,582.6888 1740.9844,583.7044 Q1741.5625,584.7044 1742.7188,584.7044 Q1744.0625,584.7044 1744.7188,582.6888 L1746.9844,583.1106 Q1745.875,586.6419 1742.7031,586.6419 Q1740.3594,586.6419 1739.1406,585.1575 Q1737.9219,583.6731 1737.9219,580.8138 Q1737.9219,575.095 1742.625,575.095 Q1744.1719,575.095 1745.2031,575.9075 Q1746.25,576.72 1746.75,578.3294 L1744.4844,578.8763 Q1744.25,578.0013 1743.7656,577.5169 Q1743.2813,577.0169 1742.6563,577.0169 Q1740.4063,577.0169 1740.4063,580.8138 Z "/><text fill="#000000" font-family="sans-serif" font-size="12" lengthAdjust="spacingAndGlyphs" textLength="114" x="1763.25" y="585.3264">MLCouplingData&lt;T&gt;</text><line style="stroke: #000000; stroke-width: 1.5;" x1="1605" x2="2003" y1="596.97" y2="596.97"/><text fill="#000000" font-family="sans-serif" font-size="11" lengthAdjust="spacingAndGlyphs" textLength="108" x="1610" y="611.2879">+data: std::vector&lt;T*&gt;</text><text fill="#000000" font-family="sans-serif" font-size="11" lengthAdjust="spacingAndGlyphs" textLength="233" x="1610" y="623.9368">+data_dimensions: std::vector&lt;std::vector&lt;int&gt;&gt;</text><line style="stroke: #000000; stroke-width: 1.5;" x1="1605" x2="2003" y1="630.2679" y2="630.2679"/><text fill="#000000" font-family="sans-serif" font-size="11" lengthAdjust="spacingAndGlyphs" textLength="388" x="1610" y="644.5857">+MLCouplingData(const std::vector&lt;T*&gt;&amp;, const std::vector&lt;std::vector&lt;int&gt;&gt;&amp;)</text><text fill="#000000" font-family="sans-serif" font-size="11" lengthAdjust="spacingAndGlyphs" textLength="94" x="1610" y="657.2346">+MLCouplingData()</text><!--MD5=[be39cfb2cfae71551c2ac1a911145cde]
class MLCouplingBehavior--><rect fill="#FFFFE0" filter="url(#f1rlnrrbeafpgy)" height="91.5444" id="MLCouplingBehavior" style="stroke: #000000; stroke-width: 1.5;" width="179" x="2043.5" y="296.23"/><ellipse cx="2072.45" cy="315.0288" fill="#ADD1B2" rx="11" ry="11" style="stroke: #000000; stroke-width: 1.0;"/><path d="M2070.1063,314.8726 Q2070.1063,316.7476 2070.6844,317.7632 Q2071.2625,318.7632 2072.4188,318.7632 Q2073.7625,318.7632 2074.4188,316.7476 L2076.6844,317.1695 Q2075.575,320.7007 2072.4031,320.7007 Q2070.0594,320.7007 2068.8406,319.2163 Q2067.6219,317.732 2067.6219,314.8726 Q2067.6219,309.1538 2072.325,309.1538 Q2073.8719,309.1538 2074.9031,309.9663 Q2075.95,310.7788 2076.45,312.3882 L2074.1844,312.9351 Q2073.95,312.0601 2073.4656,311.5757 Q2072.9813,311.0757 2072.3563,311.0757 Q2070.1063,311.0757 2070.1063,314.8726 Z "/><text fill="#000000" font-family="sans-serif" font-size="12" font-style="italic" lengthAdjust="spacingAndGlyphs" textLength="57" x="2119.05" y="312.4859">«abstract»</text><text fill="#000000" font-family="sans-serif" font-size="12" lengthAdjust="spacingAndGlyphs" textLength="116" x="2089.55" y="326.2847">MLCouplingBehavior</text><line style="stroke: #000000; stroke-width: 1.5;" x1="2044.5" x2="2221.5" y1="333.8277" y2="333.8277"/><line style="stroke: #000000; stroke-width: 1.5;" x1="2044.5" x2="2221.5" y1="341.8277" y2="341.8277"/><text fill="#000000" font-family="sans-serif" font-size="11" lengthAdjust="spacingAndGlyphs" textLength="167" x="2049.5" y="356.1455">+should_perform_inference(): bool</text><text fill="#000000" font-family="sans-serif" font-size="11" lengthAdjust="spacingAndGlyphs" textLength="107" x="2049.5" y="368.7945">+time_step_delta(): int</text><text fill="#000000" font-family="sans-serif" font-size="11" lengthAdjust="spacingAndGlyphs" textLength="129" x="2049.5" y="381.4434">+should_send_data(): bool</text><!--MD5=[3f906eb8a64c5fa7c99969f7f216ea4d]
class MLCouplingBehaviorDefault--><rect fill="#FEFECE" filter="url(#f1rlnrrbeafpgy)" height="85.9468" id="MLCouplingBehaviorDefault" style="stroke: #000000; stroke-width: 1.5;" width="187" x="2039.5" y="571.29"/><ellipse cx="2054.5" cy="587.29" fill="#ADD1B2" rx="11" ry="11" style="stroke: #000000; stroke-width: 1.0;"/><path d="M2052.1563,587.1338 Q2052.1563,589.0088 2052.7344,590.0244 Q2053.3125,591.0244 2054.4688,591.0244 Q2055.8125,591.0244 2056.4688,589.0088 L2058.7344,589.4306 Q2057.625,592.9619 2054.4531,592.9619 Q2052.1094,592.9619 2050.8906,591.4775 Q2049.6719,589.9931 2049.6719,587.1338 Q2049.6719,581.415 2054.375,581.415 Q2055.9219,581.415 2056.9531,582.2275 Q2058,583.04 2058.5,584.6494 L2056.2344,585.1963 Q2056,584.3213 2055.5156,583.8369 Q2055.0313,583.3369 2054.4063,583.3369 Q2052.1563,583.3369 2052.1563,587.1338 Z "/><text fill="#000000" font-family="sans-serif" font-size="12" lengthAdjust="spacingAndGlyphs" textLength="155" x="2068.5" y="591.6464">MLCouplingBehaviorDefault</text><line style="stroke: #000000; stroke-width: 1.5;" x1="2040.5" x2="2225.5" y1="603.29" y2="603.29"/><line style="stroke: #000000; stroke-width: 1.5;" x1="2040.5" x2="2225.5" y1="611.29" y2="611.29"/><text fill="#000000" font-family="sans-serif" font-size="11" lengthAdjust="spacingAndGlyphs" textLength="167" x="2045.5" y="625.6079">+should_perform_inference(): bool</text><text fill="#000000" font-family="sans-serif" font-size="11" lengthAdjust="spacingAndGlyphs" textLength="107" x="2045.5" y="638.2568">+time_step_delta(): int</text><text fill="#000000" font-family="sans-serif" font-size="11" lengthAdjust="spacingAndGlyphs" textLength="129" x="2045.5" y="650.9057">+should_send_data(): bool</text><!--MD5=[1ad52a24b6e8672bdb7d3010e92aa71a]
class MLCouplingBehaviorPeriodic--><rect fill="#FEFECE" filter="url(#f1rlnrrbeafpgy)" height="149.1914" id="MLCouplingBehaviorPeriodic" style="stroke: #000000; stroke-width: 1.5;" width="193" x="2261.5" y="539.67"/><ellipse cx="2276.5" cy="555.67" fill="#ADD1B2" rx="11" ry="11" style="stroke: #000000; stroke-width: 1.0;"/><path d="M2274.1563,555.5138 Q2274.1563,557.3888 2274.7344,558.4044 Q2275.3125,559.4044 2276.4688,559.4044 Q2277.8125,559.4044 2278.4688,557.3888 L2280.7344,557.8106 Q2279.625,561.3419 2276.4531,561.3419 Q2274.1094,561.3419 2272.8906,559.8575 Q2271.6719,558.3731 2271.6719,555.5138 Q2271.6719,549.795 2276.375,549.795 Q2277.9219,549.795 2278.9531,550.6075 Q2280,551.42 2280.5,553.0294 L2278.2344,553.5763 Q2278,552.7013 2277.5156,552.2169 Q2277.0313,551.7169 2276.4063,551.7169 Q2274.1563,551.7169 2274.1563,555.5138 Z "/><text fill="#000000" font-family="sans-serif" font-size="12" lengthAdjust="spacingAndGlyphs" textLength="161" x="2290.5" y="560.0264">MLCouplingBehaviorPeriodic</text><line style="stroke: #000000; stroke-width: 1.5;" x1="2262.5" x2="2453.5" y1="571.67" y2="571.67"/><text fill="#000000" font-family="sans-serif" font-size="11" lengthAdjust="spacingAndGlyphs" textLength="107" x="2267.5" y="585.9879">-step_count: long long</text><text fill="#000000" font-family="sans-serif" font-size="11" lengthAdjust="spacingAndGlyphs" textLength="107" x="2267.5" y="598.6368">-inference_interval: int</text><text fill="#000000" font-family="sans-serif" font-size="11" lengthAdjust="spacingAndGlyphs" textLength="180" x="2267.5" y="611.2857">-coupled_steps_before_inference: int</text><text fill="#000000" font-family="sans-serif" font-size="11" lengthAdjust="spacingAndGlyphs" textLength="125" x="2267.5" y="623.9346">-coupled_steps_stride: int</text><text fill="#000000" font-family="sans-serif" font-size="11" lengthAdjust="spacingAndGlyphs" textLength="175" x="2267.5" y="636.5836">-step_increment_after_inference: int</text><line style="stroke: #000000; stroke-width: 1.5;" x1="2262.5" x2="2453.5" y1="642.9146" y2="642.9146"/><text fill="#000000" font-family="sans-serif" font-size="11" lengthAdjust="spacingAndGlyphs" textLength="167" x="2267.5" y="657.2325">+should_perform_inference(): bool</text><text fill="#000000" font-family="sans-serif" font-size="11" lengthAdjust="spacingAndGlyphs" textLength="107" x="2267.5" y="669.8814">+time_step_delta(): int</text><text fill="#000000" font-family="sans-serif" font-size="11" lengthAdjust="spacingAndGlyphs" textLength="129" x="2267.5" y="682.5304">+should_send_data(): bool</text><!--MD5=[7074944c2ab3aac83cd978942c4df225]
class MLCouplingProviderPhydll<In,Out>--><rect fill="#FEFECE" filter="url(#f1rlnrrbeafpgy)" height="73.2979" id="MLCouplingProviderPhydll&lt;In,Out&gt;" style="stroke: #000000; stroke-width: 1.5;" width="288" x="6" y="577.62"/><ellipse cx="49.35" cy="593.62" fill="#ADD1B2" rx="11" ry="11" style="stroke: #000000; stroke-width: 1.0;"/><path d="M47.0063,593.4638 Q47.0063,595.3388 47.5844,596.3544 Q48.1625,597.3544 49.3188,597.3544 Q50.6625,597.3544 51.3188,595.3388 L53.5844,595.7606 Q52.475,599.2919 49.3031,599.2919 Q46.9594,599.2919 45.7406,597.8075 Q44.5219,596.3231 44.5219,593.4638 Q44.5219,587.745 49.225,587.745 Q50.7719,587.745 51.8031,588.5575 Q52.85,589.37 53.35,590.9794 L51.0844,591.5263 Q50.85,590.6513 50.3656,590.1669 Q49.8813,589.6669 49.2563,589.6669 Q47.0063,589.6669 47.0063,593.4638 Z "/><text fill="#000000" font-family="sans-serif" font-size="12" lengthAdjust="spacingAndGlyphs" textLength="193" x="69.65" y="597.9764">MLCouplingProviderPhydll&lt;In,Out&gt;</text><line style="stroke: #000000; stroke-width: 1.5;" x1="7" x2="293" y1="609.62" y2="609.62"/><line style="stroke: #000000; stroke-width: 1.5;" x1="7" x2="293" y1="617.62" y2="617.62"/><text fill="#000000" font-family="sans-serif" font-size="11" lengthAdjust="spacingAndGlyphs" textLength="166" x="12" y="631.9379">+send_data(MLCouplingData&lt;In&gt;)</text><text fill="#000000" font-family="sans-serif" font-size="11" lengthAdjust="spacingAndGlyphs" textLength="276" x="12" y="644.5868">+inference(MLCouplingData&lt;In&gt;): MLCouplingData&lt;Out&gt;</text><!--MD5=[8607bbea39033dadd3415aaeaff18542]
class MLCouplingProviderAixelerate<In,Out>--><rect fill="#FEFECE" filter="url(#f1rlnrrbeafpgy)" height="73.2979" id="MLCouplingProviderAixelerate&lt;In,Out&gt;" style="stroke: #000000; stroke-width: 1.5;" width="288" x="329" y="577.62"/><ellipse cx="362.9" cy="593.62" fill="#ADD1B2" rx="11" ry="11" style="stroke: #000000; stroke-width: 1.0;"/><path d="M360.5563,593.4638 Q360.5563,595.3388 361.1344,596.3544 Q361.7125,597.3544 362.8688,597.3544 Q364.2125,597.3544 364.8688,595.3388 L367.1344,595.7606 Q366.025,599.2919 362.8531,599.2919 Q360.5094,599.2919 359.2906,597.8075 Q358.0719,596.3231 358.0719,593.4638 Q358.0719,587.745 362.775,587.745 Q364.3219,587.745 365.3531,588.5575 Q366.4,589.37 366.9,590.9794 L364.6344,591.5263 Q364.4,590.6513 363.9156,590.1669 Q363.4313,589.6669 362.8063,589.6669 Q360.5563,589.6669 360.5563,593.4638 Z "/><text fill="#000000" font-family="sans-serif" font-size="12" lengthAdjust="spacingAndGlyphs" textLength="214" x="381.1" y="597.9764">MLCouplingProviderAixelerate&lt;In,Out&gt;</text><line style="stroke: #000000; stroke-width: 1.5;" x1="330" x2="616" y1="609.62" y2="609.62"/><line style="stroke: #000000; stroke-width: 1.5;" x1="330" x2="616" y1="617.62" y2="617.62"/><text fill="#000000" font-family="sans-serif" font-size="11" lengthAdjust="spacingAndGlyphs" textLength="166" x="335" y="631.9379">+send_data(MLCouplingData&lt;In&gt;)</text><text fill="#000000" font-family="sans-serif" font-size="11" lengthAdjust="spacingAndGlyphs" textLength="276" x="335" y="644.5868">+inference(MLCouplingData&lt;In&gt;): MLCouplingData&lt;Out&gt;</text><!--MD5=[c3379b928cd3c8484581ec34c761cdd7]
class MLCouplingProviderSmartsim<In,Out>--><rect fill="#FEFECE" filter="url(#f1rlnrrbeafpgy)" height="85.9468" id="MLCouplingProviderSmartsim&lt;In,Out&gt;" style="stroke: #000000; stroke-width: 1.5;" width="303" x="651.5" y="571.29"/><ellipse cx="693.95" cy="587.29" fill="#ADD1B2" rx="11" ry="11" style="stroke: #000000; stroke-width: 1.0;"/><path d="M691.6063,587.1338 Q691.6063,589.0088 692.1844,590.0244 Q692.7625,591.0244 693.9188,591.0244 Q695.2625,591.0244 695.9188,589.0088 L698.1844,589.4306 Q697.075,592.9619 693.9031,592.9619 Q691.5594,592.9619 690.3406,591.4775 Q689.1219,589.9931 689.1219,587.1338 Q689.1219,581.415 693.825,581.415 Q695.3719,581.415 696.4031,582.2275 Q697.45,583.04 697.95,584.6494 L695.6844,585.1963 Q695.45,584.3213 694.9656,583.8369 Q694.4813,583.3369 693.8563,583.3369 Q691.6063,583.3369 691.6063,587.1338 Z "/><text fill="#000000" font-family="sans-serif" font-size="12" lengthAdjust="spacingAndGlyphs" textLength="210" x="714.05" y="591.6464">MLCouplingProviderSmartsim&lt;In,Out&gt;</text><line style="stroke: #000000; stroke-width: 1.5;" x1="652.5" x2="953.5" y1="603.29" y2="603.29"/><line style="stroke: #000000; stroke-width: 1.5;" x1="652.5" x2="953.5" y1="611.29" y2="611.29"/><text fill="#000000" font-family="sans-serif" font-size="11" lengthAdjust="spacingAndGlyphs" textLength="291" x="657.5" y="625.6079">+MLCouplingProviderSmartsim(std::string, int, int, int, int, int)</text><text fill="#000000" font-family="sans-serif" font-size="11" lengthAdjust="spacingAndGlyphs" textLength="166" x="657.5" y="638.2568">+send_data(MLCouplingData&lt;In&gt;)</text><text fill="#000000" font-family="sans-serif" font-size="11" lengthAdjust="spacingAndGlyphs" textLength="276" x="657.5" y="650.9057">+inference(MLCouplingData&lt;In&gt;): MLCouplingData&lt;Out&gt;</text><!--MD5=[1fd91dcbf383aedd2f1e4b0e3de37ea0]
link MLCoupling<In,Out> to MLCouplingProvider<In,Out>--><path d="M1242.7,134.8 C1103.55,182.25 908.75,248.68 778.22,293.19 " fill="none" id="MLCoupling&lt;In,Out&gt;-MLCouplingProvider&lt;In,Out&gt;" style="stroke: #000000; stroke-width: 1.0;"/><line style="stroke: #000000; stroke-width: 1.0;" x1="776.9959" x2="774.4171" y1="297.8371" y2="290.2641"/><line style="stroke: #000000; stroke-width: 1.0;" x1="779.8357" x2="777.257" y1="296.8701" y2="289.2971"/><line style="stroke: #000000; stroke-width: 1.0;" x1="779.493" x2="771.92" y1="292.7613" y2="295.34"/><line style="stroke: #000000; stroke-width: 1.0;" x1="1244.1725" x2="1246.7562" y1="130.0662" y2="137.6375"/><line style="stroke: #000000; stroke-width: 1.0;" x1="1241.3333" x2="1243.917" y1="131.0351" y2="138.6064"/><line style="stroke: #000000; stroke-width: 1.0;" x1="1241.6787" x2="1249.25" y1="135.1437" y2="132.56"/><text fill="#000000" font-family="sans-serif" font-size="13" lengthAdjust="spacingAndGlyphs" textLength="30" x="1119" y="187.5338">owns</text><text fill="#000000" font-family="sans-serif" font-size="13" lengthAdjust="spacingAndGlyphs" textLength="7" x="1236.222" y="132.5161">1</text><text fill="#000000" font-family="sans-serif" font-size="13" lengthAdjust="spacingAndGlyphs" textLength="7" x="784.0478" y="285.6135">1</text><!--MD5=[295b831e619ddb9550140844d5637beb]
link MLCoupling<In,Out> to MLCouplingApplication<In,Out>--><path d="M1412,153.19 C1412,171.55 1412,191.67 1412,211.71 " fill="none" id="MLCoupling&lt;In,Out&gt;-MLCouplingApplication&lt;In,Out&gt;" style="stroke: #000000; stroke-width: 1.0;"/><line style="stroke: #000000; stroke-width: 1.0;" x1="1416" x2="1408" y1="214.47" y2="214.47"/><line style="stroke: #000000; stroke-width: 1.0;" x1="1416" x2="1408" y1="211.47" y2="211.47"/><line style="stroke: #000000; stroke-width: 1.0;" x1="1412" x2="1412" y1="210.47" y2="218.47"/><line style="stroke: #000000; stroke-width: 1.0;" x1="1408" x2="1416" y1="150.21" y2="150.21"/><line style="stroke: #000000; stroke-width: 1.0;" x1="1408" x2="1416" y1="153.21" y2="153.21"/><line style="stroke: #000000; stroke-width: 1.0;" x1="1412" x2="1412" y1="154.21" y2="146.21"/><text fill="#000000" font-family="sans-serif" font-size="13" lengthAdjust="spacingAndGlyphs" textLength="30" x="1413" y="187.5338">owns</text><text fill="#000000" font-family="sans-serif" font-size="13" lengthAdjust="spacingAndGlyphs" textLength="7" x="1404.6391" y="164.742">1</text><text fill="#000000" font-family="sans-serif" font-size="13" lengthAdjust="spacingAndGlyphs" textLength="7" x="1404.7648" y="209.5475">1</text><!--MD5=[0db71367c1a681db51e43fb06fd0011e]
link MLCoupling<In,Out> to MLCouplingBehavior--><path d="M1581.92,139.27 C1722.63,190.78 1917.72,262.2 2034.07,304.79 " fill="none" id="MLCoupling&lt;In,Out&gt;-MLCouplingBehavior" style="stroke: #000000; stroke-width: 1.0;"/><line style="stroke: #000000; stroke-width: 1.0;" x1="2031.2469" x2="2041.58" y1="303.7682" y2="307.54"/><ellipse cx="2031.2469" cy="303.7682" fill="none" rx="4" ry="4" style="stroke: #000000; stroke-width: 1.0;"/><line style="stroke: #000000; stroke-width: 1.0;" x1="2039.1941" x2="2036.4509" y1="302.4109" y2="309.9259"/><line style="stroke: #000000; stroke-width: 1.0;" x1="1577.1659" x2="1579.9091" y1="141.7891" y2="134.2741"/><line style="stroke: #000000; stroke-width: 1.0;" x1="1579.9841" x2="1582.7272" y1="142.8177" y2="135.3027"/><line style="stroke: #000000; stroke-width: 1.0;" x1="1582.295" x2="1574.78" y1="139.4031" y2="136.66"/><text fill="#000000" font-family="sans-serif" font-size="13" lengthAdjust="spacingAndGlyphs" textLength="30" x="1709" y="187.5338">owns</text><text fill="#000000" font-family="sans-serif" font-size="13" lengthAdjust="spacingAndGlyphs" textLength="7" x="1580.8302" y="136.76">1</text><text fill="#000000" font-family="sans-serif" font-size="13" lengthAdjust="spacingAndGlyphs" textLength="22" x="2013.5828" y="303.282">0..1</text><!--MD5=[cbb813c970f891858bad47254b91b670]
link MLCouplingApplication<In,Out> to MLCouplingNormalization<In,Out>--><path d="M1267.74,470 C1227.6,505.34 1186.61,541.43 1155.8,568.54 " fill="none" id="MLCouplingApplication&lt;In,Out&gt;-MLCouplingNormalization&lt;In,Out&gt;" style="stroke: #000000; stroke-width: 1.0;"/><line style="stroke: #000000; stroke-width: 1.0;" x1="1158.3839" x2="1150.13" y1="566.2687" y2="573.54"/><ellipse cx="1158.3839" cy="566.2687" fill="none" rx="4" ry="4" style="stroke: #000000; stroke-width: 1.0;"/><line style="stroke: #000000; stroke-width: 1.0;" x1="1155.7756" x2="1150.4873" y1="573.8973" y2="567.8944"/><line style="stroke: #000000; stroke-width: 1.0;" x1="1267.8844" x2="1273.1727" y1="464.5527" y2="470.5556"/><line style="stroke: #000000; stroke-width: 1.0;" x1="1265.6334" x2="1270.9216" y1="466.5358" y2="472.5386"/><line style="stroke: #000000; stroke-width: 1.0;" x1="1267.5271" x2="1273.53" y1="470.1982" y2="464.91"/><text fill="#000000" font-family="sans-serif" font-size="13" lengthAdjust="spacingAndGlyphs" textLength="30" x="1242" y="506.8638">owns</text><text fill="#000000" font-family="sans-serif" font-size="13" lengthAdjust="spacingAndGlyphs" textLength="7" x="1259.0776" y="483.9879">1</text><text fill="#000000" font-family="sans-serif" font-size="13" lengthAdjust="spacingAndGlyphs" textLength="22" x="1133.0844" y="564.2059">0..1</text><!--MD5=[3531641fdec09a9715a2ae313e63b058]
link MLCouplingApplication<In,Out> to MLCouplingData<T>--><path d="M1598.7658,471.7768 C1598.7658,471.7768 1685.89,531.83 1721.66,556.5 " fill="none" id="MLCouplingApplication&lt;In,Out&gt;-MLCouplingData&lt;T&gt;" style="stroke: #000000; stroke-width: 1.0;"/><line style="stroke: #000000; stroke-width: 1.0;" x1="1731.2203" x2="1726.6758" y1="558.2258" y2="564.8097"/><line style="stroke: #000000; stroke-width: 1.0;" x1="1728.7514" x2="1724.2069" y1="556.5216" y2="563.1055"/><line style="stroke: #000000; stroke-width: 1.0;" x1="1725.6561" x2="1732.24" y1="559.2455" y2="563.79"/><polygon fill="#FFFFFF" points="1588.89,464.96,1591.5556,471.6603,1598.7658,471.7768,1596.1002,465.0765,1588.89,464.96" style="stroke: #000000; stroke-width: 1.0;"/><text fill="#000000" font-family="sans-serif" font-size="13" lengthAdjust="spacingAndGlyphs" textLength="28" x="1645" y="506.8638">uses</text><text fill="#000000" font-family="sans-serif" font-size="13" lengthAdjust="spacingAndGlyphs" textLength="7" x="1590.6024" y="483.7845">1</text><text fill="#000000" font-family="sans-serif" font-size="13" lengthAdjust="spacingAndGlyphs" textLength="7" x="1715.1457" y="554.2469">4</text><!--MD5=[f4e824b13bafebbbd0227c49e3c2ac6d]
reverse link MLCouplingNormalization<In,Out> to MLCouplingMinMaxNormalization<In,Out>--><path d="M1105,675.34 C1105,698.04 1105,724.44 1105,749.46 " fill="none" id="MLCouplingNormalization&lt;In,Out&gt;&lt;-MLCouplingMinMaxNormalization&lt;In,Out&gt;" style="stroke: #000000; stroke-width: 1.0;"/><polygon fill="none" points="1098,675.57,1105,655.57,1112,675.57,1098,675.57" style="stroke: #000000; stroke-width: 1.0;"/><!--MD5=[c579de39c61fe3f98a3d4912dbb11bab]
reverse link MLCouplingApplication<In,Out> to MLCouplingApplicationTurbulenceClosure<In,Out>--><path d="M1412,485.4 C1412,506.45 1412,527.26 1412,545.79 " fill="none" id="MLCouplingApplication&lt;In,Out&gt;&lt;-MLCouplingApplicationTurbulenceClosure&lt;In,Out&gt;" style="stroke: #000000; stroke-width: 1.0;"/><polygon fill="none" points="1405,485.42,1412,465.42,1419,485.42,1405,485.42" style="stroke: #000000; stroke-width: 1.0;"/><!--MD5=[e3c6df0024f4e001d3dbc4060b2b7e2b]
reverse link MLCouplingBehavior to MLCouplingBehaviorDefault--><path d="M2133,409.7 C2133,460.12 2133,527.82 2133,571 " fill="none" id="MLCouplingBehavior&lt;-MLCouplingBehaviorDefault" style="stroke: #000000; stroke-width: 1.0;"/><polygon fill="none" points="2126,409.75,2133,389.75,2140,409.75,2126,409.75" style="stroke: #000000; stroke-width: 1.0;"/><!--MD5=[e9b84672a41d93ca8993bc20b03ec48b]
reverse link MLCouplingBehavior to MLCouplingBehaviorPeriodic--><path d="M2184.25,404.57 C2217.58,444.59 2261.21,497 2296.41,539.29 " fill="none" id="MLCouplingBehavior&lt;-MLCouplingBehaviorPeriodic" style="stroke: #000000; stroke-width: 1.0;"/><polygon fill="none" points="2179.05,409.25,2171.63,389.4,2189.8,400.3,2179.05,409.25" style="stroke: #000000; stroke-width: 1.0;"/><!--MD5=[ab33557bf1fed1f0338cee95bd2d126f]
reverse link MLCouplingProvider<In,Out> to MLCouplingProviderPhydll<In,Out>--><path d="M537.65,398.58 C441.03,452.09 297.74,531.45 215.13,577.19 " fill="none" id="MLCouplingProvider&lt;In,Out&gt;&lt;-MLCouplingProviderPhydll&lt;In,Out&gt;" style="stroke: #000000; stroke-width: 1.0;"/><polygon fill="none" points="534.11,392.54,555,388.97,540.89,404.79,534.11,392.54" style="stroke: #000000; stroke-width: 1.0;"/><!--MD5=[b419ec6e50e8b21fa3170c8b0acee3b6]
reverse link MLCouplingProvider<In,Out> to MLCouplingProviderAixelerate<In,Out>--><path d="M599.25,406.47 C566.74,459.73 521.47,533.88 494.9,577.4 " fill="none" id="MLCouplingProvider&lt;In,Out&gt;&lt;-MLCouplingProviderAixelerate&lt;In,Out&gt;" style="stroke: #000000; stroke-width: 1.0;"/><polygon fill="none" points="593.2,402.95,609.59,389.53,605.15,410.25,593.2,402.95" style="stroke: #000000; stroke-width: 1.0;"/><!--MD5=[0a60636bc2f5c6a9accdd88e8836e263]
reverse link MLCouplingProvider<In,Out> to MLCouplingProviderSmartsim<In,Out>--><path d="M676.66,406.33 C707.64,457.07 750.24,526.85 777.2,571 " fill="none" id="MLCouplingProvider&lt;In,Out&gt;&lt;-MLCouplingProviderSmartsim&lt;In,Out&gt;" style="stroke: #000000; stroke-width: 1.0;"/><polygon fill="none" points="670.85,410.25,666.41,389.53,682.8,402.95,670.85,410.25" style="stroke: #000000; stroke-width: 1.0;"/><!--MD5=[fbf843aab46c97cd8da901890c23f0ef]
@startuml CPP_NEW_ML_Interface

top to bottom direction
skinparam classAttributeIconSize 0
skinparam backgroundColor #FFFFFF
skinparam class {
    BackgroundColor<<abstract>> LightYellow
    BorderColor Black
    ArrowColor Black
}


class "MLCoupling<In,Out>" {
    - provider: std::unique_ptr<MLCouplingProvider<In,Out>>
    - application: std::unique_ptr<MLCouplingApplication<In,Out>>
    - behavior: std::unique_ptr<MLCouplingBehavior>
    + MLCoupling(MLCouplingProvider<In,Out>*,
                 MLCouplingApplication<In,Out>*, MLCouplingBehavior* = nullptr)
    + ~MLCoupling()
    + ml_step()
}

class "MLCouplingProvider<In,Out>" <<abstract>> {
    + MLCouplingProvider()
    + send_data(MLCouplingData<In>)
    + inference(MLCouplingData<In>): MLCouplingData<Out>
}

class "MLCouplingApplication<In,Out>" <<abstract>> {
    + input_data: MLCouplingData<In>
    + input_data_after_preprocessing: MLCouplingData<In>
    + output_data_before_postprocessing: MLCouplingData<Out>
    + output_data: MLCouplingData<Out>
    # normalization: std::unique_ptr<MLCouplingNormalization<In,Out>>
    + MLCouplingApplication(std::vector<In*>, std::vector<std::vector<int>>,
                            std::vector<Out*>, std::vector<std::vector<int>>,
                            MLCouplingNormalization<In,Out>*)
    + MLCouplingApplication(MLCouplingData<In>, MLCouplingData<Out>,
                            MLCouplingNormalization<In,Out>*)
    + step(bool, bool)
    # preprocess(MLCouplingData<In>): MLCouplingData<In>
    # coupling_step(MLCouplingData<In>)
    # ml_step(MLCouplingData<In>): MLCouplingData<Out>
    # postprocess(MLCouplingData<Out>): MLCouplingData<Out>
}

class "MLCouplingNormalization<In,Out>" <<abstract>> {
    + normalize_input(MLCouplingData<In>)
    + denormalize_output(MLCouplingData<Out>)
}

class "MLCouplingMinMaxNormalization<In,Out>" {
    - input_min: In
    - input_max: In
    - output_min: Out
    - output_max: Out
    + MLCouplingMinMaxNormalization(In, In, Out, Out)
    + MLCouplingMinMaxNormalization(In*, int, Out*, int)
    + MLCouplingMinMaxNormalization(MLCouplingData<In>, MLCouplingData<Out>)
    + normalize_input(In*, int)
    + normalize_input(MLCouplingData<In>)
    + denormalize_output(Out*, int)
    + denormalize_output(MLCouplingData<Out>)
}

class "MLCouplingApplicationTurbulenceClosure<In,Out>" {
    # preprocess(MLCouplingData<In>): MLCouplingData<In>
    # coupling_step(MLCouplingData<In>)
    # ml_step(MLCouplingData<In>): MLCouplingData<Out>
    # postprocess(MLCouplingData<Out>): MLCouplingData<Out>
    - uniform_filtering()
    - downsampling()
    - compute_tau_ij()
}

class "MLCouplingData<T>" {
    + data: std::vector<T*>
    + data_dimensions: std::vector<std::vector<int>>
    + MLCouplingData(const std::vector<T*>&, const std::vector<std::vector<int>>&)
    + MLCouplingData()
}

class "MLCouplingBehavior" <<abstract>> {
    + should_perform_inference(): bool
    + time_step_delta(): int
    + should_send_data(): bool
}

class "MLCouplingBehaviorDefault" {
    + should_perform_inference(): bool
    + time_step_delta(): int
    + should_send_data(): bool
}

class "MLCouplingBehaviorPeriodic" {
    - step_count: long long
    - inference_interval: int
    - coupled_steps_before_inference: int
    - coupled_steps_stride: int
    - step_increment_after_inference: int
    + should_perform_inference(): bool
    + time_step_delta(): int
    + should_send_data(): bool
}

class "MLCouplingProviderPhydll<In,Out>" {
    + send_data(MLCouplingData<In>)
    + inference(MLCouplingData<In>): MLCouplingData<Out>
}

class "MLCouplingProviderAixelerate<In,Out>" {
    + send_data(MLCouplingData<In>)
    + inference(MLCouplingData<In>): MLCouplingData<Out>
}

class "MLCouplingProviderSmartsim<In,Out>" {
    + MLCouplingProviderSmartsim(std::string, int, int, int, int, int)
    + send_data(MLCouplingData<In>)
    + inference(MLCouplingData<In>): MLCouplingData<Out>
}

"MLCoupling<In,Out>" "1" ||- -|| "1" "MLCouplingProvider<In,Out>" : owns
"MLCoupling<In,Out>" "1" ||- -|| "1" "MLCouplingApplication<In,Out>" : owns
"MLCoupling<In,Out>" "1" ||- -o| "0..1" "MLCouplingBehavior" : owns
"MLCouplingApplication<In,Out>" "1" ||- -o| "0..1" "MLCouplingNormalization<In,Out>" : owns
"MLCouplingApplication<In,Out>" "1" o- -|| "4" "MLCouplingData<T>" : uses
"MLCouplingNormalization<In,Out>" <|- - "MLCouplingMinMaxNormalization<In,Out>"

"MLCouplingApplication<In,Out>" <|- - "MLCouplingApplicationTurbulenceClosure<In,Out>"
"MLCouplingBehavior" <|- - "MLCouplingBehaviorDefault"
"MLCouplingBehavior" <|- - "MLCouplingBehaviorPeriodic"

"MLCouplingProvider<In,Out>" <|- - "MLCouplingProviderPhydll<In,Out>"
"MLCouplingProvider<In,Out>" <|- - "MLCouplingProviderAixelerate<In,Out>"
"MLCouplingProvider<In,Out>" <|- - "MLCouplingProviderSmartsim<In,Out>"

@enduml

PlantUML version 1.2020.02(Sun Mar 01 11:22:07 CET 2020)
(GPL source distribution)
Java Runtime: OpenJDK Runtime Environment
JVM: OpenJDK 64-Bit Server VM
Java Version: 21.0.10+7-Ubuntu-124.04
Operating System: Linux
Default Encoding: UTF-8
Language: de
Country: DE
--></g></svg>