<?xml version="1.0" encoding="UTF-8" standalone="no"?><svg xmlns="http://www.w3.org/2000/svg" xmlns:xlink="http://www.w3.org/1999/xlink" contentScriptType="application/ecmascript" contentStyleType="text/css" height="877px" preserveAspectRatio="none" style="width:1125px;height:877px;" version="1.1" viewBox="0 0 1125 877" width="1125px" zoomAndPan="magnify"><defs><filter height="300%" id="f1fd4egpo608mk" width="300%" x="-1" y="-1"><feGaussianBlur result="blurOut" stdDeviation="2.0"/><feColorMatrix in="blurOut" result="blurOut2" type="matrix" values="0 0 0 0 0 0 0 0 0 0 0 0 0 0 0 0 0 0 .4 0"/><feOffset dx="4.0" dy="4.0" in="blurOut2" result="blurOut3"/><feBlend in="SourceGraphic" in2="blurOut3" mode="normal"/></filter></defs><g><!--MD5=[f500096b95d7d9013cb48b5434f24db3]
class MLCoupling<In,Out>--><rect fill="#FFFFE0" filter="url(#f1fd4egpo608mk)" height="180.0869" id="MLCoupling&lt;In,Out&gt;" style="stroke: #000000; stroke-width: 1.5;" width="514" x="201.5" y="8"/><ellipse cx="397.75" cy="26.7988" fill="#ADD1B2" rx="11" ry="11" style="stroke: #000000; stroke-width: 1.0;"/><path d="M395.4063,26.6426 Q395.4063,28.5176 395.9844,29.5332 Q396.5625,30.5332 397.7188,30.5332 Q399.0625,30.5332 399.7188,28.5176 L401.9844,28.9395 Q400.875,32.4707 397.7031,32.4707 Q395.3594,32.4707 394.1406,30.9863 Q392.9219,29.502 392.9219,26.6426 Q392.9219,20.9238 397.625,20.9238 Q399.1719,20.9238 400.2031,21.7363 Q401.25,22.5488 401.75,24.1582 L399.4844,24.7051 Q399.25,23.8301 398.7656,23.3457 Q398.2813,22.8457 397.6563,22.8457 Q395.4063,22.8457 395.4063,26.6426 Z "/><text fill="#000000" font-family="sans-serif" font-size="12" font-style="italic" lengthAdjust="spacingAndGlyphs" textLength="57" x="446.25" y="24.2559">«abstract»</text><text fill="#000000" font-family="sans-serif" font-size="12" lengthAdjust="spacingAndGlyphs" textLength="113" x="418.25" y="38.0547">MLCoupling&lt;In,Out&gt;</text><line style="stroke: #000000; stroke-width: 1.5;" x1="202.5" x2="714.5" y1="45.5977" y2="45.5977"/><text fill="#000000" font-family="sans-serif" font-size="11" lengthAdjust="spacingAndGlyphs" textLength="274" x="207.5" y="59.9155">-provider: std::unique_ptr&lt;MLCouplingProvider&lt;In,Out&gt;&gt;</text><text fill="#000000" font-family="sans-serif" font-size="11" lengthAdjust="spacingAndGlyphs" textLength="296" x="207.5" y="72.5645">-application: std::unique_ptr&lt;MLCouplingApplication&lt;In,Out&gt;&gt;</text><text fill="#000000" font-family="sans-serif" font-size="11" lengthAdjust="spacingAndGlyphs" textLength="278" x="207.5" y="85.2134">-behavior: std::unique_ptr&lt;MLCouplingBehavior&lt;In,Out&gt;&gt;</text><text fill="#000000" font-family="sans-serif" font-size="11" lengthAdjust="spacingAndGlyphs" textLength="192" x="207.5" y="97.8623">#input_data: std::vector&lt;std::span&lt;In&gt;&gt;</text><text fill="#000000" font-family="sans-serif" font-size="11" lengthAdjust="spacingAndGlyphs" textLength="208" x="207.5" y="110.5112">#output_data: std::vector&lt;std::span&lt;Out&gt;&gt;</text><text fill="#000000" font-family="sans-serif" font-size="11" lengthAdjust="spacingAndGlyphs" textLength="390" x="207.5" y="123.1602">Out** output_data, size_t output_data_count, std::vector&lt;int&gt; output_data_sizes,</text><line style="stroke: #000000; stroke-width: 1.5;" x1="202.5" x2="714.5" y1="129.4912" y2="129.4912"/><text fill="#000000" font-family="sans-serif" font-size="11" lengthAdjust="spacingAndGlyphs" textLength="365" x="207.5" y="143.8091">+init(In** input_data, int input_data_count, std::vector&lt;int&gt; input_data_sizes,</text><text fill="#000000" font-family="sans-serif" font-size="11" lengthAdjust="spacingAndGlyphs" textLength="502" x="207.5" y="156.458">MLCouplingProvider&lt;In,Out&gt;*, MLCouplingApplication&lt;In,Out&gt;*, MLCouplingBehavior&lt;In,Out&gt;* = nullptr)</text><text fill="#000000" font-family="sans-serif" font-size="11" lengthAdjust="spacingAndGlyphs" textLength="87" x="207.5" y="169.1069">+infer_ml_model()</text><text fill="#000000" font-family="sans-serif" font-size="11" lengthAdjust="spacingAndGlyphs" textLength="47" x="207.5" y="181.7559">+finalize()</text><!--MD5=[0624b538302a5a462d2624a255cce169]
class MLCouplingProvider<In,Out>--><rect fill="#FFFFE0" filter="url(#f1fd4egpo608mk)" height="104.1934" id="MLCouplingProvider&lt;In,Out&gt;" style="stroke: #000000; stroke-width: 1.5;" width="191" x="6" y="308.5"/><ellipse cx="21" cy="327.2988" fill="#ADD1B2" rx="11" ry="11" style="stroke: #000000; stroke-width: 1.0;"/><path d="M18.6563,327.1426 Q18.6563,329.0176 19.2344,330.0332 Q19.8125,331.0332 20.9688,331.0332 Q22.3125,331.0332 22.9688,329.0176 L25.2344,329.4395 Q24.125,332.9707 20.9531,332.9707 Q18.6094,332.9707 17.3906,331.4863 Q16.1719,330.002 16.1719,327.1426 Q16.1719,321.4238 20.875,321.4238 Q22.4219,321.4238 23.4531,322.2363 Q24.5,323.0488 25,324.6582 L22.7344,325.2051 Q22.5,324.3301 22.0156,323.8457 Q21.5313,323.3457 20.9063,323.3457 Q18.6563,323.3457 18.6563,327.1426 Z "/><text fill="#000000" font-family="sans-serif" font-size="12" font-style="italic" lengthAdjust="spacingAndGlyphs" textLength="57" x="86" y="324.7559">«abstract»</text><text fill="#000000" font-family="sans-serif" font-size="12" lengthAdjust="spacingAndGlyphs" textLength="159" x="35" y="338.5547">MLCouplingProvider&lt;In,Out&gt;</text><line style="stroke: #000000; stroke-width: 1.5;" x1="7" x2="196" y1="346.0977" y2="346.0977"/><line style="stroke: #000000; stroke-width: 1.5;" x1="7" x2="196" y1="354.0977" y2="354.0977"/><text fill="#000000" font-family="sans-serif" font-size="11" lengthAdjust="spacingAndGlyphs" textLength="118" x="12" y="368.4155">+~MLCouplingProvider()</text><text fill="#000000" font-family="sans-serif" font-size="11" lengthAdjust="spacingAndGlyphs" textLength="27" x="12" y="381.0645">+init()</text><text fill="#000000" font-family="sans-serif" font-size="11" lengthAdjust="spacingAndGlyphs" textLength="59" x="12" y="393.7134">+inference()</text><text fill="#000000" font-family="sans-serif" font-size="11" lengthAdjust="spacingAndGlyphs" textLength="47" x="12" y="406.3623">+finalize()</text><!--MD5=[9734458d82faec336be428a63de85fff]
class MLCouplingApplication<In,Out>--><rect fill="#FFFFE0" filter="url(#f1fd4egpo608mk)" height="192.7358" id="MLCouplingApplication&lt;In,Out&gt;" style="stroke: #000000; stroke-width: 1.5;" width="453" x="232" y="264"/><ellipse cx="367.25" cy="282.7988" fill="#ADD1B2" rx="11" ry="11" style="stroke: #000000; stroke-width: 1.0;"/><path d="M364.9063,282.6426 Q364.9063,284.5176 365.4844,285.5332 Q366.0625,286.5332 367.2188,286.5332 Q368.5625,286.5332 369.2188,284.5176 L371.4844,284.9395 Q370.375,288.4707 367.2031,288.4707 Q364.8594,288.4707 363.6406,286.9863 Q362.4219,285.502 362.4219,282.6426 Q362.4219,276.9238 367.125,276.9238 Q368.6719,276.9238 369.7031,277.7363 Q370.75,278.5488 371.25,280.1582 L368.9844,280.7051 Q368.75,279.8301 368.2656,279.3457 Q367.7813,278.8457 367.1563,278.8457 Q364.9063,278.8457 364.9063,282.6426 Z "/><text fill="#000000" font-family="sans-serif" font-size="12" font-style="italic" lengthAdjust="spacingAndGlyphs" textLength="57" x="446.25" y="280.2559">«abstract»</text><text fill="#000000" font-family="sans-serif" font-size="12" lengthAdjust="spacingAndGlyphs" textLength="174" x="387.75" y="294.0547">MLCouplingApplication&lt;In,Out&gt;</text><line style="stroke: #000000; stroke-width: 1.5;" x1="233" x2="684" y1="301.5977" y2="301.5977"/><text fill="#000000" font-family="sans-serif" font-size="11" lengthAdjust="spacingAndGlyphs" textLength="325" x="238" y="315.9155">-normalization: std::shared_ptr&lt;MLCouplingNormalization&lt;In,Out&gt;&gt;</text><line style="stroke: #000000; stroke-width: 1.5;" x1="233" x2="684" y1="322.2466" y2="322.2466"/><text fill="#000000" font-family="sans-serif" font-size="11" lengthAdjust="spacingAndGlyphs" textLength="441" x="238" y="336.5645">+MLCouplingApplication(std::shared_ptr&lt;MLCouplingNormalization&lt;In,Out&gt;&gt; normalization)</text><text fill="#000000" font-family="sans-serif" font-size="11" lengthAdjust="spacingAndGlyphs" textLength="129" x="238" y="349.2134">+~MLCouplingApplication()</text><text fill="#000000" font-family="sans-serif" font-size="11" lengthAdjust="spacingAndGlyphs" textLength="27" x="238" y="361.8623">+init()</text><text fill="#000000" font-family="sans-serif" font-size="11" lengthAdjust="spacingAndGlyphs" textLength="70" x="238" y="374.5112">+preprocess()</text><text fill="#000000" font-family="sans-serif" font-size="11" lengthAdjust="spacingAndGlyphs" textLength="87" x="238" y="387.1602">+infer_ml_model()</text><text fill="#000000" font-family="sans-serif" font-size="11" lengthAdjust="spacingAndGlyphs" textLength="75" x="238" y="399.8091">+postprocess()</text><text fill="#000000" font-family="sans-serif" font-size="11" lengthAdjust="spacingAndGlyphs" textLength="47" x="238" y="412.458">+finalize()</text><text fill="#000000" font-family="sans-serif" font-size="11" lengthAdjust="spacingAndGlyphs" textLength="52" x="238" y="425.1069">+ml_step()</text><text fill="#000000" font-family="sans-serif" font-size="11" lengthAdjust="spacingAndGlyphs" textLength="106" x="238" y="437.7559">#normalize_input(In&amp;)</text><text fill="#000000" font-family="sans-serif" font-size="11" lengthAdjust="spacingAndGlyphs" textLength="134" x="238" y="450.4048">#denormalize_output(Out&amp;)</text><!--MD5=[6c19f86b9d5afcf28bd36d0fe178c1fc]
class MLCouplingNormalization<In,Out>--><rect fill="#FFFFE0" filter="url(#f1fd4egpo608mk)" height="78.8955" id="MLCouplingNormalization&lt;In,Out&gt;" style="stroke: #000000; stroke-width: 1.5;" width="221" x="64" y="568"/><ellipse cx="79" cy="586.7988" fill="#ADD1B2" rx="11" ry="11" style="stroke: #000000; stroke-width: 1.0;"/><path d="M76.6563,586.6426 Q76.6563,588.5176 77.2344,589.5332 Q77.8125,590.5332 78.9688,590.5332 Q80.3125,590.5332 80.9688,588.5176 L83.2344,588.9395 Q82.125,592.4707 78.9531,592.4707 Q76.6094,592.4707 75.3906,590.9863 Q74.1719,589.502 74.1719,586.6426 Q74.1719,580.9238 78.875,580.9238 Q80.4219,580.9238 81.4531,581.7363 Q82.5,582.5488 83,584.1582 L80.7344,584.7051 Q80.5,583.8301 80.0156,583.3457 Q79.5313,582.8457 78.9063,582.8457 Q76.6563,582.8457 76.6563,586.6426 Z "/><text fill="#000000" font-family="sans-serif" font-size="12" font-style="italic" lengthAdjust="spacingAndGlyphs" textLength="57" x="159" y="584.2559">«abstract»</text><text fill="#000000" font-family="sans-serif" font-size="12" lengthAdjust="spacingAndGlyphs" textLength="189" x="93" y="598.0547">MLCouplingNormalization&lt;In,Out&gt;</text><line style="stroke: #000000; stroke-width: 1.5;" x1="65" x2="284" y1="605.5977" y2="605.5977"/><line style="stroke: #000000; stroke-width: 1.5;" x1="65" x2="284" y1="613.5977" y2="613.5977"/><text fill="#000000" font-family="sans-serif" font-size="11" lengthAdjust="spacingAndGlyphs" textLength="106" x="70" y="627.9155">+normalize_input(In&amp;)</text><text fill="#000000" font-family="sans-serif" font-size="11" lengthAdjust="spacingAndGlyphs" textLength="134" x="70" y="640.5645">+denormalize_output(Out&amp;)</text><!--MD5=[97416592fb3e02693e6c76276d79ae5f]
class MLCouplingMinMaxNormalization<In,Out>--><rect fill="#FEFECE" filter="url(#f1fd4egpo608mk)" height="123.8936" id="MLCouplingMinMaxNormalization&lt;In,Out&gt;" style="stroke: #000000; stroke-width: 1.5;" width="264" x="42.5" y="743"/><ellipse cx="57.5" cy="759" fill="#ADD1B2" rx="11" ry="11" style="stroke: #000000; stroke-width: 1.0;"/><path d="M55.1563,758.8438 Q55.1563,760.7188 55.7344,761.7344 Q56.3125,762.7344 57.4688,762.7344 Q58.8125,762.7344 59.4688,760.7188 L61.7344,761.1406 Q60.625,764.6719 57.4531,764.6719 Q55.1094,764.6719 53.8906,763.1875 Q52.6719,761.7031 52.6719,758.8438 Q52.6719,753.125 57.375,753.125 Q58.9219,753.125 59.9531,753.9375 Q61,754.75 61.5,756.3594 L59.2344,756.9063 Q59,756.0313 58.5156,755.5469 Q58.0313,755.0469 57.4063,755.0469 Q55.1563,755.0469 55.1563,758.8438 Z "/><text fill="#000000" font-family="sans-serif" font-size="12" lengthAdjust="spacingAndGlyphs" textLength="232" x="71.5" y="763.3564">MLCouplingMinMaxNormalization&lt;In,Out&gt;</text><line style="stroke: #000000; stroke-width: 1.5;" x1="43.5" x2="305.5" y1="775" y2="775"/><text fill="#000000" font-family="sans-serif" font-size="11" lengthAdjust="spacingAndGlyphs" textLength="71" x="48.5" y="789.3179">-input_min_: In</text><text fill="#000000" font-family="sans-serif" font-size="11" lengthAdjust="spacingAndGlyphs" textLength="75" x="48.5" y="801.9668">-input_max_: In</text><text fill="#000000" font-family="sans-serif" font-size="11" lengthAdjust="spacingAndGlyphs" textLength="87" x="48.5" y="814.6157">-output_min_: Out</text><text fill="#000000" font-family="sans-serif" font-size="11" lengthAdjust="spacingAndGlyphs" textLength="91" x="48.5" y="827.2646">-output_max_: Out</text><line style="stroke: #000000; stroke-width: 1.5;" x1="43.5" x2="305.5" y1="833.5957" y2="833.5957"/><text fill="#000000" font-family="sans-serif" font-size="11" lengthAdjust="spacingAndGlyphs" textLength="106" x="48.5" y="847.9136">+normalize_input(In&amp;)</text><text fill="#000000" font-family="sans-serif" font-size="11" lengthAdjust="spacingAndGlyphs" textLength="134" x="48.5" y="860.5625">+denormalize_output(Out&amp;)</text><!--MD5=[b8fbc68d072974482eee1b95ce0fc17b]
class MLCouplingApplicationTurbulenceClosure<In,Out>--><rect fill="#FEFECE" filter="url(#f1fd4egpo608mk)" height="123.8936" id="MLCouplingApplicationTurbulenceClosure&lt;In,Out&gt;" style="stroke: #000000; stroke-width: 1.5;" width="311" x="320" y="545.5"/><ellipse cx="335" cy="561.5" fill="#ADD1B2" rx="11" ry="11" style="stroke: #000000; stroke-width: 1.0;"/><path d="M332.6563,561.3438 Q332.6563,563.2188 333.2344,564.2344 Q333.8125,565.2344 334.9688,565.2344 Q336.3125,565.2344 336.9688,563.2188 L339.2344,563.6406 Q338.125,567.1719 334.9531,567.1719 Q332.6094,567.1719 331.3906,565.6875 Q330.1719,564.2031 330.1719,561.3438 Q330.1719,555.625 334.875,555.625 Q336.4219,555.625 337.4531,556.4375 Q338.5,557.25 339,558.8594 L336.7344,559.4063 Q336.5,558.5313 336.0156,558.0469 Q335.5313,557.5469 334.9063,557.5469 Q332.6563,557.5469 332.6563,561.3438 Z "/><text fill="#000000" font-family="sans-serif" font-size="12" lengthAdjust="spacingAndGlyphs" textLength="279" x="349" y="565.8564">MLCouplingApplicationTurbulenceClosure&lt;In,Out&gt;</text><line style="stroke: #000000; stroke-width: 1.5;" x1="321" x2="630" y1="577.5" y2="577.5"/><line style="stroke: #000000; stroke-width: 1.5;" x1="321" x2="630" y1="585.5" y2="585.5"/><text fill="#000000" font-family="sans-serif" font-size="11" lengthAdjust="spacingAndGlyphs" textLength="70" x="326" y="599.8179">+preprocess()</text><text fill="#000000" font-family="sans-serif" font-size="11" lengthAdjust="spacingAndGlyphs" textLength="75" x="326" y="612.4668">+postprocess()</text><text fill="#000000" font-family="sans-serif" font-size="11" lengthAdjust="spacingAndGlyphs" textLength="87" x="326" y="625.1157">+infer_ml_model()</text><text fill="#000000" font-family="sans-serif" font-size="11" lengthAdjust="spacingAndGlyphs" textLength="88" x="326" y="637.7646">-uniform_filtering()</text><text fill="#000000" font-family="sans-serif" font-size="11" lengthAdjust="spacingAndGlyphs" textLength="81" x="326" y="650.4136">-downsampling()</text><text fill="#000000" font-family="sans-serif" font-size="11" lengthAdjust="spacingAndGlyphs" textLength="85" x="326" y="663.0625">-compute_tau_ij()</text><!--MD5=[be39cfb2cfae71551c2ac1a911145cde]
class MLCouplingBehavior--><rect fill="#FFFFE0" filter="url(#f1fd4egpo608mk)" height="91.5444" id="MLCouplingBehavior" style="stroke: #000000; stroke-width: 1.5;" width="179" x="720" y="314.5"/><ellipse cx="748.95" cy="333.2988" fill="#ADD1B2" rx="11" ry="11" style="stroke: #000000; stroke-width: 1.0;"/><path d="M746.6063,333.1426 Q746.6063,335.0176 747.1844,336.0332 Q747.7625,337.0332 748.9188,337.0332 Q750.2625,337.0332 750.9188,335.0176 L753.1844,335.4395 Q752.075,338.9707 748.9031,338.9707 Q746.5594,338.9707 745.3406,337.4863 Q744.1219,336.002 744.1219,333.1426 Q744.1219,327.4238 748.825,327.4238 Q750.3719,327.4238 751.4031,328.2363 Q752.45,329.0488 752.95,330.6582 L750.6844,331.2051 Q750.45,330.3301 749.9656,329.8457 Q749.4813,329.3457 748.8563,329.3457 Q746.6063,329.3457 746.6063,333.1426 Z "/><text fill="#000000" font-family="sans-serif" font-size="12" font-style="italic" lengthAdjust="spacingAndGlyphs" textLength="57" x="795.55" y="330.7559">«abstract»</text><text fill="#000000" font-family="sans-serif" font-size="12" lengthAdjust="spacingAndGlyphs" textLength="116" x="766.05" y="344.5547">MLCouplingBehavior</text><line style="stroke: #000000; stroke-width: 1.5;" x1="721" x2="898" y1="352.0977" y2="352.0977"/><line style="stroke: #000000; stroke-width: 1.5;" x1="721" x2="898" y1="360.0977" y2="360.0977"/><text fill="#000000" font-family="sans-serif" font-size="11" lengthAdjust="spacingAndGlyphs" textLength="167" x="726" y="374.4155">+should_perform_inference(): bool</text><text fill="#000000" font-family="sans-serif" font-size="11" lengthAdjust="spacingAndGlyphs" textLength="107" x="726" y="387.0645">+time_step_delta(): int</text><text fill="#000000" font-family="sans-serif" font-size="11" lengthAdjust="spacingAndGlyphs" textLength="129" x="726" y="399.7134">+should_send_data(): bool</text><!--MD5=[3f906eb8a64c5fa7c99969f7f216ea4d]
class MLCouplingBehaviorDefault--><rect fill="#FEFECE" filter="url(#f1fd4egpo608mk)" height="85.9468" id="MLCouplingBehaviorDefault" style="stroke: #000000; stroke-width: 1.5;" width="187" x="699" y="564.5"/><ellipse cx="714" cy="580.5" fill="#ADD1B2" rx="11" ry="11" style="stroke: #000000; stroke-width: 1.0;"/><path d="M711.6563,580.3438 Q711.6563,582.2188 712.2344,583.2344 Q712.8125,584.2344 713.9688,584.2344 Q715.3125,584.2344 715.9688,582.2188 L718.2344,582.6406 Q717.125,586.1719 713.9531,586.1719 Q711.6094,586.1719 710.3906,584.6875 Q709.1719,583.2031 709.1719,580.3438 Q709.1719,574.625 713.875,574.625 Q715.4219,574.625 716.4531,575.4375 Q717.5,576.25 718,577.8594 L715.7344,578.4063 Q715.5,577.5313 715.0156,577.0469 Q714.5313,576.5469 713.9063,576.5469 Q711.6563,576.5469 711.6563,580.3438 Z "/><text fill="#000000" font-family="sans-serif" font-size="12" lengthAdjust="spacingAndGlyphs" textLength="155" x="728" y="584.8564">MLCouplingBehaviorDefault</text><line style="stroke: #000000; stroke-width: 1.5;" x1="700" x2="885" y1="596.5" y2="596.5"/><line style="stroke: #000000; stroke-width: 1.5;" x1="700" x2="885" y1="604.5" y2="604.5"/><text fill="#000000" font-family="sans-serif" font-size="11" lengthAdjust="spacingAndGlyphs" textLength="167" x="705" y="618.8179">+should_perform_inference(): bool</text><text fill="#000000" font-family="sans-serif" font-size="11" lengthAdjust="spacingAndGlyphs" textLength="107" x="705" y="631.4668">+time_step_delta(): int</text><text fill="#000000" font-family="sans-serif" font-size="11" lengthAdjust="spacingAndGlyphs" textLength="129" x="705" y="644.1157">+should_send_data(): bool</text><!--MD5=[1ad52a24b6e8672bdb7d3010e92aa71a]
class MLCouplingBehaviorPeriodic--><rect fill="#FEFECE" filter="url(#f1fd4egpo608mk)" height="149.1914" id="MLCouplingBehaviorPeriodic" style="stroke: #000000; stroke-width: 1.5;" width="193" x="921" y="533"/><ellipse cx="936" cy="549" fill="#ADD1B2" rx="11" ry="11" style="stroke: #000000; stroke-width: 1.0;"/><path d="M933.6563,548.8438 Q933.6563,550.7188 934.2344,551.7344 Q934.8125,552.7344 935.9688,552.7344 Q937.3125,552.7344 937.9688,550.7188 L940.2344,551.1406 Q939.125,554.6719 935.9531,554.6719 Q933.6094,554.6719 932.3906,553.1875 Q931.1719,551.7031 931.1719,548.8438 Q931.1719,543.125 935.875,543.125 Q937.4219,543.125 938.4531,543.9375 Q939.5,544.75 940,546.3594 L937.7344,546.9063 Q937.5,546.0313 937.0156,545.5469 Q936.5313,545.0469 935.9063,545.0469 Q933.6563,545.0469 933.6563,548.8438 Z "/><text fill="#000000" font-family="sans-serif" font-size="12" lengthAdjust="spacingAndGlyphs" textLength="161" x="950" y="553.3564">MLCouplingBehaviorPeriodic</text><line style="stroke: #000000; stroke-width: 1.5;" x1="922" x2="1113" y1="565" y2="565"/><text fill="#000000" font-family="sans-serif" font-size="11" lengthAdjust="spacingAndGlyphs" textLength="107" x="927" y="579.3179">-step_count: long long</text><text fill="#000000" font-family="sans-serif" font-size="11" lengthAdjust="spacingAndGlyphs" textLength="107" x="927" y="591.9668">-inference_interval: int</text><text fill="#000000" font-family="sans-serif" font-size="11" lengthAdjust="spacingAndGlyphs" textLength="180" x="927" y="604.6157">-coupled_steps_before_inference: int</text><text fill="#000000" font-family="sans-serif" font-size="11" lengthAdjust="spacingAndGlyphs" textLength="125" x="927" y="617.2646">-coupled_steps_stride: int</text><text fill="#000000" font-family="sans-serif" font-size="11" lengthAdjust="spacingAndGlyphs" textLength="175" x="927" y="629.9136">-step_increment_after_inference: int</text><line style="stroke: #000000; stroke-width: 1.5;" x1="922" x2="1113" y1="636.2446" y2="636.2446"/><text fill="#000000" font-family="sans-serif" font-size="11" lengthAdjust="spacingAndGlyphs" textLength="167" x="927" y="650.5625">+should_perform_inference(): bool</text><text fill="#000000" font-family="sans-serif" font-size="11" lengthAdjust="spacingAndGlyphs" textLength="107" x="927" y="663.2114">+time_step_delta(): int</text><text fill="#000000" font-family="sans-serif" font-size="11" lengthAdjust="spacingAndGlyphs" textLength="129" x="927" y="675.8604">+should_send_data(): bool</text><!--MD5=[1fd91dcbf383aedd2f1e4b0e3de37ea0]
link MLCoupling<In,Out> to MLCouplingProvider<In,Out>--><path d="M315.36,192.05 C281.79,214.9 246.49,239.78 214.5,264 C198.03,276.47 180.76,290.53 164.82,303.95 " fill="none" id="MLCoupling&lt;In,Out&gt;-MLCouplingProvider&lt;In,Out&gt;" style="stroke: #000000; stroke-width: 1.0;"/><line style="stroke: #000000; stroke-width: 1.0;" x1="165.107" x2="159.9438" y1="308.9438" y2="302.833"/><line style="stroke: #000000; stroke-width: 1.0;" x1="167.3985" x2="162.2354" y1="307.0077" y2="300.8968"/><line style="stroke: #000000; stroke-width: 1.0;" x1="165.5808" x2="159.47" y1="303.3069" y2="308.47"/><line style="stroke: #000000; stroke-width: 1.0;" x1="315.615" x2="320.1014" y1="187.0414" y2="193.665"/><line style="stroke: #000000; stroke-width: 1.0;" x1="313.1311" x2="317.6176" y1="188.7238" y2="195.3474"/><line style="stroke: #000000; stroke-width: 1.0;" x1="314.5464" x2="321.17" y1="192.5964" y2="188.11"/><text fill="#000000" font-family="sans-serif" font-size="13" lengthAdjust="spacingAndGlyphs" textLength="30" x="274.5" y="231.1938">owns</text><text fill="#000000" font-family="sans-serif" font-size="13" lengthAdjust="spacingAndGlyphs" textLength="7" x="302.5075" y="208.3815">1</text><text fill="#000000" font-family="sans-serif" font-size="13" lengthAdjust="spacingAndGlyphs" textLength="7" x="160.8107" y="297.6827">1</text><!--MD5=[295b831e619ddb9550140844d5637beb]
link MLCoupling<In,Out> to MLCouplingApplication<In,Out>--><path d="M458.5,195.46 C458.5,215.38 458.5,236.43 458.5,256.57 " fill="none" id="MLCoupling&lt;In,Out&gt;-MLCouplingApplication&lt;In,Out&gt;" style="stroke: #000000; stroke-width: 1.0;"/><line style="stroke: #000000; stroke-width: 1.0;" x1="462.5" x2="454.5" y1="259.66" y2="259.66"/><line style="stroke: #000000; stroke-width: 1.0;" x1="462.5" x2="454.5" y1="256.66" y2="256.66"/><line style="stroke: #000000; stroke-width: 1.0;" x1="458.5" x2="458.5" y1="255.66" y2="263.66"/><line style="stroke: #000000; stroke-width: 1.0;" x1="454.5" x2="462.5" y1="192.28" y2="192.28"/><line style="stroke: #000000; stroke-width: 1.0;" x1="454.5" x2="462.5" y1="195.28" y2="195.28"/><line style="stroke: #000000; stroke-width: 1.0;" x1="458.5" x2="458.5" y1="196.28" y2="188.28"/><text fill="#000000" font-family="sans-serif" font-size="13" lengthAdjust="spacingAndGlyphs" textLength="30" x="459.5" y="231.1938">owns</text><text fill="#000000" font-family="sans-serif" font-size="13" lengthAdjust="spacingAndGlyphs" textLength="7" x="451.2211" y="208.2602">1</text><text fill="#000000" font-family="sans-serif" font-size="13" lengthAdjust="spacingAndGlyphs" textLength="7" x="451.2102" y="253.3048">1</text><!--MD5=[0db71367c1a681db51e43fb06fd0011e]
link MLCoupling<In,Out> to MLCouplingBehavior--><path d="M604.26,192.9 C637.17,215.38 671.52,239.87 702.5,264 C720.35,277.9 739,293.96 755.64,308.9 " fill="none" id="MLCoupling&lt;In,Out&gt;-MLCouplingBehavior" style="stroke: #000000; stroke-width: 1.0;"/><line style="stroke: #000000; stroke-width: 1.0;" x1="753.5096" x2="761.68" y1="306.9749" y2="314.34"/><ellipse cx="753.5096" cy="306.9749" fill="none" rx="4" ry="4" style="stroke: #000000; stroke-width: 1.0;"/><line style="stroke: #000000; stroke-width: 1.0;" x1="761.3872" x2="756.0307" y1="308.6907" y2="314.6328"/><line style="stroke: #000000; stroke-width: 1.0;" x1="598.3172" x2="602.8172" y1="193.6872" y2="187.0728"/><line style="stroke: #000000; stroke-width: 1.0;" x1="600.7975" x2="605.2976" y1="195.3747" y2="188.7604"/><line style="stroke: #000000; stroke-width: 1.0;" x1="603.8743" x2="597.26" y1="192.63" y2="188.13"/><text fill="#000000" font-family="sans-serif" font-size="13" lengthAdjust="spacingAndGlyphs" textLength="30" x="657.5" y="231.1938">owns</text><text fill="#000000" font-family="sans-serif" font-size="13" lengthAdjust="spacingAndGlyphs" textLength="7" x="601.4612" y="208.4031">1</text><text fill="#000000" font-family="sans-serif" font-size="13" lengthAdjust="spacingAndGlyphs" textLength="22" x="729.9379" y="303.8455">0..1</text><!--MD5=[cbb813c970f891858bad47254b91b670]
link MLCouplingApplication<In,Out> to MLCouplingNormalization<In,Out>--><path d="M341.42,462.51 C300.98,497.39 257.77,534.66 225.44,562.55 " fill="none" id="MLCouplingApplication&lt;In,Out&gt;-MLCouplingNormalization&lt;In,Out&gt;" style="stroke: #000000; stroke-width: 1.0;"/><line style="stroke: #000000; stroke-width: 1.0;" x1="227.4568" x2="219.13" y1="560.8122" y2="568"/><ellipse cx="227.4568" cy="560.8122" fill="none" rx="4" ry="4" style="stroke: #000000; stroke-width: 1.0;"/><line style="stroke: #000000; stroke-width: 1.0;" x1="224.7717" x2="219.5442" y1="568.4142" y2="562.3583"/><line style="stroke: #000000; stroke-width: 1.0;" x1="341.8383" x2="347.0658" y1="456.8658" y2="462.9217"/><line style="stroke: #000000; stroke-width: 1.0;" x1="339.5674" x2="344.7949" y1="458.8261" y2="464.882"/><line style="stroke: #000000; stroke-width: 1.0;" x1="341.4241" x2="347.48" y1="462.5075" y2="457.28"/><text fill="#000000" font-family="sans-serif" font-size="13" lengthAdjust="spacingAndGlyphs" textLength="30" x="309.5" y="500.1938">owns</text><text fill="#000000" font-family="sans-serif" font-size="13" lengthAdjust="spacingAndGlyphs" textLength="7" x="332.4278" y="476.8135">1</text><text fill="#000000" font-family="sans-serif" font-size="13" lengthAdjust="spacingAndGlyphs" textLength="22" x="203.7509" y="557.1428">0..1</text><!--MD5=[f4e824b13bafebbbd0227c49e3c2ac6d]
reverse link MLCouplingNormalization<In,Out> to MLCouplingMinMaxNormalization<In,Out>--><path d="M174.5,667.35 C174.5,691.18 174.5,718.69 174.5,742.75 " fill="none" id="MLCouplingNormalization&lt;In,Out&gt;&lt;-MLCouplingMinMaxNormalization&lt;In,Out&gt;" style="stroke: #000000; stroke-width: 1.0;"/><polygon fill="none" points="167.5,667.12,174.5,647.12,181.5,667.12,167.5,667.12" style="stroke: #000000; stroke-width: 1.0;"/><!--MD5=[c579de39c61fe3f98a3d4912dbb11bab]
reverse link MLCouplingApplication<In,Out> to MLCouplingApplicationTurbulenceClosure<In,Out>--><path d="M466.54,477.33 C468.17,500.86 469.83,524.72 471.26,545.43 " fill="none" id="MLCouplingApplication&lt;In,Out&gt;&lt;-MLCouplingApplicationTurbulenceClosure&lt;In,Out&gt;" style="stroke: #000000; stroke-width: 1.0;"/><polygon fill="none" points="459.55,477.71,465.15,457.28,473.51,476.74,459.55,477.71" style="stroke: #000000; stroke-width: 1.0;"/><!--MD5=[e3c6df0024f4e001d3dbc4060b2b7e2b]
reverse link MLCouplingBehavior to MLCouplingBehaviorDefault--><path d="M804.98,426.71 C801.95,470.37 798.05,526.56 795.42,564.41 " fill="none" id="MLCouplingBehavior&lt;-MLCouplingBehaviorDefault" style="stroke: #000000; stroke-width: 1.0;"/><polygon fill="none" points="797.99,426.19,806.36,406.72,811.96,427.16,797.99,426.19" style="stroke: #000000; stroke-width: 1.0;"/><!--MD5=[e9b84672a41d93ca8993bc20b03ec48b]
reverse link MLCouplingBehavior to MLCouplingBehaviorPeriodic--><path d="M861.19,422.39 C889.55,455.78 924.91,497.44 954.82,532.68 " fill="none" id="MLCouplingBehavior&lt;-MLCouplingBehaviorPeriodic" style="stroke: #000000; stroke-width: 1.0;"/><polygon fill="none" points="855.5,426.5,847.89,406.72,866.17,417.44,855.5,426.5" style="stroke: #000000; stroke-width: 1.0;"/><!--MD5=[5a8dad919cb6731331165d6faae9ac38]
@startuml CPP_NEW_ML_Interface

top to bottom direction
skinparam classAttributeIconSize 0
skinparam backgroundColor #FFFFFF
skinparam class {
    BackgroundColor<<abstract>> LightYellow
    BorderColor Black
    ArrowColor Black
}


class "MLCoupling<In,Out>" <<abstract>> {
    - provider: std::unique_ptr<MLCouplingProvider<In,Out>>
    - application: std::unique_ptr<MLCouplingApplication<In,Out>>
    - behavior: std::unique_ptr<MLCouplingBehavior<In,Out>>
    # input_data: std::vector<std::span<In>>
    # output_data: std::vector<std::span<Out>>
    + init(In** input_data, int input_data_count, std::vector<int> input_data_sizes,
           Out** output_data, size_t output_data_count, std::vector<int> output_data_sizes,
           MLCouplingProvider<In,Out>*, MLCouplingApplication<In,Out>*, MLCouplingBehavior<In,Out>* = nullptr)
    + infer_ml_model()
    + finalize()
}

class "MLCouplingProvider<In,Out>" <<abstract>> {
    + ~MLCouplingProvider()
    + init()
    + inference()
    + finalize()
}

class "MLCouplingApplication<In,Out>" <<abstract>> {
    + MLCouplingApplication(std::shared_ptr<MLCouplingNormalization<In,Out>> normalization)
    + ~MLCouplingApplication()
    - normalization: std::shared_ptr<MLCouplingNormalization<In,Out>>
    + init()
    + preprocess()
    + infer_ml_model()
    + postprocess()
    + finalize()
    + ml_step()
    # normalize_input(In&)
    # denormalize_output(Out&)
}

class "MLCouplingNormalization<In,Out>" <<abstract>> {
    + normalize_input(In&)
    + denormalize_output(Out&)
}

class "MLCouplingMinMaxNormalization<In,Out>" {
    - input_min_: In
    - input_max_: In
    - output_min_: Out
    - output_max_: Out
    + normalize_input(In&)
    + denormalize_output(Out&)
}

class "MLCouplingApplicationTurbulenceClosure<In,Out>" {
    + preprocess()
    + postprocess()
    + infer_ml_model()
    - uniform_filtering()
    - downsampling()
    - compute_tau_ij()
}

class "MLCouplingBehavior" <<abstract>> {
    + should_perform_inference(): bool
    + time_step_delta(): int
    + should_send_data(): bool
}

class "MLCouplingBehaviorDefault" {
    + should_perform_inference(): bool
    + time_step_delta(): int
    + should_send_data(): bool
}

class "MLCouplingBehaviorPeriodic" {
    - step_count: long long
    - inference_interval: int
    - coupled_steps_before_inference: int
    - coupled_steps_stride: int
    - step_increment_after_inference: int
    + should_perform_inference(): bool
    + time_step_delta(): int
    + should_send_data(): bool
}

"MLCoupling<In,Out>" "1" ||- -|| "1" "MLCouplingProvider<In,Out>" : owns
"MLCoupling<In,Out>" "1" ||- -|| "1" "MLCouplingApplication<In,Out>" : owns
"MLCoupling<In,Out>" "1" ||- -o| "0..1" "MLCouplingBehavior" : owns
"MLCouplingApplication<In,Out>" "1" ||- -o| "0..1" "MLCouplingNormalization<In,Out>" : owns
"MLCouplingNormalization<In,Out>" <|- - "MLCouplingMinMaxNormalization<In,Out>"

"MLCouplingApplication<In,Out>" <|- - "MLCouplingApplicationTurbulenceClosure<In,Out>"
"MLCouplingBehavior" <|- - "MLCouplingBehaviorDefault"
"MLCouplingBehavior" <|- - "MLCouplingBehaviorPeriodic"

@enduml

PlantUML version 1.2020.02(Sun Mar 01 11:22:07 CET 2020)
(GPL source distribution)
Java Runtime: OpenJDK Runtime Environment
JVM: OpenJDK 64-Bit Server VM
Java Version: 21.0.9+10-Ubuntu-124.04
Operating System: Linux
Default Encoding: UTF-8
Language: de
Country: DE
--></g></svg>