<?xml version="1.0" encoding="UTF-8" standalone="no"?><svg xmlns="http://www.w3.org/2000/svg" xmlns:xlink="http://www.w3.org/1999/xlink" contentScriptType="application/ecmascript" contentStyleType="text/css" height="1071px" preserveAspectRatio="none" style="width:2175px;height:1071px;" version="1.1" viewBox="0 0 2175 1071" width="2175px" zoomAndPan="magnify"><defs><filter height="300%" id="fvfjjho7twxlg" width="300%" x="-1" y="-1"><feGaussianBlur result="blurOut" stdDeviation="2.0"/><feColorMatrix in="blurOut" result="blurOut2" type="matrix" values="0 0 0 0 0 0 0 0 0 0 0 0 0 0 0 0 0 0 .4 0"/><feOffset dx="4.0" dy="4.0" in="blurOut2" result="blurOut3"/><feBlend in="SourceGraphic" in2="blurOut3" mode="normal"/></filter></defs><g><!--MD5=[f500096b95d7d9013cb48b5434f24db3]
class MLCoupling<In,Out>--><rect fill="#FEFECE" filter="url(#fvfjjho7twxlg)" height="136.5425" id="MLCoupling&lt;In,Out&gt;" style="stroke: #000000; stroke-width: 1.5;" width="322" x="1085" y="7.8"/><ellipse cx="1185.25" cy="23.8" fill="#ADD1B2" rx="11" ry="11" style="stroke: #000000; stroke-width: 1.0;"/><path d="M1182.9063,23.6437 Q1182.9063,25.5187 1183.4844,26.5344 Q1184.0625,27.5344 1185.2188,27.5344 Q1186.5625,27.5344 1187.2188,25.5187 L1189.4844,25.9406 Q1188.375,29.4719 1185.2031,29.4719 Q1182.8594,29.4719 1181.6406,27.9875 Q1180.4219,26.5031 1180.4219,23.6437 Q1180.4219,17.925 1185.125,17.925 Q1186.6719,17.925 1187.7031,18.7375 Q1188.75,19.55 1189.25,21.1594 L1186.9844,21.7062 Q1186.75,20.8312 1186.2656,20.3469 Q1185.7813,19.8469 1185.1563,19.8469 Q1182.9063,19.8469 1182.9063,23.6437 Z "/><text fill="#000000" font-family="sans-serif" font-size="12" lengthAdjust="spacingAndGlyphs" textLength="113" x="1205.75" y="28.1564">MLCoupling&lt;In,Out&gt;</text><line style="stroke: #000000; stroke-width: 1.5;" x1="1086" x2="1406" y1="39.8" y2="39.8"/><text fill="#000000" font-family="sans-serif" font-size="11" lengthAdjust="spacingAndGlyphs" textLength="274" x="1091" y="54.1179">-provider: std::unique_ptr&lt;MLCouplingProvider&lt;In,Out&gt;&gt;</text><text fill="#000000" font-family="sans-serif" font-size="11" lengthAdjust="spacingAndGlyphs" textLength="296" x="1091" y="66.7668">-application: std::unique_ptr&lt;MLCouplingApplication&lt;In,Out&gt;&gt;</text><text fill="#000000" font-family="sans-serif" font-size="11" lengthAdjust="spacingAndGlyphs" textLength="236" x="1091" y="79.4157">-behavior: std::unique_ptr&lt;MLCouplingBehavior&gt;</text><line style="stroke: #000000; stroke-width: 1.5;" x1="1086" x2="1406" y1="85.7468" y2="85.7468"/><text fill="#000000" font-family="sans-serif" font-size="11" lengthAdjust="spacingAndGlyphs" textLength="214" x="1091" y="100.0646">+MLCoupling(MLCouplingProvider&lt;In,Out&gt;*,</text><text fill="#000000" font-family="sans-serif" font-size="11" lengthAdjust="spacingAndGlyphs" textLength="310" x="1091" y="112.7136">MLCouplingApplication&lt;In,Out&gt;*, MLCouplingBehavior* = nullptr)</text><text fill="#000000" font-family="sans-serif" font-size="11" lengthAdjust="spacingAndGlyphs" textLength="77" x="1091" y="125.3625">+~MLCoupling()</text><text fill="#000000" font-family="sans-serif" font-size="11" lengthAdjust="spacingAndGlyphs" textLength="52" x="1091" y="138.0114">+ml_step()</text><!--MD5=[0624b538302a5a462d2624a255cce169]
class MLCouplingProvider<In,Out>--><rect fill="#FFFFE0" filter="url(#fvfjjho7twxlg)" height="91.5444" id="MLCouplingProvider&lt;In,Out&gt;" style="stroke: #000000; stroke-width: 1.5;" width="288" x="558" y="245.64"/><ellipse cx="618.25" cy="264.4388" fill="#ADD1B2" rx="11" ry="11" style="stroke: #000000; stroke-width: 1.0;"/><path d="M615.9063,264.2826 Q615.9063,266.1576 616.4844,267.1732 Q617.0625,268.1732 618.2188,268.1732 Q619.5625,268.1732 620.2188,266.1576 L622.4844,266.5795 Q621.375,270.1107 618.2031,270.1107 Q615.8594,270.1107 614.6406,268.6263 Q613.4219,267.142 613.4219,264.2826 Q613.4219,258.5638 618.125,258.5638 Q619.6719,258.5638 620.7031,259.3763 Q621.75,260.1888 622.25,261.7982 L619.9844,262.3451 Q619.75,261.4701 619.2656,260.9857 Q618.7813,260.4857 618.1563,260.4857 Q615.9063,260.4857 615.9063,264.2826 Z "/><text fill="#000000" font-family="sans-serif" font-size="12" font-style="italic" lengthAdjust="spacingAndGlyphs" textLength="57" x="689.75" y="261.8959">«abstract»</text><text fill="#000000" font-family="sans-serif" font-size="12" lengthAdjust="spacingAndGlyphs" textLength="159" x="638.75" y="275.6947">MLCouplingProvider&lt;In,Out&gt;</text><line style="stroke: #000000; stroke-width: 1.5;" x1="559" x2="845" y1="283.2377" y2="283.2377"/><line style="stroke: #000000; stroke-width: 1.5;" x1="559" x2="845" y1="291.2377" y2="291.2377"/><text fill="#000000" font-family="sans-serif" font-size="11" lengthAdjust="spacingAndGlyphs" textLength="112" x="564" y="305.5555">+MLCouplingProvider()</text><text fill="#000000" font-family="sans-serif" font-size="11" lengthAdjust="spacingAndGlyphs" textLength="166" x="564" y="318.2045">+send_data(MLCouplingData&lt;In&gt;)</text><text fill="#000000" font-family="sans-serif" font-size="11" lengthAdjust="spacingAndGlyphs" textLength="276" x="564" y="330.8534">+inference(MLCouplingData&lt;In&gt;): MLCouplingData&lt;Out&gt;</text><!--MD5=[9734458d82faec336be428a63de85fff]
class MLCouplingApplication<In,Out>--><rect fill="#FFFFE0" filter="url(#fvfjjho7twxlg)" height="142.1401" id="MLCouplingApplication&lt;In,Out&gt;" style="stroke: #000000; stroke-width: 1.5;" width="472" x="1010" y="220.34"/><ellipse cx="1154.75" cy="239.1388" fill="#ADD1B2" rx="11" ry="11" style="stroke: #000000; stroke-width: 1.0;"/><path d="M1152.4063,238.9826 Q1152.4063,240.8576 1152.9844,241.8732 Q1153.5625,242.8732 1154.7188,242.8732 Q1156.0625,242.8732 1156.7188,240.8576 L1158.9844,241.2795 Q1157.875,244.8107 1154.7031,244.8107 Q1152.3594,244.8107 1151.1406,243.3263 Q1149.9219,241.842 1149.9219,238.9826 Q1149.9219,233.2638 1154.625,233.2638 Q1156.1719,233.2638 1157.2031,234.0763 Q1158.25,234.8888 1158.75,236.4982 L1156.4844,237.0451 Q1156.25,236.1701 1155.7656,235.6857 Q1155.2813,235.1857 1154.6563,235.1857 Q1152.4063,235.1857 1152.4063,238.9826 Z "/><text fill="#000000" font-family="sans-serif" font-size="12" font-style="italic" lengthAdjust="spacingAndGlyphs" textLength="57" x="1233.75" y="236.5959">«abstract»</text><text fill="#000000" font-family="sans-serif" font-size="12" lengthAdjust="spacingAndGlyphs" textLength="174" x="1175.25" y="250.3947">MLCouplingApplication&lt;In,Out&gt;</text><line style="stroke: #000000; stroke-width: 1.5;" x1="1011" x2="1481" y1="257.9377" y2="257.9377"/><text fill="#000000" font-family="sans-serif" font-size="11" lengthAdjust="spacingAndGlyphs" textLength="346" x="1016" y="272.2555">#data_processor: std::unique_ptr&lt;MLCouplingDataProcessor&lt;In,Out&gt;&gt;</text><line style="stroke: #000000; stroke-width: 1.5;" x1="1011" x2="1481" y1="278.5866" y2="278.5866"/><text fill="#000000" font-family="sans-serif" font-size="11" lengthAdjust="spacingAndGlyphs" textLength="460" x="1016" y="292.9045">+MLCouplingApplication(std::unique_ptr&lt;MLCouplingDataProcessor&lt;In,Out&gt;&gt; data_processor)</text><text fill="#000000" font-family="sans-serif" font-size="11" lengthAdjust="spacingAndGlyphs" textLength="81" x="1016" y="305.5534">+step(bool, bool)</text><text fill="#000000" font-family="sans-serif" font-size="11" lengthAdjust="spacingAndGlyphs" textLength="278" x="1016" y="318.2023">#preprocess(MLCouplingData&lt;In&gt;): MLCouplingData&lt;In&gt;</text><text fill="#000000" font-family="sans-serif" font-size="11" lengthAdjust="spacingAndGlyphs" textLength="182" x="1016" y="330.8512">#coupling_step(MLCouplingData&lt;In&gt;)</text><text fill="#000000" font-family="sans-serif" font-size="11" lengthAdjust="spacingAndGlyphs" textLength="269" x="1016" y="343.5002">#ml_step(MLCouplingData&lt;In&gt;): MLCouplingData&lt;Out&gt;</text><text fill="#000000" font-family="sans-serif" font-size="11" lengthAdjust="spacingAndGlyphs" textLength="301" x="1016" y="356.1491">#postprocess(MLCouplingData&lt;Out&gt;): MLCouplingData&lt;Out&gt;</text><!--MD5=[6c19f86b9d5afcf28bd36d0fe178c1fc]
class MLCouplingNormalization<In,Out>--><rect fill="#FFFFE0" filter="url(#fvfjjho7twxlg)" height="78.8955" id="MLCouplingNormalization&lt;In,Out&gt;" style="stroke: #000000; stroke-width: 1.5;" width="231" x="1164.5" y="724.12"/><ellipse cx="1184" cy="742.9188" fill="#ADD1B2" rx="11" ry="11" style="stroke: #000000; stroke-width: 1.0;"/><path d="M1181.6563,742.7626 Q1181.6563,744.6376 1182.2344,745.6532 Q1182.8125,746.6532 1183.9688,746.6532 Q1185.3125,746.6532 1185.9688,744.6376 L1188.2344,745.0595 Q1187.125,748.5907 1183.9531,748.5907 Q1181.6094,748.5907 1180.3906,747.1063 Q1179.1719,745.622 1179.1719,742.7626 Q1179.1719,737.0438 1183.875,737.0438 Q1185.4219,737.0438 1186.4531,737.8563 Q1187.5,738.6688 1188,740.2782 L1185.7344,740.8251 Q1185.5,739.9501 1185.0156,739.4657 Q1184.5313,738.9657 1183.9063,738.9657 Q1181.6563,738.9657 1181.6563,742.7626 Z "/><text fill="#000000" font-family="sans-serif" font-size="12" font-style="italic" lengthAdjust="spacingAndGlyphs" textLength="57" x="1265" y="740.3759">«abstract»</text><text fill="#000000" font-family="sans-serif" font-size="12" lengthAdjust="spacingAndGlyphs" textLength="189" x="1199" y="754.1747">MLCouplingNormalization&lt;In,Out&gt;</text><line style="stroke: #000000; stroke-width: 1.5;" x1="1165.5" x2="1394.5" y1="761.7177" y2="761.7177"/><line style="stroke: #000000; stroke-width: 1.5;" x1="1165.5" x2="1394.5" y1="769.7177" y2="769.7177"/><text fill="#000000" font-family="sans-serif" font-size="11" lengthAdjust="spacingAndGlyphs" textLength="191" x="1170.5" y="784.0355">+normalize_input(MLCouplingData&lt;In&gt;)</text><text fill="#000000" font-family="sans-serif" font-size="11" lengthAdjust="spacingAndGlyphs" textLength="219" x="1170.5" y="796.6845">+denormalize_output(MLCouplingData&lt;Out&gt;)</text><!--MD5=[97416592fb3e02693e6c76276d79ae5f]
class MLCouplingMinMaxNormalization<In,Out>--><rect fill="#FEFECE" filter="url(#fvfjjho7twxlg)" height="187.1382" id="MLCouplingMinMaxNormalization&lt;In,Out&gt;" style="stroke: #000000; stroke-width: 1.5;" width="404" x="1078" y="873.86"/><ellipse cx="1159.75" cy="889.86" fill="#ADD1B2" rx="11" ry="11" style="stroke: #000000; stroke-width: 1.0;"/><path d="M1157.4063,889.7038 Q1157.4063,891.5788 1157.9844,892.5944 Q1158.5625,893.5944 1159.7188,893.5944 Q1161.0625,893.5944 1161.7188,891.5788 L1163.9844,892.0006 Q1162.875,895.5319 1159.7031,895.5319 Q1157.3594,895.5319 1156.1406,894.0475 Q1154.9219,892.5631 1154.9219,889.7038 Q1154.9219,883.985 1159.625,883.985 Q1161.1719,883.985 1162.2031,884.7975 Q1163.25,885.61 1163.75,887.2194 L1161.4844,887.7663 Q1161.25,886.8913 1160.7656,886.4069 Q1160.2813,885.9069 1159.6563,885.9069 Q1157.4063,885.9069 1157.4063,889.7038 Z "/><text fill="#000000" font-family="sans-serif" font-size="12" lengthAdjust="spacingAndGlyphs" textLength="232" x="1180.25" y="894.2164">MLCouplingMinMaxNormalization&lt;In,Out&gt;</text><line style="stroke: #000000; stroke-width: 1.5;" x1="1079" x2="1481" y1="905.86" y2="905.86"/><text fill="#000000" font-family="sans-serif" font-size="11" lengthAdjust="spacingAndGlyphs" textLength="65" x="1084" y="920.1779">-input_min: In</text><text fill="#000000" font-family="sans-serif" font-size="11" lengthAdjust="spacingAndGlyphs" textLength="69" x="1084" y="932.8268">-input_max: In</text><text fill="#000000" font-family="sans-serif" font-size="11" lengthAdjust="spacingAndGlyphs" textLength="81" x="1084" y="945.4757">-output_min: Out</text><text fill="#000000" font-family="sans-serif" font-size="11" lengthAdjust="spacingAndGlyphs" textLength="85" x="1084" y="958.1246">-output_max: Out</text><line style="stroke: #000000; stroke-width: 1.5;" x1="1079" x2="1481" y1="964.4557" y2="964.4557"/><text fill="#000000" font-family="sans-serif" font-size="11" lengthAdjust="spacingAndGlyphs" textLength="247" x="1084" y="978.7736">+MLCouplingMinMaxNormalization(In, In, Out, Out)</text><text fill="#000000" font-family="sans-serif" font-size="11" lengthAdjust="spacingAndGlyphs" textLength="250" x="1084" y="991.4225">+MLCouplingMinMaxNormalization(In*, int, Out*, int)</text><text fill="#000000" font-family="sans-serif" font-size="11" lengthAdjust="spacingAndGlyphs" textLength="392" x="1084" y="1004.0714">+MLCouplingMinMaxNormalization(MLCouplingData&lt;In&gt;, MLCouplingData&lt;Out&gt;)</text><text fill="#000000" font-family="sans-serif" font-size="11" lengthAdjust="spacingAndGlyphs" textLength="120" x="1084" y="1016.7204">+normalize_input(In*, int)</text><text fill="#000000" font-family="sans-serif" font-size="11" lengthAdjust="spacingAndGlyphs" textLength="191" x="1084" y="1029.3693">+normalize_input(MLCouplingData&lt;In&gt;)</text><text fill="#000000" font-family="sans-serif" font-size="11" lengthAdjust="spacingAndGlyphs" textLength="148" x="1084" y="1042.0182">+denormalize_output(Out*, int)</text><text fill="#000000" font-family="sans-serif" font-size="11" lengthAdjust="spacingAndGlyphs" textLength="219" x="1084" y="1054.6671">+denormalize_output(MLCouplingData&lt;Out&gt;)</text><!--MD5=[b8fbc68d072974482eee1b95ce0fc17b]
class MLCouplingApplicationTurbulenceClosure<In,Out>--><rect fill="#FEFECE" filter="url(#fvfjjho7twxlg)" height="136.5425" id="MLCouplingApplicationTurbulenceClosure&lt;In,Out&gt;" style="stroke: #000000; stroke-width: 1.5;" width="313" x="989.5" y="470.1"/><ellipse cx="1005.4" cy="486.1" fill="#ADD1B2" rx="11" ry="11" style="stroke: #000000; stroke-width: 1.0;"/><path d="M1003.0563,485.9438 Q1003.0563,487.8188 1003.6344,488.8344 Q1004.2125,489.8344 1005.3688,489.8344 Q1006.7125,489.8344 1007.3688,487.8188 L1009.6344,488.2406 Q1008.525,491.7719 1005.3531,491.7719 Q1003.0094,491.7719 1001.7906,490.2875 Q1000.5719,488.8031 1000.5719,485.9438 Q1000.5719,480.225 1005.275,480.225 Q1006.8219,480.225 1007.8531,481.0375 Q1008.9,481.85 1009.4,483.4594 L1007.1344,484.0063 Q1006.9,483.1313 1006.4156,482.6469 Q1005.9313,482.1469 1005.3063,482.1469 Q1003.0563,482.1469 1003.0563,485.9438 Z "/><text fill="#000000" font-family="sans-serif" font-size="12" lengthAdjust="spacingAndGlyphs" textLength="279" x="1019.6" y="490.4564">MLCouplingApplicationTurbulenceClosure&lt;In,Out&gt;</text><line style="stroke: #000000; stroke-width: 1.5;" x1="990.5" x2="1301.5" y1="502.1" y2="502.1"/><line style="stroke: #000000; stroke-width: 1.5;" x1="990.5" x2="1301.5" y1="510.1" y2="510.1"/><text fill="#000000" font-family="sans-serif" font-size="11" lengthAdjust="spacingAndGlyphs" textLength="278" x="995.5" y="524.4179">+preprocess(MLCouplingData&lt;In&gt;): MLCouplingData&lt;In&gt;</text><text fill="#000000" font-family="sans-serif" font-size="11" lengthAdjust="spacingAndGlyphs" textLength="301" x="995.5" y="537.0668">+postprocess(MLCouplingData&lt;Out&gt;): MLCouplingData&lt;Out&gt;</text><text fill="#000000" font-family="sans-serif" font-size="11" lengthAdjust="spacingAndGlyphs" textLength="182" x="995.5" y="549.7157">+coupling_step(MLCouplingData&lt;In&gt;)</text><text fill="#000000" font-family="sans-serif" font-size="11" lengthAdjust="spacingAndGlyphs" textLength="269" x="995.5" y="562.3646">+ml_step(MLCouplingData&lt;In&gt;): MLCouplingData&lt;Out&gt;</text><text fill="#000000" font-family="sans-serif" font-size="11" lengthAdjust="spacingAndGlyphs" textLength="88" x="995.5" y="575.0136">-uniform_filtering()</text><text fill="#000000" font-family="sans-serif" font-size="11" lengthAdjust="spacingAndGlyphs" textLength="81" x="995.5" y="587.6625">-downsampling()</text><text fill="#000000" font-family="sans-serif" font-size="11" lengthAdjust="spacingAndGlyphs" textLength="85" x="995.5" y="600.3114">-compute_tau_ij()</text><!--MD5=[a8a4cbeec90b54dbba0dcc7b11288957]
class MLCouplingDataProcessor<In,Out>--><rect fill="#FEFECE" filter="url(#fvfjjho7twxlg)" height="199.7871" id="MLCouplingDataProcessor&lt;In,Out&gt;" style="stroke: #000000; stroke-width: 1.5;" width="378" x="1337" y="438.48"/><ellipse cx="1424.75" cy="454.48" fill="#ADD1B2" rx="11" ry="11" style="stroke: #000000; stroke-width: 1.0;"/><path d="M1422.4063,454.3238 Q1422.4063,456.1988 1422.9844,457.2144 Q1423.5625,458.2144 1424.7188,458.2144 Q1426.0625,458.2144 1426.7188,456.1988 L1428.9844,456.6206 Q1427.875,460.1519 1424.7031,460.1519 Q1422.3594,460.1519 1421.1406,458.6675 Q1419.9219,457.1831 1419.9219,454.3238 Q1419.9219,448.605 1424.625,448.605 Q1426.1719,448.605 1427.2031,449.4175 Q1428.25,450.23 1428.75,451.8394 L1426.4844,452.3863 Q1426.25,451.5113 1425.7656,451.0269 Q1425.2813,450.5269 1424.6563,450.5269 Q1422.4063,450.5269 1422.4063,454.3238 Z "/><text fill="#000000" font-family="sans-serif" font-size="12" lengthAdjust="spacingAndGlyphs" textLength="194" x="1445.25" y="458.8364">MLCouplingDataProcessor&lt;In,Out&gt;</text><line style="stroke: #000000; stroke-width: 1.5;" x1="1338" x2="1714" y1="470.48" y2="470.48"/><text fill="#000000" font-family="sans-serif" font-size="11" lengthAdjust="spacingAndGlyphs" textLength="163" x="1343" y="484.7979">+input_data: MLCouplingData&lt;In&gt;</text><text fill="#000000" font-family="sans-serif" font-size="11" lengthAdjust="spacingAndGlyphs" textLength="267" x="1343" y="497.4468">+input_data_after_preprocessing: MLCouplingData&lt;In&gt;</text><text fill="#000000" font-family="sans-serif" font-size="11" lengthAdjust="spacingAndGlyphs" textLength="297" x="1343" y="510.0957">+output_data_before_postprocessing: MLCouplingData&lt;Out&gt;</text><text fill="#000000" font-family="sans-serif" font-size="11" lengthAdjust="spacingAndGlyphs" textLength="179" x="1343" y="522.7446">+output_data: MLCouplingData&lt;Out&gt;</text><text fill="#000000" font-family="sans-serif" font-size="11" lengthAdjust="spacingAndGlyphs" textLength="234" x="1343" y="535.3936">std::vector&lt;Out*&gt;, std::vector&lt;std::vector&lt;int&gt;&gt;,</text><text fill="#000000" font-family="sans-serif" font-size="11" lengthAdjust="spacingAndGlyphs" textLength="323" x="1343" y="548.0425">-normalization: std::unique_ptr&lt;MLCouplingNormalization&lt;In,Out&gt;&gt;</text><line style="stroke: #000000; stroke-width: 1.5;" x1="1338" x2="1714" y1="554.3736" y2="554.3736"/><text fill="#000000" font-family="sans-serif" font-size="11" lengthAdjust="spacingAndGlyphs" textLength="366" x="1343" y="568.6914">+MLCouplingDataProcessor(std::vector&lt;In*&gt;, std::vector&lt;std::vector&lt;int&gt;&gt;,</text><text fill="#000000" font-family="sans-serif" font-size="11" lengthAdjust="spacingAndGlyphs" textLength="173" x="1343" y="581.3404">MLCouplingNormalization&lt;In,Out&gt;*)</text><text fill="#000000" font-family="sans-serif" font-size="11" lengthAdjust="spacingAndGlyphs" textLength="361" x="1343" y="593.9893">+MLCouplingDataProcessor(MLCouplingData&lt;In&gt;, MLCouplingData&lt;Out&gt;,</text><text fill="#000000" font-family="sans-serif" font-size="11" lengthAdjust="spacingAndGlyphs" textLength="173" x="1343" y="606.6382">MLCouplingNormalization&lt;In,Out&gt;*)</text><text fill="#000000" font-family="sans-serif" font-size="11" lengthAdjust="spacingAndGlyphs" textLength="106" x="1343" y="619.2871">#normalize_input(In&amp;)</text><text fill="#000000" font-family="sans-serif" font-size="11" lengthAdjust="spacingAndGlyphs" textLength="134" x="1343" y="631.9361">#denormalize_output(Out&amp;)</text><!--MD5=[6b8a1d6566fc54ac3a67302d6d4280a4]
class MLCouplingData<T>--><rect fill="#FEFECE" filter="url(#fvfjjho7twxlg)" height="98.5957" id="MLCouplingData&lt;T&gt;" style="stroke: #000000; stroke-width: 1.5;" width="400" x="1431" y="714.27"/><ellipse cx="1569.75" cy="730.27" fill="#ADD1B2" rx="11" ry="11" style="stroke: #000000; stroke-width: 1.0;"/><path d="M1567.4063,730.1138 Q1567.4063,731.9888 1567.9844,733.0044 Q1568.5625,734.0044 1569.7188,734.0044 Q1571.0625,734.0044 1571.7188,731.9888 L1573.9844,732.4106 Q1572.875,735.9419 1569.7031,735.9419 Q1567.3594,735.9419 1566.1406,734.4575 Q1564.9219,732.9731 1564.9219,730.1138 Q1564.9219,724.395 1569.625,724.395 Q1571.1719,724.395 1572.2031,725.2075 Q1573.25,726.02 1573.75,727.6294 L1571.4844,728.1763 Q1571.25,727.3013 1570.7656,726.8169 Q1570.2813,726.3169 1569.6563,726.3169 Q1567.4063,726.3169 1567.4063,730.1138 Z "/><text fill="#000000" font-family="sans-serif" font-size="12" lengthAdjust="spacingAndGlyphs" textLength="114" x="1590.25" y="734.6264">MLCouplingData&lt;T&gt;</text><line style="stroke: #000000; stroke-width: 1.5;" x1="1432" x2="1830" y1="746.27" y2="746.27"/><text fill="#000000" font-family="sans-serif" font-size="11" lengthAdjust="spacingAndGlyphs" textLength="108" x="1437" y="760.5879">+data: std::vector&lt;T*&gt;</text><text fill="#000000" font-family="sans-serif" font-size="11" lengthAdjust="spacingAndGlyphs" textLength="233" x="1437" y="773.2368">+data_dimensions: std::vector&lt;std::vector&lt;int&gt;&gt;</text><line style="stroke: #000000; stroke-width: 1.5;" x1="1432" x2="1830" y1="779.5679" y2="779.5679"/><text fill="#000000" font-family="sans-serif" font-size="11" lengthAdjust="spacingAndGlyphs" textLength="388" x="1437" y="793.8857">+MLCouplingData(const std::vector&lt;T*&gt;&amp;, const std::vector&lt;std::vector&lt;int&gt;&gt;&amp;)</text><text fill="#000000" font-family="sans-serif" font-size="11" lengthAdjust="spacingAndGlyphs" textLength="94" x="1437" y="806.5346">+MLCouplingData()</text><!--MD5=[be39cfb2cfae71551c2ac1a911145cde]
class MLCouplingBehavior--><rect fill="#FFFFE0" filter="url(#fvfjjho7twxlg)" height="91.5444" id="MLCouplingBehavior" style="stroke: #000000; stroke-width: 1.5;" width="179" x="1753.5" y="245.64"/><ellipse cx="1782.45" cy="264.4388" fill="#ADD1B2" rx="11" ry="11" style="stroke: #000000; stroke-width: 1.0;"/><path d="M1780.1063,264.2826 Q1780.1063,266.1576 1780.6844,267.1732 Q1781.2625,268.1732 1782.4188,268.1732 Q1783.7625,268.1732 1784.4188,266.1576 L1786.6844,266.5795 Q1785.575,270.1107 1782.4031,270.1107 Q1780.0594,270.1107 1778.8406,268.6263 Q1777.6219,267.142 1777.6219,264.2826 Q1777.6219,258.5638 1782.325,258.5638 Q1783.8719,258.5638 1784.9031,259.3763 Q1785.95,260.1888 1786.45,261.7982 L1784.1844,262.3451 Q1783.95,261.4701 1783.4656,260.9857 Q1782.9813,260.4857 1782.3563,260.4857 Q1780.1063,260.4857 1780.1063,264.2826 Z "/><text fill="#000000" font-family="sans-serif" font-size="12" font-style="italic" lengthAdjust="spacingAndGlyphs" textLength="57" x="1829.05" y="261.8959">«abstract»</text><text fill="#000000" font-family="sans-serif" font-size="12" lengthAdjust="spacingAndGlyphs" textLength="116" x="1799.55" y="275.6947">MLCouplingBehavior</text><line style="stroke: #000000; stroke-width: 1.5;" x1="1754.5" x2="1931.5" y1="283.2377" y2="283.2377"/><line style="stroke: #000000; stroke-width: 1.5;" x1="1754.5" x2="1931.5" y1="291.2377" y2="291.2377"/><text fill="#000000" font-family="sans-serif" font-size="11" lengthAdjust="spacingAndGlyphs" textLength="167" x="1759.5" y="305.5555">+should_perform_inference(): bool</text><text fill="#000000" font-family="sans-serif" font-size="11" lengthAdjust="spacingAndGlyphs" textLength="107" x="1759.5" y="318.2045">+time_step_delta(): int</text><text fill="#000000" font-family="sans-serif" font-size="11" lengthAdjust="spacingAndGlyphs" textLength="129" x="1759.5" y="330.8534">+should_send_data(): bool</text><!--MD5=[3f906eb8a64c5fa7c99969f7f216ea4d]
class MLCouplingBehaviorDefault--><rect fill="#FEFECE" filter="url(#fvfjjho7twxlg)" height="85.9468" id="MLCouplingBehaviorDefault" style="stroke: #000000; stroke-width: 1.5;" width="187" x="1749.5" y="495.4"/><ellipse cx="1764.5" cy="511.4" fill="#ADD1B2" rx="11" ry="11" style="stroke: #000000; stroke-width: 1.0;"/><path d="M1762.1563,511.2438 Q1762.1563,513.1188 1762.7344,514.1344 Q1763.3125,515.1344 1764.4688,515.1344 Q1765.8125,515.1344 1766.4688,513.1188 L1768.7344,513.5406 Q1767.625,517.0719 1764.4531,517.0719 Q1762.1094,517.0719 1760.8906,515.5875 Q1759.6719,514.1031 1759.6719,511.2438 Q1759.6719,505.525 1764.375,505.525 Q1765.9219,505.525 1766.9531,506.3375 Q1768,507.15 1768.5,508.7594 L1766.2344,509.3063 Q1766,508.4313 1765.5156,507.9469 Q1765.0313,507.4469 1764.4063,507.4469 Q1762.1563,507.4469 1762.1563,511.2438 Z "/><text fill="#000000" font-family="sans-serif" font-size="12" lengthAdjust="spacingAndGlyphs" textLength="155" x="1778.5" y="515.7564">MLCouplingBehaviorDefault</text><line style="stroke: #000000; stroke-width: 1.5;" x1="1750.5" x2="1935.5" y1="527.4" y2="527.4"/><line style="stroke: #000000; stroke-width: 1.5;" x1="1750.5" x2="1935.5" y1="535.4" y2="535.4"/><text fill="#000000" font-family="sans-serif" font-size="11" lengthAdjust="spacingAndGlyphs" textLength="167" x="1755.5" y="549.7179">+should_perform_inference(): bool</text><text fill="#000000" font-family="sans-serif" font-size="11" lengthAdjust="spacingAndGlyphs" textLength="107" x="1755.5" y="562.3668">+time_step_delta(): int</text><text fill="#000000" font-family="sans-serif" font-size="11" lengthAdjust="spacingAndGlyphs" textLength="129" x="1755.5" y="575.0157">+should_send_data(): bool</text><!--MD5=[1ad52a24b6e8672bdb7d3010e92aa71a]
class MLCouplingBehaviorPeriodic--><rect fill="#FEFECE" filter="url(#fvfjjho7twxlg)" height="149.1914" id="MLCouplingBehaviorPeriodic" style="stroke: #000000; stroke-width: 1.5;" width="193" x="1971.5" y="463.78"/><ellipse cx="1986.5" cy="479.78" fill="#ADD1B2" rx="11" ry="11" style="stroke: #000000; stroke-width: 1.0;"/><path d="M1984.1563,479.6238 Q1984.1563,481.4988 1984.7344,482.5144 Q1985.3125,483.5144 1986.4688,483.5144 Q1987.8125,483.5144 1988.4688,481.4988 L1990.7344,481.9206 Q1989.625,485.4519 1986.4531,485.4519 Q1984.1094,485.4519 1982.8906,483.9675 Q1981.6719,482.4831 1981.6719,479.6238 Q1981.6719,473.905 1986.375,473.905 Q1987.9219,473.905 1988.9531,474.7175 Q1990,475.53 1990.5,477.1394 L1988.2344,477.6863 Q1988,476.8113 1987.5156,476.3269 Q1987.0313,475.8269 1986.4063,475.8269 Q1984.1563,475.8269 1984.1563,479.6238 Z "/><text fill="#000000" font-family="sans-serif" font-size="12" lengthAdjust="spacingAndGlyphs" textLength="161" x="2000.5" y="484.1364">MLCouplingBehaviorPeriodic</text><line style="stroke: #000000; stroke-width: 1.5;" x1="1972.5" x2="2163.5" y1="495.78" y2="495.78"/><text fill="#000000" font-family="sans-serif" font-size="11" lengthAdjust="spacingAndGlyphs" textLength="107" x="1977.5" y="510.0979">-step_count: long long</text><text fill="#000000" font-family="sans-serif" font-size="11" lengthAdjust="spacingAndGlyphs" textLength="107" x="1977.5" y="522.7468">-inference_interval: int</text><text fill="#000000" font-family="sans-serif" font-size="11" lengthAdjust="spacingAndGlyphs" textLength="180" x="1977.5" y="535.3957">-coupled_steps_before_inference: int</text><text fill="#000000" font-family="sans-serif" font-size="11" lengthAdjust="spacingAndGlyphs" textLength="125" x="1977.5" y="548.0446">-coupled_steps_stride: int</text><text fill="#000000" font-family="sans-serif" font-size="11" lengthAdjust="spacingAndGlyphs" textLength="175" x="1977.5" y="560.6936">-step_increment_after_inference: int</text><line style="stroke: #000000; stroke-width: 1.5;" x1="1972.5" x2="2163.5" y1="567.0246" y2="567.0246"/><text fill="#000000" font-family="sans-serif" font-size="11" lengthAdjust="spacingAndGlyphs" textLength="167" x="1977.5" y="581.3425">+should_perform_inference(): bool</text><text fill="#000000" font-family="sans-serif" font-size="11" lengthAdjust="spacingAndGlyphs" textLength="107" x="1977.5" y="593.9914">+time_step_delta(): int</text><text fill="#000000" font-family="sans-serif" font-size="11" lengthAdjust="spacingAndGlyphs" textLength="129" x="1977.5" y="606.6404">+should_send_data(): bool</text><!--MD5=[7074944c2ab3aac83cd978942c4df225]
class MLCouplingProviderPhydll<In,Out>--><rect fill="#FEFECE" filter="url(#fvfjjho7twxlg)" height="73.2979" id="MLCouplingProviderPhydll&lt;In,Out&gt;" style="stroke: #000000; stroke-width: 1.5;" width="288" x="6" y="501.72"/><ellipse cx="49.35" cy="517.72" fill="#ADD1B2" rx="11" ry="11" style="stroke: #000000; stroke-width: 1.0;"/><path d="M47.0063,517.5638 Q47.0063,519.4388 47.5844,520.4544 Q48.1625,521.4544 49.3188,521.4544 Q50.6625,521.4544 51.3188,519.4388 L53.5844,519.8606 Q52.475,523.3919 49.3031,523.3919 Q46.9594,523.3919 45.7406,521.9075 Q44.5219,520.4231 44.5219,517.5638 Q44.5219,511.845 49.225,511.845 Q50.7719,511.845 51.8031,512.6575 Q52.85,513.47 53.35,515.0794 L51.0844,515.6263 Q50.85,514.7513 50.3656,514.2669 Q49.8813,513.7669 49.2563,513.7669 Q47.0063,513.7669 47.0063,517.5638 Z "/><text fill="#000000" font-family="sans-serif" font-size="12" lengthAdjust="spacingAndGlyphs" textLength="193" x="69.65" y="522.0764">MLCouplingProviderPhydll&lt;In,Out&gt;</text><line style="stroke: #000000; stroke-width: 1.5;" x1="7" x2="293" y1="533.72" y2="533.72"/><line style="stroke: #000000; stroke-width: 1.5;" x1="7" x2="293" y1="541.72" y2="541.72"/><text fill="#000000" font-family="sans-serif" font-size="11" lengthAdjust="spacingAndGlyphs" textLength="166" x="12" y="556.0379">+send_data(MLCouplingData&lt;In&gt;)</text><text fill="#000000" font-family="sans-serif" font-size="11" lengthAdjust="spacingAndGlyphs" textLength="276" x="12" y="568.6868">+inference(MLCouplingData&lt;In&gt;): MLCouplingData&lt;Out&gt;</text><!--MD5=[8607bbea39033dadd3415aaeaff18542]
class MLCouplingProviderAixelerate<In,Out>--><rect fill="#FEFECE" filter="url(#fvfjjho7twxlg)" height="73.2979" id="MLCouplingProviderAixelerate&lt;In,Out&gt;" style="stroke: #000000; stroke-width: 1.5;" width="288" x="329" y="501.72"/><ellipse cx="362.9" cy="517.72" fill="#ADD1B2" rx="11" ry="11" style="stroke: #000000; stroke-width: 1.0;"/><path d="M360.5563,517.5638 Q360.5563,519.4388 361.1344,520.4544 Q361.7125,521.4544 362.8688,521.4544 Q364.2125,521.4544 364.8688,519.4388 L367.1344,519.8606 Q366.025,523.3919 362.8531,523.3919 Q360.5094,523.3919 359.2906,521.9075 Q358.0719,520.4231 358.0719,517.5638 Q358.0719,511.845 362.775,511.845 Q364.3219,511.845 365.3531,512.6575 Q366.4,513.47 366.9,515.0794 L364.6344,515.6263 Q364.4,514.7513 363.9156,514.2669 Q363.4313,513.7669 362.8063,513.7669 Q360.5563,513.7669 360.5563,517.5638 Z "/><text fill="#000000" font-family="sans-serif" font-size="12" lengthAdjust="spacingAndGlyphs" textLength="214" x="381.1" y="522.0764">MLCouplingProviderAixelerate&lt;In,Out&gt;</text><line style="stroke: #000000; stroke-width: 1.5;" x1="330" x2="616" y1="533.72" y2="533.72"/><line style="stroke: #000000; stroke-width: 1.5;" x1="330" x2="616" y1="541.72" y2="541.72"/><text fill="#000000" font-family="sans-serif" font-size="11" lengthAdjust="spacingAndGlyphs" textLength="166" x="335" y="556.0379">+send_data(MLCouplingData&lt;In&gt;)</text><text fill="#000000" font-family="sans-serif" font-size="11" lengthAdjust="spacingAndGlyphs" textLength="276" x="335" y="568.6868">+inference(MLCouplingData&lt;In&gt;): MLCouplingData&lt;Out&gt;</text><!--MD5=[c3379b928cd3c8484581ec34c761cdd7]
class MLCouplingProviderSmartsim<In,Out>--><rect fill="#FEFECE" filter="url(#fvfjjho7twxlg)" height="85.9468" id="MLCouplingProviderSmartsim&lt;In,Out&gt;" style="stroke: #000000; stroke-width: 1.5;" width="303" x="651.5" y="495.4"/><ellipse cx="693.95" cy="511.4" fill="#ADD1B2" rx="11" ry="11" style="stroke: #000000; stroke-width: 1.0;"/><path d="M691.6063,511.2438 Q691.6063,513.1188 692.1844,514.1344 Q692.7625,515.1344 693.9188,515.1344 Q695.2625,515.1344 695.9188,513.1188 L698.1844,513.5406 Q697.075,517.0719 693.9031,517.0719 Q691.5594,517.0719 690.3406,515.5875 Q689.1219,514.1031 689.1219,511.2438 Q689.1219,505.525 693.825,505.525 Q695.3719,505.525 696.4031,506.3375 Q697.45,507.15 697.95,508.7594 L695.6844,509.3063 Q695.45,508.4313 694.9656,507.9469 Q694.4813,507.4469 693.8563,507.4469 Q691.6063,507.4469 691.6063,511.2438 Z "/><text fill="#000000" font-family="sans-serif" font-size="12" lengthAdjust="spacingAndGlyphs" textLength="210" x="714.05" y="515.7564">MLCouplingProviderSmartsim&lt;In,Out&gt;</text><line style="stroke: #000000; stroke-width: 1.5;" x1="652.5" x2="953.5" y1="527.4" y2="527.4"/><line style="stroke: #000000; stroke-width: 1.5;" x1="652.5" x2="953.5" y1="535.4" y2="535.4"/><text fill="#000000" font-family="sans-serif" font-size="11" lengthAdjust="spacingAndGlyphs" textLength="291" x="657.5" y="549.7179">+MLCouplingProviderSmartsim(std::string, int, int, int, int, int)</text><text fill="#000000" font-family="sans-serif" font-size="11" lengthAdjust="spacingAndGlyphs" textLength="166" x="657.5" y="562.3668">+send_data(MLCouplingData&lt;In&gt;)</text><text fill="#000000" font-family="sans-serif" font-size="11" lengthAdjust="spacingAndGlyphs" textLength="276" x="657.5" y="575.0157">+inference(MLCouplingData&lt;In&gt;): MLCouplingData&lt;Out&gt;</text><!--MD5=[1fd91dcbf383aedd2f1e4b0e3de37ea0]
link MLCoupling<In,Out> to MLCouplingProvider<In,Out>--><path d="M1076.77,143.44 C995.18,175.43 899.13,213.1 824.69,242.29 " fill="none" id="MLCoupling&lt;In,Out&gt;-MLCouplingProvider&lt;In,Out&gt;" style="stroke: #000000; stroke-width: 1.0;"/><line style="stroke: #000000; stroke-width: 1.0;" x1="823.695" x2="820.7718" y1="246.9818" y2="239.535"/><line style="stroke: #000000; stroke-width: 1.0;" x1="826.4876" x2="823.5644" y1="245.8856" y2="238.4388"/><line style="stroke: #000000; stroke-width: 1.0;" x1="825.9568" x2="818.51" y1="241.7968" y2="244.72"/><line style="stroke: #000000; stroke-width: 1.0;" x1="1078.025" x2="1080.9482" y1="138.6482" y2="146.095"/><line style="stroke: #000000; stroke-width: 1.0;" x1="1075.2324" x2="1078.1556" y1="139.7444" y2="147.1912"/><line style="stroke: #000000; stroke-width: 1.0;" x1="1075.7632" x2="1083.21" y1="143.8332" y2="140.91"/><text fill="#000000" font-family="sans-serif" font-size="13" lengthAdjust="spacingAndGlyphs" textLength="30" x="992" y="187.5338">owns</text><text fill="#000000" font-family="sans-serif" font-size="13" lengthAdjust="spacingAndGlyphs" textLength="7" x="1070.1489" y="141.1712">1</text><text fill="#000000" font-family="sans-serif" font-size="13" lengthAdjust="spacingAndGlyphs" textLength="7" x="828.5838" y="234.7407">1</text><!--MD5=[295b831e619ddb9550140844d5637beb]
link MLCoupling<In,Out> to MLCouplingApplication<In,Out>--><path d="M1246,152.85 C1246,171.91 1246,192.41 1246,211.61 " fill="none" id="MLCoupling&lt;In,Out&gt;-MLCouplingApplication&lt;In,Out&gt;" style="stroke: #000000; stroke-width: 1.0;"/><line style="stroke: #000000; stroke-width: 1.0;" x1="1250" x2="1242" y1="214.52" y2="214.52"/><line style="stroke: #000000; stroke-width: 1.0;" x1="1250" x2="1242" y1="211.52" y2="211.52"/><line style="stroke: #000000; stroke-width: 1.0;" x1="1246" x2="1246" y1="210.52" y2="218.52"/><line style="stroke: #000000; stroke-width: 1.0;" x1="1242" x2="1250" y1="150.08" y2="150.08"/><line style="stroke: #000000; stroke-width: 1.0;" x1="1242" x2="1250" y1="153.08" y2="153.08"/><line style="stroke: #000000; stroke-width: 1.0;" x1="1246" x2="1246" y1="154.08" y2="146.08"/><text fill="#000000" font-family="sans-serif" font-size="13" lengthAdjust="spacingAndGlyphs" textLength="30" x="1247" y="187.5338">owns</text><text fill="#000000" font-family="sans-serif" font-size="13" lengthAdjust="spacingAndGlyphs" textLength="7" x="1238.6391" y="164.5986">1</text><text fill="#000000" font-family="sans-serif" font-size="13" lengthAdjust="spacingAndGlyphs" textLength="7" x="1238.6172" y="209.714">1</text><!--MD5=[0db71367c1a681db51e43fb06fd0011e]
link MLCoupling<In,Out> to MLCouplingBehavior--><path d="M1416.01,137.82 C1522.18,175.76 1655.15,223.28 1744.25,255.12 " fill="none" id="MLCoupling&lt;In,Out&gt;-MLCouplingBehavior" style="stroke: #000000; stroke-width: 1.0;"/><line style="stroke: #000000; stroke-width: 1.0;" x1="1741.2257" x2="1751.58" y1="254.0266" y2="257.74"/><ellipse cx="1741.2257" cy="254.0266" fill="none" rx="4" ry="4" style="stroke: #000000; stroke-width: 1.0;"/><line style="stroke: #000000; stroke-width: 1.0;" x1="1749.1651" x2="1746.4645" y1="252.6245" y2="260.1549"/><line style="stroke: #000000; stroke-width: 1.0;" x1="1411.0135" x2="1413.7014" y1="140.2814" y2="132.7465"/><line style="stroke: #000000; stroke-width: 1.0;" x1="1413.8391" x2="1416.527" y1="141.2894" y2="133.7545"/><line style="stroke: #000000; stroke-width: 1.0;" x1="1416.1249" x2="1408.59" y1="137.858" y2="135.17"/><text fill="#000000" font-family="sans-serif" font-size="13" lengthAdjust="spacingAndGlyphs" textLength="30" x="1564" y="187.5338">owns</text><text fill="#000000" font-family="sans-serif" font-size="13" lengthAdjust="spacingAndGlyphs" textLength="7" x="1415.1357" y="135.3757">1</text><text fill="#000000" font-family="sans-serif" font-size="13" lengthAdjust="spacingAndGlyphs" textLength="22" x="1723.5828" y="253.5293">0..1</text><!--MD5=[7b9297ed4e2a7a6b5f90a6f15c97368a]
link MLCouplingApplication<In,Out> to MLCouplingDataProcessor<In,Out>--><path d="M1332.96,368.49 C1356.2,388.82 1381.73,411.15 1406.39,432.73 " fill="none" id="MLCouplingApplication&lt;In,Out&gt;-MLCouplingDataProcessor&lt;In,Out&gt;" style="stroke: #000000; stroke-width: 1.0;"/><line style="stroke: #000000; stroke-width: 1.0;" x1="1411.1248" x2="1405.8556" y1="431.5556" y2="437.5752"/><line style="stroke: #000000; stroke-width: 1.0;" x1="1408.8674" x2="1403.5983" y1="429.5797" y2="435.5993"/><line style="stroke: #000000; stroke-width: 1.0;" x1="1405.4804" x2="1411.5" y1="431.9308" y2="437.2"/><line style="stroke: #000000; stroke-width: 1.0;" x1="1328.1263" x2="1333.3943" y1="369.5743" y2="363.5537"/><line style="stroke: #000000; stroke-width: 1.0;" x1="1330.384" x2="1335.6521" y1="371.5498" y2="365.5292"/><line style="stroke: #000000; stroke-width: 1.0;" x1="1333.7706" x2="1327.75" y1="369.198" y2="363.93"/><text fill="#000000" font-family="sans-serif" font-size="13" lengthAdjust="spacingAndGlyphs" textLength="30" x="1379" y="405.6738">owns</text><text fill="#000000" font-family="sans-serif" font-size="13" lengthAdjust="spacingAndGlyphs" textLength="7" x="1326.9595" y="382.653">1</text><text fill="#000000" font-family="sans-serif" font-size="13" lengthAdjust="spacingAndGlyphs" textLength="7" x="1396.3277" y="427.8913">1</text><!--MD5=[8c542636dc8d8f2d0d67fa52e25ac382]
link MLCouplingDataProcessor<In,Out> to MLCouplingNormalization<In,Out>--><path d="M1409.64,644.94 C1381.52,670.46 1352.94,696.39 1329.79,717.39 " fill="none" id="MLCouplingDataProcessor&lt;In,Out&gt;-MLCouplingNormalization&lt;In,Out&gt;" style="stroke: #000000; stroke-width: 1.0;"/><line style="stroke: #000000; stroke-width: 1.0;" x1="1332.0529" x2="1323.91" y1="715.3345" y2="722.73"/><ellipse cx="1332.0529" cy="715.3345" fill="none" rx="4" ry="4" style="stroke: #000000; stroke-width: 1.0;"/><line style="stroke: #000000; stroke-width: 1.0;" x1="1329.5603" x2="1324.1818" y1="723.0018" y2="717.0797"/><line style="stroke: #000000; stroke-width: 1.0;" x1="1409.8997" x2="1415.2782" y1="639.3082" y2="645.2303"/><line style="stroke: #000000; stroke-width: 1.0;" x1="1407.6789" x2="1413.0574" y1="641.3252" y2="647.2473"/><line style="stroke: #000000; stroke-width: 1.0;" x1="1409.6279" x2="1415.55" y1="644.9585" y2="639.58"/><text fill="#000000" font-family="sans-serif" font-size="13" lengthAdjust="spacingAndGlyphs" textLength="30" x="1382" y="681.4638">owns</text><text fill="#000000" font-family="sans-serif" font-size="13" lengthAdjust="spacingAndGlyphs" textLength="7" x="1401.7366" y="658.3345">1</text><text fill="#000000" font-family="sans-serif" font-size="13" lengthAdjust="spacingAndGlyphs" textLength="22" x="1306.6513" y="713.3874">0..1</text><!--MD5=[de17429b82dfa94af5a6f071e6277d4c]
link MLCouplingDataProcessor<In,Out> to MLCouplingData<T>--><path d="M1578.4272,650.7942 C1578.4272,650.7942 1594.77,685.55 1602.02,700.96 " fill="none" id="MLCouplingDataProcessor&lt;In,Out&gt;-MLCouplingData&lt;T&gt;" style="stroke: #000000; stroke-width: 1.0;"/><line style="stroke: #000000; stroke-width: 1.0;" x1="1609.4448" x2="1602.2071" y1="707.3571" y2="710.7652"/><line style="stroke: #000000; stroke-width: 1.0;" x1="1608.1668" x2="1600.9291" y1="704.6429" y2="708.051"/><line style="stroke: #000000; stroke-width: 1.0;" x1="1604.1219" x2="1607.53" y1="705.4422" y2="712.68"/><polygon fill="#FFFFFF" points="1573.31,639.94,1572.2505,647.0728,1578.4272,650.7942,1579.4867,643.6614,1573.31,639.94" style="stroke: #000000; stroke-width: 1.0;"/><text fill="#000000" font-family="sans-serif" font-size="13" lengthAdjust="spacingAndGlyphs" textLength="28" x="1596" y="681.4638">uses</text><text fill="#000000" font-family="sans-serif" font-size="13" lengthAdjust="spacingAndGlyphs" textLength="7" x="1568.7054" y="658.3345">1</text><text fill="#000000" font-family="sans-serif" font-size="13" lengthAdjust="spacingAndGlyphs" textLength="7" x="1597.1498" y="703.6622">4</text><!--MD5=[f4e824b13bafebbbd0227c49e3c2ac6d]
reverse link MLCouplingNormalization<In,Out> to MLCouplingMinMaxNormalization<In,Out>--><path d="M1280,824.73 C1280,840.12 1280,857.03 1280,873.64 " fill="none" id="MLCouplingNormalization&lt;In,Out&gt;&lt;-MLCouplingMinMaxNormalization&lt;In,Out&gt;" style="stroke: #000000; stroke-width: 1.0;"/><polygon fill="none" points="1273,825,1280,805,1287,825,1273,825" style="stroke: #000000; stroke-width: 1.0;"/><!--MD5=[c579de39c61fe3f98a3d4912dbb11bab]
reverse link MLCouplingApplication<In,Out> to MLCouplingApplicationTurbulenceClosure<In,Out>--><path d="M1209.24,382.45 C1197.44,411.36 1184.58,442.86 1173.56,469.87 " fill="none" id="MLCouplingApplication&lt;In,Out&gt;&lt;-MLCouplingApplicationTurbulenceClosure&lt;In,Out&gt;" style="stroke: #000000; stroke-width: 1.0;"/><polygon fill="none" points="1202.6,380.21,1216.64,364.34,1215.56,385.5,1202.6,380.21" style="stroke: #000000; stroke-width: 1.0;"/><!--MD5=[e3c6df0024f4e001d3dbc4060b2b7e2b]
reverse link MLCouplingBehavior to MLCouplingBehaviorDefault--><path d="M1843,359.09 C1843,402.53 1843,457.87 1843,495.28 " fill="none" id="MLCouplingBehavior&lt;-MLCouplingBehaviorDefault" style="stroke: #000000; stroke-width: 1.0;"/><polygon fill="none" points="1836,359.14,1843,339.14,1850,359.14,1836,359.14" style="stroke: #000000; stroke-width: 1.0;"/><!--MD5=[e9b84672a41d93ca8993bc20b03ec48b]
reverse link MLCouplingBehavior to MLCouplingBehaviorPeriodic--><path d="M1898.92,353.29 C1929.59,386.68 1967.84,428.33 2000.2,463.56 " fill="none" id="MLCouplingBehavior&lt;-MLCouplingBehaviorPeriodic" style="stroke: #000000; stroke-width: 1.0;"/><polygon fill="none" points="1893.93,358.2,1885.55,338.74,1904.24,348.73,1893.93,358.2" style="stroke: #000000; stroke-width: 1.0;"/><!--MD5=[ab33557bf1fed1f0338cee95bd2d126f]
reverse link MLCouplingProvider<In,Out> to MLCouplingProviderPhydll<In,Out>--><path d="M541.39,344.52 C469.56,369.82 384.66,402.52 311,438.48 C273.56,456.76 233.65,481.24 202.93,501.27 " fill="none" id="MLCouplingProvider&lt;In,Out&gt;&lt;-MLCouplingProviderPhydll&lt;In,Out&gt;" style="stroke: #000000; stroke-width: 1.0;"/><polygon fill="none" points="538.67,338.05,559.86,338.08,543.27,351.27,538.67,338.05" style="stroke: #000000; stroke-width: 1.0;"/><!--MD5=[b419ec6e50e8b21fa3170c8b0acee3b6]
reverse link MLCouplingProvider<In,Out> to MLCouplingProviderAixelerate<In,Out>--><path d="M645.28,353.08 C601.66,399.75 542.86,462.64 506.47,501.57 " fill="none" id="MLCouplingProvider&lt;In,Out&gt;&lt;-MLCouplingProviderAixelerate&lt;In,Out&gt;" style="stroke: #000000; stroke-width: 1.0;"/><polygon fill="none" points="639.93,348.56,658.7,338.73,650.15,358.12,639.93,348.56" style="stroke: #000000; stroke-width: 1.0;"/><!--MD5=[0a60636bc2f5c6a9accdd88e8836e263]
reverse link MLCouplingProvider<In,Out> to MLCouplingProviderSmartsim<In,Out>--><path d="M728.76,357.31 C746.77,401 770.01,457.36 785.65,495.28 " fill="none" id="MLCouplingProvider&lt;In,Out&gt;&lt;-MLCouplingProviderSmartsim&lt;In,Out&gt;" style="stroke: #000000; stroke-width: 1.0;"/><polygon fill="none" points="722.37,360.18,721.22,339.02,735.31,354.85,722.37,360.18" style="stroke: #000000; stroke-width: 1.0;"/><!--MD5=[23b70e060bf49515cdeae1078c780bdb]
@startuml CPP_NEW_ML_Interface

top to bottom direction
skinparam classAttributeIconSize 0
skinparam backgroundColor #FFFFFF
skinparam class {
    BackgroundColor<<abstract>> LightYellow
    BorderColor Black
    ArrowColor Black
}


class "MLCoupling<In,Out>" {
    - provider: std::unique_ptr<MLCouplingProvider<In,Out>>
    - application: std::unique_ptr<MLCouplingApplication<In,Out>>
    - behavior: std::unique_ptr<MLCouplingBehavior>
    + MLCoupling(MLCouplingProvider<In,Out>*,
                 MLCouplingApplication<In,Out>*, MLCouplingBehavior* = nullptr)
    + ~MLCoupling()
    + ml_step()
}

class "MLCouplingProvider<In,Out>" <<abstract>> {
    + MLCouplingProvider()
    + send_data(MLCouplingData<In>)
    + inference(MLCouplingData<In>): MLCouplingData<Out>
}

class "MLCouplingApplication<In,Out>" <<abstract>> {
    + MLCouplingApplication(std::unique_ptr<MLCouplingDataProcessor<In,Out>> data_processor)
    # data_processor: std::unique_ptr<MLCouplingDataProcessor<In,Out>>
    + step(bool, bool)
    # preprocess(MLCouplingData<In>): MLCouplingData<In>
    # coupling_step(MLCouplingData<In>)
    # ml_step(MLCouplingData<In>): MLCouplingData<Out>
    # postprocess(MLCouplingData<Out>): MLCouplingData<Out>
}

class "MLCouplingNormalization<In,Out>" <<abstract>> {
    + normalize_input(MLCouplingData<In>)
    + denormalize_output(MLCouplingData<Out>)
}

class "MLCouplingMinMaxNormalization<In,Out>" {
    - input_min: In
    - input_max: In
    - output_min: Out
    - output_max: Out
    + MLCouplingMinMaxNormalization(In, In, Out, Out)
    + MLCouplingMinMaxNormalization(In*, int, Out*, int)
    + MLCouplingMinMaxNormalization(MLCouplingData<In>, MLCouplingData<Out>)
    + normalize_input(In*, int)
    + normalize_input(MLCouplingData<In>)
    + denormalize_output(Out*, int)
    + denormalize_output(MLCouplingData<Out>)
}

class "MLCouplingApplicationTurbulenceClosure<In,Out>" {
    + preprocess(MLCouplingData<In>): MLCouplingData<In>
    + postprocess(MLCouplingData<Out>): MLCouplingData<Out>
    + coupling_step(MLCouplingData<In>)
    + ml_step(MLCouplingData<In>): MLCouplingData<Out>
    - uniform_filtering()
    - downsampling()
    - compute_tau_ij()
}

class "MLCouplingDataProcessor<In,Out>" {
    + input_data: MLCouplingData<In>
    + input_data_after_preprocessing: MLCouplingData<In>
    + output_data_before_postprocessing: MLCouplingData<Out>
    + output_data: MLCouplingData<Out>
    + MLCouplingDataProcessor(std::vector<In*>, std::vector<std::vector<int>>,
                              std::vector<Out*>, std::vector<std::vector<int>>,
                              MLCouplingNormalization<In,Out>*)
    + MLCouplingDataProcessor(MLCouplingData<In>, MLCouplingData<Out>,
                              MLCouplingNormalization<In,Out>*)
    # normalize_input(In&)
    # denormalize_output(Out&)
    - normalization: std::unique_ptr<MLCouplingNormalization<In,Out>>
}

class "MLCouplingData<T>" {
    + data: std::vector<T*>
    + data_dimensions: std::vector<std::vector<int>>
    + MLCouplingData(const std::vector<T*>&, const std::vector<std::vector<int>>&)
    + MLCouplingData()
}

class "MLCouplingBehavior" <<abstract>> {
    + should_perform_inference(): bool
    + time_step_delta(): int
    + should_send_data(): bool
}

class "MLCouplingBehaviorDefault" {
    + should_perform_inference(): bool
    + time_step_delta(): int
    + should_send_data(): bool
}

class "MLCouplingBehaviorPeriodic" {
    - step_count: long long
    - inference_interval: int
    - coupled_steps_before_inference: int
    - coupled_steps_stride: int
    - step_increment_after_inference: int
    + should_perform_inference(): bool
    + time_step_delta(): int
    + should_send_data(): bool
}

class "MLCouplingProviderPhydll<In,Out>" {
    + send_data(MLCouplingData<In>)
    + inference(MLCouplingData<In>): MLCouplingData<Out>
}

class "MLCouplingProviderAixelerate<In,Out>" {
    + send_data(MLCouplingData<In>)
    + inference(MLCouplingData<In>): MLCouplingData<Out>
}

class "MLCouplingProviderSmartsim<In,Out>" {
    + MLCouplingProviderSmartsim(std::string, int, int, int, int, int)
    + send_data(MLCouplingData<In>)
    + inference(MLCouplingData<In>): MLCouplingData<Out>
}

"MLCoupling<In,Out>" "1" ||- -|| "1" "MLCouplingProvider<In,Out>" : owns
"MLCoupling<In,Out>" "1" ||- -|| "1" "MLCouplingApplication<In,Out>" : owns
"MLCoupling<In,Out>" "1" ||- -o| "0..1" "MLCouplingBehavior" : owns
"MLCouplingApplication<In,Out>" "1" ||- -|| "1" "MLCouplingDataProcessor<In,Out>" : owns
"MLCouplingDataProcessor<In,Out>" "1" ||- -o| "0..1" "MLCouplingNormalization<In,Out>" : owns
"MLCouplingDataProcessor<In,Out>" "1" o- -|| "4" "MLCouplingData<T>" : uses
"MLCouplingNormalization<In,Out>" <|- - "MLCouplingMinMaxNormalization<In,Out>"

"MLCouplingApplication<In,Out>" <|- - "MLCouplingApplicationTurbulenceClosure<In,Out>"
"MLCouplingBehavior" <|- - "MLCouplingBehaviorDefault"
"MLCouplingBehavior" <|- - "MLCouplingBehaviorPeriodic"

"MLCouplingProvider<In,Out>" <|- - "MLCouplingProviderPhydll<In,Out>"
"MLCouplingProvider<In,Out>" <|- - "MLCouplingProviderAixelerate<In,Out>"
"MLCouplingProvider<In,Out>" <|- - "MLCouplingProviderSmartsim<In,Out>"

@enduml

PlantUML version 1.2020.02(Sun Mar 01 11:22:07 CET 2020)
(GPL source distribution)
Java Runtime: OpenJDK Runtime Environment
JVM: OpenJDK 64-Bit Server VM
Java Version: 21.0.9+10-Ubuntu-124.04
Operating System: Linux
Default Encoding: UTF-8
Language: de
Country: DE
--></g></svg>