<?xml version="1.0" encoding="UTF-8" standalone="no"?><svg xmlns="http://www.w3.org/2000/svg" xmlns:xlink="http://www.w3.org/1999/xlink" contentScriptType="application/ecmascript" contentStyleType="text/css" height="1027px" preserveAspectRatio="none" style="width:2008px;height:1027px;" version="1.1" viewBox="0 0 2008 1027" width="2008px" zoomAndPan="magnify"><defs><filter height="300%" id="f1pwk52m8y69nl" width="300%" x="-1" y="-1"><feGaussianBlur result="blurOut" stdDeviation="2.0"/><feColorMatrix in="blurOut" result="blurOut2" type="matrix" values="0 0 0 0 0 0 0 0 0 0 0 0 0 0 0 0 0 0 .4 0"/><feOffset dx="4.0" dy="4.0" in="blurOut2" result="blurOut3"/><feBlend in="SourceGraphic" in2="blurOut3" mode="normal"/></filter></defs><g><!--MD5=[f500096b95d7d9013cb48b5434f24db3]
class MLCoupling<In,Out>--><rect fill="#FEFECE" filter="url(#f1pwk52m8y69nl)" height="136.5425" id="MLCoupling&lt;In,Out&gt;" style="stroke: #000000; stroke-width: 1.5;" width="365" x="880" y="7.79"/><ellipse cx="1001.75" cy="23.79" fill="#ADD1B2" rx="11" ry="11" style="stroke: #000000; stroke-width: 1.0;"/><path d="M999.4063,23.6337 Q999.4063,25.5087 999.9844,26.5244 Q1000.5625,27.5244 1001.7188,27.5244 Q1003.0625,27.5244 1003.7188,25.5087 L1005.9844,25.9306 Q1004.875,29.4619 1001.7031,29.4619 Q999.3594,29.4619 998.1406,27.9775 Q996.9219,26.4931 996.9219,23.6337 Q996.9219,17.915 1001.625,17.915 Q1003.1719,17.915 1004.2031,18.7275 Q1005.25,19.54 1005.75,21.1494 L1003.4844,21.6962 Q1003.25,20.8212 1002.7656,20.3369 Q1002.2813,19.8369 1001.6563,19.8369 Q999.4063,19.8369 999.4063,23.6337 Z "/><text fill="#000000" font-family="sans-serif" font-size="12" lengthAdjust="spacingAndGlyphs" textLength="113" x="1022.25" y="28.1464">MLCoupling&lt;In,Out&gt;</text><line style="stroke: #000000; stroke-width: 1.5;" x1="881" x2="1244" y1="39.79" y2="39.79"/><text fill="#000000" font-family="sans-serif" font-size="11" lengthAdjust="spacingAndGlyphs" textLength="274" x="886" y="54.1079">-provider: std::unique_ptr&lt;MLCouplingProvider&lt;In,Out&gt;&gt;</text><text fill="#000000" font-family="sans-serif" font-size="11" lengthAdjust="spacingAndGlyphs" textLength="296" x="886" y="66.7568">-application: std::unique_ptr&lt;MLCouplingApplication&lt;In,Out&gt;&gt;</text><text fill="#000000" font-family="sans-serif" font-size="11" lengthAdjust="spacingAndGlyphs" textLength="278" x="886" y="79.4057">-behavior: std::unique_ptr&lt;MLCouplingBehavior&lt;In,Out&gt;&gt;</text><line style="stroke: #000000; stroke-width: 1.5;" x1="881" x2="1244" y1="85.7368" y2="85.7368"/><text fill="#000000" font-family="sans-serif" font-size="11" lengthAdjust="spacingAndGlyphs" textLength="353" x="886" y="100.0546">+init(MLCouplingDataProcessor&lt;In,Out&gt;*, MLCouplingProvider&lt;In,Out&gt;*,</text><text fill="#000000" font-family="sans-serif" font-size="11" lengthAdjust="spacingAndGlyphs" textLength="352" x="886" y="112.7036">MLCouplingApplication&lt;In,Out&gt;*, MLCouplingBehavior&lt;In,Out&gt;* = nullptr)</text><text fill="#000000" font-family="sans-serif" font-size="11" lengthAdjust="spacingAndGlyphs" textLength="87" x="886" y="125.3525">+infer_ml_model()</text><text fill="#000000" font-family="sans-serif" font-size="11" lengthAdjust="spacingAndGlyphs" textLength="47" x="886" y="138.0014">+finalize()</text><!--MD5=[0624b538302a5a462d2624a255cce169]
class MLCouplingProvider<In,Out>--><rect fill="#FFFFE0" filter="url(#f1pwk52m8y69nl)" height="104.1934" id="MLCouplingProvider&lt;In,Out&gt;" style="stroke: #000000; stroke-width: 1.5;" width="191" x="489" y="264.61"/><ellipse cx="504" cy="283.4088" fill="#ADD1B2" rx="11" ry="11" style="stroke: #000000; stroke-width: 1.0;"/><path d="M501.6563,283.2526 Q501.6563,285.1276 502.2344,286.1432 Q502.8125,287.1432 503.9688,287.1432 Q505.3125,287.1432 505.9688,285.1276 L508.2344,285.5495 Q507.125,289.0807 503.9531,289.0807 Q501.6094,289.0807 500.3906,287.5963 Q499.1719,286.112 499.1719,283.2526 Q499.1719,277.5338 503.875,277.5338 Q505.4219,277.5338 506.4531,278.3463 Q507.5,279.1588 508,280.7682 L505.7344,281.3151 Q505.5,280.4401 505.0156,279.9557 Q504.5313,279.4557 503.9063,279.4557 Q501.6563,279.4557 501.6563,283.2526 Z "/><text fill="#000000" font-family="sans-serif" font-size="12" font-style="italic" lengthAdjust="spacingAndGlyphs" textLength="57" x="569" y="280.8659">«abstract»</text><text fill="#000000" font-family="sans-serif" font-size="12" lengthAdjust="spacingAndGlyphs" textLength="159" x="518" y="294.6647">MLCouplingProvider&lt;In,Out&gt;</text><line style="stroke: #000000; stroke-width: 1.5;" x1="490" x2="679" y1="302.2077" y2="302.2077"/><line style="stroke: #000000; stroke-width: 1.5;" x1="490" x2="679" y1="310.2077" y2="310.2077"/><text fill="#000000" font-family="sans-serif" font-size="11" lengthAdjust="spacingAndGlyphs" textLength="118" x="495" y="324.5255">+~MLCouplingProvider()</text><text fill="#000000" font-family="sans-serif" font-size="11" lengthAdjust="spacingAndGlyphs" textLength="27" x="495" y="337.1745">+init()</text><text fill="#000000" font-family="sans-serif" font-size="11" lengthAdjust="spacingAndGlyphs" textLength="59" x="495" y="349.8234">+inference()</text><text fill="#000000" font-family="sans-serif" font-size="11" lengthAdjust="spacingAndGlyphs" textLength="47" x="495" y="362.4723">+finalize()</text><!--MD5=[9734458d82faec336be428a63de85fff]
class MLCouplingApplication<In,Out>--><rect fill="#FFFFE0" filter="url(#f1pwk52m8y69nl)" height="192.7358" id="MLCouplingApplication&lt;In,Out&gt;" style="stroke: #000000; stroke-width: 1.5;" width="472" x="826.5" y="220.34"/><ellipse cx="971.25" cy="239.1388" fill="#ADD1B2" rx="11" ry="11" style="stroke: #000000; stroke-width: 1.0;"/><path d="M968.9063,238.9826 Q968.9063,240.8576 969.4844,241.8732 Q970.0625,242.8732 971.2188,242.8732 Q972.5625,242.8732 973.2188,240.8576 L975.4844,241.2795 Q974.375,244.8107 971.2031,244.8107 Q968.8594,244.8107 967.6406,243.3263 Q966.4219,241.842 966.4219,238.9826 Q966.4219,233.2638 971.125,233.2638 Q972.6719,233.2638 973.7031,234.0763 Q974.75,234.8888 975.25,236.4982 L972.9844,237.0451 Q972.75,236.1701 972.2656,235.6857 Q971.7813,235.1857 971.1563,235.1857 Q968.9063,235.1857 968.9063,238.9826 Z "/><text fill="#000000" font-family="sans-serif" font-size="12" font-style="italic" lengthAdjust="spacingAndGlyphs" textLength="57" x="1050.25" y="236.5959">«abstract»</text><text fill="#000000" font-family="sans-serif" font-size="12" lengthAdjust="spacingAndGlyphs" textLength="174" x="991.75" y="250.3947">MLCouplingApplication&lt;In,Out&gt;</text><line style="stroke: #000000; stroke-width: 1.5;" x1="827.5" x2="1297.5" y1="257.9377" y2="257.9377"/><text fill="#000000" font-family="sans-serif" font-size="11" lengthAdjust="spacingAndGlyphs" textLength="344" x="832.5" y="272.2555">-data_processor: std::unique_ptr&lt;MLCouplingDataProcessor&lt;In,Out&gt;&gt;</text><line style="stroke: #000000; stroke-width: 1.5;" x1="827.5" x2="1297.5" y1="278.5866" y2="278.5866"/><text fill="#000000" font-family="sans-serif" font-size="11" lengthAdjust="spacingAndGlyphs" textLength="460" x="832.5" y="292.9045">+MLCouplingApplication(std::unique_ptr&lt;MLCouplingDataProcessor&lt;In,Out&gt;&gt; data_processor)</text><text fill="#000000" font-family="sans-serif" font-size="11" lengthAdjust="spacingAndGlyphs" textLength="129" x="832.5" y="305.5534">+~MLCouplingApplication()</text><text fill="#000000" font-family="sans-serif" font-size="11" lengthAdjust="spacingAndGlyphs" textLength="27" x="832.5" y="318.2023">+init()</text><text fill="#000000" font-family="sans-serif" font-size="11" lengthAdjust="spacingAndGlyphs" textLength="47" x="832.5" y="330.8512">+finalize()</text><text fill="#000000" font-family="sans-serif" font-size="11" lengthAdjust="spacingAndGlyphs" textLength="52" x="832.5" y="343.5002">+ml_step()</text><text fill="#000000" font-family="sans-serif" font-size="11" lengthAdjust="spacingAndGlyphs" textLength="70" x="832.5" y="356.1491">#preprocess()</text><text fill="#000000" font-family="sans-serif" font-size="11" lengthAdjust="spacingAndGlyphs" textLength="87" x="832.5" y="368.798">#infer_ml_model()</text><text fill="#000000" font-family="sans-serif" font-size="11" lengthAdjust="spacingAndGlyphs" textLength="75" x="832.5" y="381.4469">#postprocess()</text><text fill="#000000" font-family="sans-serif" font-size="11" lengthAdjust="spacingAndGlyphs" textLength="88" x="832.5" y="394.0959">-normalize_input()</text><text fill="#000000" font-family="sans-serif" font-size="11" lengthAdjust="spacingAndGlyphs" textLength="107" x="832.5" y="406.7448">-denormalize_output()</text><!--MD5=[6c19f86b9d5afcf28bd36d0fe178c1fc]
class MLCouplingNormalization<In,Out>--><rect fill="#FFFFE0" filter="url(#f1pwk52m8y69nl)" height="78.8955" id="MLCouplingNormalization&lt;In,Out&gt;" style="stroke: #000000; stroke-width: 1.5;" width="221" x="1248" y="739.56"/><ellipse cx="1263" cy="758.3588" fill="#ADD1B2" rx="11" ry="11" style="stroke: #000000; stroke-width: 1.0;"/><path d="M1260.6563,758.2026 Q1260.6563,760.0776 1261.2344,761.0932 Q1261.8125,762.0932 1262.9688,762.0932 Q1264.3125,762.0932 1264.9688,760.0776 L1267.2344,760.4995 Q1266.125,764.0307 1262.9531,764.0307 Q1260.6094,764.0307 1259.3906,762.5463 Q1258.1719,761.062 1258.1719,758.2026 Q1258.1719,752.4838 1262.875,752.4838 Q1264.4219,752.4838 1265.4531,753.2963 Q1266.5,754.1088 1267,755.7182 L1264.7344,756.2651 Q1264.5,755.3901 1264.0156,754.9057 Q1263.5313,754.4057 1262.9063,754.4057 Q1260.6563,754.4057 1260.6563,758.2026 Z "/><text fill="#000000" font-family="sans-serif" font-size="12" font-style="italic" lengthAdjust="spacingAndGlyphs" textLength="57" x="1343" y="755.8159">«abstract»</text><text fill="#000000" font-family="sans-serif" font-size="12" lengthAdjust="spacingAndGlyphs" textLength="189" x="1277" y="769.6147">MLCouplingNormalization&lt;In,Out&gt;</text><line style="stroke: #000000; stroke-width: 1.5;" x1="1249" x2="1468" y1="777.1577" y2="777.1577"/><line style="stroke: #000000; stroke-width: 1.5;" x1="1249" x2="1468" y1="785.1577" y2="785.1577"/><text fill="#000000" font-family="sans-serif" font-size="11" lengthAdjust="spacingAndGlyphs" textLength="120" x="1254" y="799.4755">+normalize_input(In*, int)</text><text fill="#000000" font-family="sans-serif" font-size="11" lengthAdjust="spacingAndGlyphs" textLength="148" x="1254" y="812.1245">+denormalize_output(Out*, int)</text><!--MD5=[97416592fb3e02693e6c76276d79ae5f]
class MLCouplingMinMaxNormalization<In,Out>--><rect fill="#FEFECE" filter="url(#f1pwk52m8y69nl)" height="136.5425" id="MLCouplingMinMaxNormalization&lt;In,Out&gt;" style="stroke: #000000; stroke-width: 1.5;" width="264" x="1226.5" y="879.46"/><ellipse cx="1241.5" cy="895.46" fill="#ADD1B2" rx="11" ry="11" style="stroke: #000000; stroke-width: 1.0;"/><path d="M1239.1563,895.3038 Q1239.1563,897.1788 1239.7344,898.1944 Q1240.3125,899.1944 1241.4688,899.1944 Q1242.8125,899.1944 1243.4688,897.1788 L1245.7344,897.6006 Q1244.625,901.1319 1241.4531,901.1319 Q1239.1094,901.1319 1237.8906,899.6475 Q1236.6719,898.1631 1236.6719,895.3038 Q1236.6719,889.585 1241.375,889.585 Q1242.9219,889.585 1243.9531,890.3975 Q1245,891.21 1245.5,892.8194 L1243.2344,893.3663 Q1243,892.4913 1242.5156,892.0069 Q1242.0313,891.5069 1241.4063,891.5069 Q1239.1563,891.5069 1239.1563,895.3038 Z "/><text fill="#000000" font-family="sans-serif" font-size="12" lengthAdjust="spacingAndGlyphs" textLength="232" x="1255.5" y="899.8164">MLCouplingMinMaxNormalization&lt;In,Out&gt;</text><line style="stroke: #000000; stroke-width: 1.5;" x1="1227.5" x2="1489.5" y1="911.46" y2="911.46"/><text fill="#000000" font-family="sans-serif" font-size="11" lengthAdjust="spacingAndGlyphs" textLength="65" x="1232.5" y="925.7779">-input_min: In</text><text fill="#000000" font-family="sans-serif" font-size="11" lengthAdjust="spacingAndGlyphs" textLength="69" x="1232.5" y="938.4268">-input_max: In</text><text fill="#000000" font-family="sans-serif" font-size="11" lengthAdjust="spacingAndGlyphs" textLength="81" x="1232.5" y="951.0757">-output_min: Out</text><text fill="#000000" font-family="sans-serif" font-size="11" lengthAdjust="spacingAndGlyphs" textLength="85" x="1232.5" y="963.7246">-output_max: Out</text><line style="stroke: #000000; stroke-width: 1.5;" x1="1227.5" x2="1489.5" y1="970.0557" y2="970.0557"/><text fill="#000000" font-family="sans-serif" font-size="11" lengthAdjust="spacingAndGlyphs" textLength="247" x="1232.5" y="984.3736">+MLCouplingMinMaxNormalization(In, In, Out, Out)</text><text fill="#000000" font-family="sans-serif" font-size="11" lengthAdjust="spacingAndGlyphs" textLength="120" x="1232.5" y="997.0225">+normalize_input(In*, int)</text><text fill="#000000" font-family="sans-serif" font-size="11" lengthAdjust="spacingAndGlyphs" textLength="148" x="1232.5" y="1009.6714">+denormalize_output(Out*, int)</text><!--MD5=[b8fbc68d072974482eee1b95ce0fc17b]
class MLCouplingApplicationTurbulenceClosure<In,Out>--><rect fill="#FEFECE" filter="url(#f1pwk52m8y69nl)" height="123.8936" id="MLCouplingApplicationTurbulenceClosure&lt;In,Out&gt;" style="stroke: #000000; stroke-width: 1.5;" width="311" x="824" y="514.37"/><ellipse cx="839" cy="530.37" fill="#ADD1B2" rx="11" ry="11" style="stroke: #000000; stroke-width: 1.0;"/><path d="M836.6563,530.2138 Q836.6563,532.0888 837.2344,533.1044 Q837.8125,534.1044 838.9688,534.1044 Q840.3125,534.1044 840.9688,532.0888 L843.2344,532.5106 Q842.125,536.0419 838.9531,536.0419 Q836.6094,536.0419 835.3906,534.5575 Q834.1719,533.0731 834.1719,530.2138 Q834.1719,524.495 838.875,524.495 Q840.4219,524.495 841.4531,525.3075 Q842.5,526.12 843,527.7294 L840.7344,528.2763 Q840.5,527.4013 840.0156,526.9169 Q839.5313,526.4169 838.9063,526.4169 Q836.6563,526.4169 836.6563,530.2138 Z "/><text fill="#000000" font-family="sans-serif" font-size="12" lengthAdjust="spacingAndGlyphs" textLength="279" x="853" y="534.7264">MLCouplingApplicationTurbulenceClosure&lt;In,Out&gt;</text><line style="stroke: #000000; stroke-width: 1.5;" x1="825" x2="1134" y1="546.37" y2="546.37"/><line style="stroke: #000000; stroke-width: 1.5;" x1="825" x2="1134" y1="554.37" y2="554.37"/><text fill="#000000" font-family="sans-serif" font-size="11" lengthAdjust="spacingAndGlyphs" textLength="70" x="830" y="568.6879">+preprocess()</text><text fill="#000000" font-family="sans-serif" font-size="11" lengthAdjust="spacingAndGlyphs" textLength="75" x="830" y="581.3368">+postprocess()</text><text fill="#000000" font-family="sans-serif" font-size="11" lengthAdjust="spacingAndGlyphs" textLength="87" x="830" y="593.9857">+infer_ml_model()</text><text fill="#000000" font-family="sans-serif" font-size="11" lengthAdjust="spacingAndGlyphs" textLength="88" x="830" y="606.6346">-uniform_filtering()</text><text fill="#000000" font-family="sans-serif" font-size="11" lengthAdjust="spacingAndGlyphs" textLength="81" x="830" y="619.2836">-downsampling()</text><text fill="#000000" font-family="sans-serif" font-size="11" lengthAdjust="spacingAndGlyphs" textLength="85" x="830" y="631.9325">-compute_tau_ij()</text><!--MD5=[a8a4cbeec90b54dbba0dcc7b11288957]
class MLCouplingDataProcessor<In,Out>--><rect fill="#FEFECE" filter="url(#f1pwk52m8y69nl)" height="174.4893" id="MLCouplingDataProcessor&lt;In,Out&gt;" style="stroke: #000000; stroke-width: 1.5;" width="378" x="1169.5" y="489.07"/><ellipse cx="1257.25" cy="505.07" fill="#ADD1B2" rx="11" ry="11" style="stroke: #000000; stroke-width: 1.0;"/><path d="M1254.9063,504.9138 Q1254.9063,506.7888 1255.4844,507.8044 Q1256.0625,508.8044 1257.2188,508.8044 Q1258.5625,508.8044 1259.2188,506.7888 L1261.4844,507.2106 Q1260.375,510.7419 1257.2031,510.7419 Q1254.8594,510.7419 1253.6406,509.2575 Q1252.4219,507.7731 1252.4219,504.9138 Q1252.4219,499.195 1257.125,499.195 Q1258.6719,499.195 1259.7031,500.0075 Q1260.75,500.82 1261.25,502.4294 L1258.9844,502.9763 Q1258.75,502.1013 1258.2656,501.6169 Q1257.7813,501.1169 1257.1563,501.1169 Q1254.9063,501.1169 1254.9063,504.9138 Z "/><text fill="#000000" font-family="sans-serif" font-size="12" lengthAdjust="spacingAndGlyphs" textLength="194" x="1277.75" y="509.4264">MLCouplingDataProcessor&lt;In,Out&gt;</text><line style="stroke: #000000; stroke-width: 1.5;" x1="1170.5" x2="1546.5" y1="521.07" y2="521.07"/><text fill="#000000" font-family="sans-serif" font-size="11" lengthAdjust="spacingAndGlyphs" textLength="234" x="1175.5" y="535.3879">std::vector&lt;Out*&gt;, std::vector&lt;std::vector&lt;int&gt;&gt;,</text><text fill="#000000" font-family="sans-serif" font-size="11" lengthAdjust="spacingAndGlyphs" textLength="139" x="1175.5" y="548.0368">#input_data: std::vector&lt;In*&gt;</text><text fill="#000000" font-family="sans-serif" font-size="11" lengthAdjust="spacingAndGlyphs" textLength="262" x="1175.5" y="560.6857">#input_data_dimensions: std::vector&lt;std::vector&lt;int&gt;&gt;</text><text fill="#000000" font-family="sans-serif" font-size="11" lengthAdjust="spacingAndGlyphs" textLength="155" x="1175.5" y="573.3346">#output_data: std::vector&lt;Out*&gt;</text><text fill="#000000" font-family="sans-serif" font-size="11" lengthAdjust="spacingAndGlyphs" textLength="269" x="1175.5" y="585.9836">#output_data_dimensions: std::vector&lt;std::vector&lt;int&gt;&gt;</text><text fill="#000000" font-family="sans-serif" font-size="11" lengthAdjust="spacingAndGlyphs" textLength="323" x="1175.5" y="598.6325">-normalization: std::unique_ptr&lt;MLCouplingNormalization&lt;In,Out&gt;&gt;</text><line style="stroke: #000000; stroke-width: 1.5;" x1="1170.5" x2="1546.5" y1="604.9636" y2="604.9636"/><text fill="#000000" font-family="sans-serif" font-size="11" lengthAdjust="spacingAndGlyphs" textLength="366" x="1175.5" y="619.2814">+MLCouplingDataProcessor(std::vector&lt;In*&gt;, std::vector&lt;std::vector&lt;int&gt;&gt;,</text><text fill="#000000" font-family="sans-serif" font-size="11" lengthAdjust="spacingAndGlyphs" textLength="173" x="1175.5" y="631.9304">MLCouplingNormalization&lt;In,Out&gt;*)</text><text fill="#000000" font-family="sans-serif" font-size="11" lengthAdjust="spacingAndGlyphs" textLength="106" x="1175.5" y="644.5793">#normalize_input(In&amp;)</text><text fill="#000000" font-family="sans-serif" font-size="11" lengthAdjust="spacingAndGlyphs" textLength="134" x="1175.5" y="657.2282">#denormalize_output(Out&amp;)</text><!--MD5=[be39cfb2cfae71551c2ac1a911145cde]
class MLCouplingBehavior--><rect fill="#FFFFE0" filter="url(#f1pwk52m8y69nl)" height="91.5444" id="MLCouplingBehavior" style="stroke: #000000; stroke-width: 1.5;" width="179" x="1586" y="270.93"/><ellipse cx="1614.95" cy="289.7288" fill="#ADD1B2" rx="11" ry="11" style="stroke: #000000; stroke-width: 1.0;"/><path d="M1612.6063,289.5726 Q1612.6063,291.4476 1613.1844,292.4632 Q1613.7625,293.4632 1614.9188,293.4632 Q1616.2625,293.4632 1616.9188,291.4476 L1619.1844,291.8695 Q1618.075,295.4007 1614.9031,295.4007 Q1612.5594,295.4007 1611.3406,293.9163 Q1610.1219,292.432 1610.1219,289.5726 Q1610.1219,283.8538 1614.825,283.8538 Q1616.3719,283.8538 1617.4031,284.6663 Q1618.45,285.4788 1618.95,287.0882 L1616.6844,287.6351 Q1616.45,286.7601 1615.9656,286.2757 Q1615.4813,285.7757 1614.8563,285.7757 Q1612.6063,285.7757 1612.6063,289.5726 Z "/><text fill="#000000" font-family="sans-serif" font-size="12" font-style="italic" lengthAdjust="spacingAndGlyphs" textLength="57" x="1661.55" y="287.1859">«abstract»</text><text fill="#000000" font-family="sans-serif" font-size="12" lengthAdjust="spacingAndGlyphs" textLength="116" x="1632.05" y="300.9847">MLCouplingBehavior</text><line style="stroke: #000000; stroke-width: 1.5;" x1="1587" x2="1764" y1="308.5277" y2="308.5277"/><line style="stroke: #000000; stroke-width: 1.5;" x1="1587" x2="1764" y1="316.5277" y2="316.5277"/><text fill="#000000" font-family="sans-serif" font-size="11" lengthAdjust="spacingAndGlyphs" textLength="167" x="1592" y="330.8455">+should_perform_inference(): bool</text><text fill="#000000" font-family="sans-serif" font-size="11" lengthAdjust="spacingAndGlyphs" textLength="107" x="1592" y="343.4945">+time_step_delta(): int</text><text fill="#000000" font-family="sans-serif" font-size="11" lengthAdjust="spacingAndGlyphs" textLength="129" x="1592" y="356.1434">+should_send_data(): bool</text><!--MD5=[3f906eb8a64c5fa7c99969f7f216ea4d]
class MLCouplingBehaviorDefault--><rect fill="#FEFECE" filter="url(#f1pwk52m8y69nl)" height="85.9468" id="MLCouplingBehaviorDefault" style="stroke: #000000; stroke-width: 1.5;" width="187" x="1582" y="533.34"/><ellipse cx="1597" cy="549.34" fill="#ADD1B2" rx="11" ry="11" style="stroke: #000000; stroke-width: 1.0;"/><path d="M1594.6563,549.1837 Q1594.6563,551.0587 1595.2344,552.0744 Q1595.8125,553.0744 1596.9688,553.0744 Q1598.3125,553.0744 1598.9688,551.0587 L1601.2344,551.4806 Q1600.125,555.0119 1596.9531,555.0119 Q1594.6094,555.0119 1593.3906,553.5275 Q1592.1719,552.0431 1592.1719,549.1837 Q1592.1719,543.465 1596.875,543.465 Q1598.4219,543.465 1599.4531,544.2775 Q1600.5,545.09 1601,546.6994 L1598.7344,547.2462 Q1598.5,546.3712 1598.0156,545.8869 Q1597.5313,545.3869 1596.9063,545.3869 Q1594.6563,545.3869 1594.6563,549.1837 Z "/><text fill="#000000" font-family="sans-serif" font-size="12" lengthAdjust="spacingAndGlyphs" textLength="155" x="1611" y="553.6964">MLCouplingBehaviorDefault</text><line style="stroke: #000000; stroke-width: 1.5;" x1="1583" x2="1768" y1="565.34" y2="565.34"/><line style="stroke: #000000; stroke-width: 1.5;" x1="1583" x2="1768" y1="573.34" y2="573.34"/><text fill="#000000" font-family="sans-serif" font-size="11" lengthAdjust="spacingAndGlyphs" textLength="167" x="1588" y="587.6579">+should_perform_inference(): bool</text><text fill="#000000" font-family="sans-serif" font-size="11" lengthAdjust="spacingAndGlyphs" textLength="107" x="1588" y="600.3068">+time_step_delta(): int</text><text fill="#000000" font-family="sans-serif" font-size="11" lengthAdjust="spacingAndGlyphs" textLength="129" x="1588" y="612.9557">+should_send_data(): bool</text><!--MD5=[1ad52a24b6e8672bdb7d3010e92aa71a]
class MLCouplingBehaviorPeriodic--><rect fill="#FEFECE" filter="url(#f1pwk52m8y69nl)" height="149.1914" id="MLCouplingBehaviorPeriodic" style="stroke: #000000; stroke-width: 1.5;" width="193" x="1804" y="501.72"/><ellipse cx="1819" cy="517.72" fill="#ADD1B2" rx="11" ry="11" style="stroke: #000000; stroke-width: 1.0;"/><path d="M1816.6563,517.5638 Q1816.6563,519.4388 1817.2344,520.4544 Q1817.8125,521.4544 1818.9688,521.4544 Q1820.3125,521.4544 1820.9688,519.4388 L1823.2344,519.8606 Q1822.125,523.3919 1818.9531,523.3919 Q1816.6094,523.3919 1815.3906,521.9075 Q1814.1719,520.4231 1814.1719,517.5638 Q1814.1719,511.845 1818.875,511.845 Q1820.4219,511.845 1821.4531,512.6575 Q1822.5,513.47 1823,515.0794 L1820.7344,515.6263 Q1820.5,514.7513 1820.0156,514.2669 Q1819.5313,513.7669 1818.9063,513.7669 Q1816.6563,513.7669 1816.6563,517.5638 Z "/><text fill="#000000" font-family="sans-serif" font-size="12" lengthAdjust="spacingAndGlyphs" textLength="161" x="1833" y="522.0764">MLCouplingBehaviorPeriodic</text><line style="stroke: #000000; stroke-width: 1.5;" x1="1805" x2="1996" y1="533.72" y2="533.72"/><text fill="#000000" font-family="sans-serif" font-size="11" lengthAdjust="spacingAndGlyphs" textLength="107" x="1810" y="548.0379">-step_count: long long</text><text fill="#000000" font-family="sans-serif" font-size="11" lengthAdjust="spacingAndGlyphs" textLength="107" x="1810" y="560.6868">-inference_interval: int</text><text fill="#000000" font-family="sans-serif" font-size="11" lengthAdjust="spacingAndGlyphs" textLength="180" x="1810" y="573.3357">-coupled_steps_before_inference: int</text><text fill="#000000" font-family="sans-serif" font-size="11" lengthAdjust="spacingAndGlyphs" textLength="125" x="1810" y="585.9846">-coupled_steps_stride: int</text><text fill="#000000" font-family="sans-serif" font-size="11" lengthAdjust="spacingAndGlyphs" textLength="175" x="1810" y="598.6336">-step_increment_after_inference: int</text><line style="stroke: #000000; stroke-width: 1.5;" x1="1805" x2="1996" y1="604.9646" y2="604.9646"/><text fill="#000000" font-family="sans-serif" font-size="11" lengthAdjust="spacingAndGlyphs" textLength="167" x="1810" y="619.2825">+should_perform_inference(): bool</text><text fill="#000000" font-family="sans-serif" font-size="11" lengthAdjust="spacingAndGlyphs" textLength="107" x="1810" y="631.9314">+time_step_delta(): int</text><text fill="#000000" font-family="sans-serif" font-size="11" lengthAdjust="spacingAndGlyphs" textLength="129" x="1810" y="644.5804">+should_send_data(): bool</text><!--MD5=[7074944c2ab3aac83cd978942c4df225]
class MLCouplingProviderPhydll<In,Out>--><rect fill="#FEFECE" filter="url(#f1pwk52m8y69nl)" height="85.9468" id="MLCouplingProviderPhydll&lt;In,Out&gt;" style="stroke: #000000; stroke-width: 1.5;" width="225" x="6" y="533.34"/><ellipse cx="21" cy="549.34" fill="#ADD1B2" rx="11" ry="11" style="stroke: #000000; stroke-width: 1.0;"/><path d="M18.6563,549.1837 Q18.6563,551.0587 19.2344,552.0744 Q19.8125,553.0744 20.9688,553.0744 Q22.3125,553.0744 22.9688,551.0587 L25.2344,551.4806 Q24.125,555.0119 20.9531,555.0119 Q18.6094,555.0119 17.3906,553.5275 Q16.1719,552.0431 16.1719,549.1837 Q16.1719,543.465 20.875,543.465 Q22.4219,543.465 23.4531,544.2775 Q24.5,545.09 25,546.6994 L22.7344,547.2462 Q22.5,546.3712 22.0156,545.8869 Q21.5313,545.3869 20.9063,545.3869 Q18.6563,545.3869 18.6563,549.1837 Z "/><text fill="#000000" font-family="sans-serif" font-size="12" lengthAdjust="spacingAndGlyphs" textLength="193" x="35" y="553.6964">MLCouplingProviderPhydll&lt;In,Out&gt;</text><line style="stroke: #000000; stroke-width: 1.5;" x1="7" x2="230" y1="565.34" y2="565.34"/><line style="stroke: #000000; stroke-width: 1.5;" x1="7" x2="230" y1="573.34" y2="573.34"/><text fill="#000000" font-family="sans-serif" font-size="11" lengthAdjust="spacingAndGlyphs" textLength="27" x="12" y="587.6579">+init()</text><text fill="#000000" font-family="sans-serif" font-size="11" lengthAdjust="spacingAndGlyphs" textLength="59" x="12" y="600.3068">+inference()</text><text fill="#000000" font-family="sans-serif" font-size="11" lengthAdjust="spacingAndGlyphs" textLength="47" x="12" y="612.9557">+finalize()</text><!--MD5=[8607bbea39033dadd3415aaeaff18542]
class MLCouplingProviderAixelerate<In,Out>--><rect fill="#FEFECE" filter="url(#f1pwk52m8y69nl)" height="85.9468" id="MLCouplingProviderAixelerate&lt;In,Out&gt;" style="stroke: #000000; stroke-width: 1.5;" width="246" x="266.5" y="533.34"/><ellipse cx="281.5" cy="549.34" fill="#ADD1B2" rx="11" ry="11" style="stroke: #000000; stroke-width: 1.0;"/><path d="M279.1563,549.1837 Q279.1563,551.0587 279.7344,552.0744 Q280.3125,553.0744 281.4688,553.0744 Q282.8125,553.0744 283.4688,551.0587 L285.7344,551.4806 Q284.625,555.0119 281.4531,555.0119 Q279.1094,555.0119 277.8906,553.5275 Q276.6719,552.0431 276.6719,549.1837 Q276.6719,543.465 281.375,543.465 Q282.9219,543.465 283.9531,544.2775 Q285,545.09 285.5,546.6994 L283.2344,547.2462 Q283,546.3712 282.5156,545.8869 Q282.0313,545.3869 281.4063,545.3869 Q279.1563,545.3869 279.1563,549.1837 Z "/><text fill="#000000" font-family="sans-serif" font-size="12" lengthAdjust="spacingAndGlyphs" textLength="214" x="295.5" y="553.6964">MLCouplingProviderAixelerate&lt;In,Out&gt;</text><line style="stroke: #000000; stroke-width: 1.5;" x1="267.5" x2="511.5" y1="565.34" y2="565.34"/><line style="stroke: #000000; stroke-width: 1.5;" x1="267.5" x2="511.5" y1="573.34" y2="573.34"/><text fill="#000000" font-family="sans-serif" font-size="11" lengthAdjust="spacingAndGlyphs" textLength="27" x="272.5" y="587.6579">+init()</text><text fill="#000000" font-family="sans-serif" font-size="11" lengthAdjust="spacingAndGlyphs" textLength="59" x="272.5" y="600.3068">+inference()</text><text fill="#000000" font-family="sans-serif" font-size="11" lengthAdjust="spacingAndGlyphs" textLength="47" x="272.5" y="612.9557">+finalize()</text><!--MD5=[c3379b928cd3c8484581ec34c761cdd7]
class MLCouplingProviderSmartsim<In,Out>--><rect fill="#FEFECE" filter="url(#f1pwk52m8y69nl)" height="85.9468" id="MLCouplingProviderSmartsim&lt;In,Out&gt;" style="stroke: #000000; stroke-width: 1.5;" width="242" x="547.5" y="533.34"/><ellipse cx="562.5" cy="549.34" fill="#ADD1B2" rx="11" ry="11" style="stroke: #000000; stroke-width: 1.0;"/><path d="M560.1563,549.1837 Q560.1563,551.0587 560.7344,552.0744 Q561.3125,553.0744 562.4688,553.0744 Q563.8125,553.0744 564.4688,551.0587 L566.7344,551.4806 Q565.625,555.0119 562.4531,555.0119 Q560.1094,555.0119 558.8906,553.5275 Q557.6719,552.0431 557.6719,549.1837 Q557.6719,543.465 562.375,543.465 Q563.9219,543.465 564.9531,544.2775 Q566,545.09 566.5,546.6994 L564.2344,547.2462 Q564,546.3712 563.5156,545.8869 Q563.0313,545.3869 562.4063,545.3869 Q560.1563,545.3869 560.1563,549.1837 Z "/><text fill="#000000" font-family="sans-serif" font-size="12" lengthAdjust="spacingAndGlyphs" textLength="210" x="576.5" y="553.6964">MLCouplingProviderSmartsim&lt;In,Out&gt;</text><line style="stroke: #000000; stroke-width: 1.5;" x1="548.5" x2="788.5" y1="565.34" y2="565.34"/><line style="stroke: #000000; stroke-width: 1.5;" x1="548.5" x2="788.5" y1="573.34" y2="573.34"/><text fill="#000000" font-family="sans-serif" font-size="11" lengthAdjust="spacingAndGlyphs" textLength="27" x="553.5" y="587.6579">+init()</text><text fill="#000000" font-family="sans-serif" font-size="11" lengthAdjust="spacingAndGlyphs" textLength="59" x="553.5" y="600.3068">+inference()</text><text fill="#000000" font-family="sans-serif" font-size="11" lengthAdjust="spacingAndGlyphs" textLength="47" x="553.5" y="612.9557">+finalize()</text><!--MD5=[1fd91dcbf383aedd2f1e4b0e3de37ea0]
link MLCoupling<In,Out> to MLCouplingProvider<In,Out>--><path d="M919.38,148.52 C844.81,185.75 755.32,230.42 687.62,264.22 " fill="none" id="MLCoupling&lt;In,Out&gt;-MLCouplingProvider&lt;In,Out&gt;" style="stroke: #000000; stroke-width: 1.0;"/><line style="stroke: #000000; stroke-width: 1.0;" x1="687.0266" x2="683.4489" y1="268.9889" y2="261.8334"/><line style="stroke: #000000; stroke-width: 1.0;" x1="689.7098" x2="686.1321" y1="267.6472" y2="260.4918"/><line style="stroke: #000000; stroke-width: 1.0;" x1="688.8154" x2="681.66" y1="263.6223" y2="267.2"/><line style="stroke: #000000; stroke-width: 1.0;" x1="920.0851" x2="923.6563" y1="143.6963" y2="150.8549"/><line style="stroke: #000000; stroke-width: 1.0;" x1="917.4006" x2="920.9718" y1="145.0354" y2="152.1941"/><line style="stroke: #000000; stroke-width: 1.0;" x1="918.2913" x2="925.45" y1="149.0612" y2="145.49"/><text fill="#000000" font-family="sans-serif" font-size="13" lengthAdjust="spacingAndGlyphs" textLength="30" x="867.5" y="187.5338">owns</text><text fill="#000000" font-family="sans-serif" font-size="13" lengthAdjust="spacingAndGlyphs" textLength="7" x="906.0975" y="164.5071">1</text><text fill="#000000" font-family="sans-serif" font-size="13" lengthAdjust="spacingAndGlyphs" textLength="7" x="687.9134" y="261.8252">1</text><!--MD5=[295b831e619ddb9550140844d5637beb]
link MLCoupling<In,Out> to MLCouplingApplication<In,Out>--><path d="M1062.5,153.17 C1062.5,171.81 1062.5,192.08 1062.5,211.78 " fill="none" id="MLCoupling&lt;In,Out&gt;-MLCouplingApplication&lt;In,Out&gt;" style="stroke: #000000; stroke-width: 1.0;"/><line style="stroke: #000000; stroke-width: 1.0;" x1="1066.5" x2="1058.5" y1="214.66" y2="214.66"/><line style="stroke: #000000; stroke-width: 1.0;" x1="1066.5" x2="1058.5" y1="211.66" y2="211.66"/><line style="stroke: #000000; stroke-width: 1.0;" x1="1062.5" x2="1062.5" y1="210.66" y2="218.66"/><line style="stroke: #000000; stroke-width: 1.0;" x1="1058.5" x2="1066.5" y1="150.33" y2="150.33"/><line style="stroke: #000000; stroke-width: 1.0;" x1="1058.5" x2="1066.5" y1="153.33" y2="153.33"/><line style="stroke: #000000; stroke-width: 1.0;" x1="1062.5" x2="1062.5" y1="154.33" y2="146.33"/><text fill="#000000" font-family="sans-serif" font-size="13" lengthAdjust="spacingAndGlyphs" textLength="30" x="1063.5" y="187.5338">owns</text><text fill="#000000" font-family="sans-serif" font-size="13" lengthAdjust="spacingAndGlyphs" textLength="7" x="1055.1555" y="164.5071">1</text><text fill="#000000" font-family="sans-serif" font-size="13" lengthAdjust="spacingAndGlyphs" textLength="7" x="1055.1992" y="209.5177">1</text><!--MD5=[0db71367c1a681db51e43fb06fd0011e]
link MLCoupling<In,Out> to MLCouplingBehavior--><path d="M1245.25,148.21 C1353.98,190.54 1487.68,242.59 1576.91,277.32 " fill="none" id="MLCoupling&lt;In,Out&gt;-MLCouplingBehavior" style="stroke: #000000; stroke-width: 1.0;"/><line style="stroke: #000000; stroke-width: 1.0;" x1="1574.0079" x2="1584.26" y1="276.2031" y2="280.19"/><ellipse cx="1574.0079" cy="276.2031" fill="none" rx="4" ry="4" style="stroke: #000000; stroke-width: 1.0;"/><line style="stroke: #000000; stroke-width: 1.0;" x1="1581.9818" x2="1579.0822" y1="275.0122" y2="282.4682"/><line style="stroke: #000000; stroke-width: 1.0;" x1="1240.2082" x2="1243.1078" y1="150.5378" y2="143.0818"/><line style="stroke: #000000; stroke-width: 1.0;" x1="1243.0042" x2="1245.9038" y1="151.6251" y2="144.1691"/><line style="stroke: #000000; stroke-width: 1.0;" x1="1245.386" x2="1237.93" y1="148.2596" y2="145.36"/><text fill="#000000" font-family="sans-serif" font-size="13" lengthAdjust="spacingAndGlyphs" textLength="30" x="1352.5" y="187.5338">owns</text><text fill="#000000" font-family="sans-serif" font-size="13" lengthAdjust="spacingAndGlyphs" textLength="7" x="1246.3056" y="164.5071">1</text><text fill="#000000" font-family="sans-serif" font-size="13" lengthAdjust="spacingAndGlyphs" textLength="22" x="1555.9502" y="275.6809">0..1</text><!--MD5=[7b9297ed4e2a7a6b5f90a6f15c97368a]
link MLCouplingApplication<In,Out> to MLCouplingDataProcessor<In,Out>--><path d="M1178.67,418.81 C1203.09,440.06 1228.73,462.38 1252.74,483.28 " fill="none" id="MLCouplingApplication&lt;In,Out&gt;-MLCouplingDataProcessor&lt;In,Out&gt;" style="stroke: #000000; stroke-width: 1.0;"/><line style="stroke: #000000; stroke-width: 1.0;" x1="1257.6161" x2="1252.3562" y1="482.2062" y2="488.2339"/><line style="stroke: #000000; stroke-width: 1.0;" x1="1255.3557" x2="1250.0958" y1="480.2337" y2="486.2614"/><line style="stroke: #000000; stroke-width: 1.0;" x1="1251.9723" x2="1258" y1="482.5901" y2="487.85"/><line style="stroke: #000000; stroke-width: 1.0;" x1="1173.8239" x2="1179.0838" y1="419.9038" y2="413.8761"/><line style="stroke: #000000; stroke-width: 1.0;" x1="1176.0843" x2="1181.3442" y1="421.8763" y2="415.8486"/><line style="stroke: #000000; stroke-width: 1.0;" x1="1179.4677" x2="1173.44" y1="419.5199" y2="414.26"/><text fill="#000000" font-family="sans-serif" font-size="13" lengthAdjust="spacingAndGlyphs" textLength="30" x="1220.5" y="456.2638">owns</text><text fill="#000000" font-family="sans-serif" font-size="13" lengthAdjust="spacingAndGlyphs" textLength="7" x="1173.4386" y="433.4184">1</text><text fill="#000000" font-family="sans-serif" font-size="13" lengthAdjust="spacingAndGlyphs" textLength="7" x="1242.6576" y="478.3791">1</text><!--MD5=[8c542636dc8d8f2d0d67fa52e25ac382]
link MLCouplingDataProcessor<In,Out> to MLCouplingNormalization<In,Out>--><path d="M1358.5,673.18 C1358.5,692.92 1358.5,712.9 1358.5,730.05 " fill="none" id="MLCouplingDataProcessor&lt;In,Out&gt;-MLCouplingNormalization&lt;In,Out&gt;" style="stroke: #000000; stroke-width: 1.0;"/><line style="stroke: #000000; stroke-width: 1.0;" x1="1358.5196" x2="1358.5" y1="726.75" y2="737.75"/><ellipse cx="1358.5196" cy="726.75" fill="none" rx="4" ry="4" style="stroke: #000000; stroke-width: 1.0;"/><line style="stroke: #000000; stroke-width: 1.0;" x1="1362.5071" x2="1354.5071" y1="733.7571" y2="733.7429"/><line style="stroke: #000000; stroke-width: 1.0;" x1="1354.5" x2="1362.5" y1="669.4" y2="669.4"/><line style="stroke: #000000; stroke-width: 1.0;" x1="1354.5" x2="1362.5" y1="672.4" y2="672.4"/><line style="stroke: #000000; stroke-width: 1.0;" x1="1358.5" x2="1358.5" y1="673.4" y2="665.4"/><text fill="#000000" font-family="sans-serif" font-size="13" lengthAdjust="spacingAndGlyphs" textLength="30" x="1359.5" y="706.7538">owns</text><text fill="#000000" font-family="sans-serif" font-size="13" lengthAdjust="spacingAndGlyphs" textLength="7" x="1351.2211" y="683.6581">1</text><text fill="#000000" font-family="sans-serif" font-size="13" lengthAdjust="spacingAndGlyphs" textLength="22" x="1334.4719" y="728.9222">0..1</text><!--MD5=[f4e824b13bafebbbd0227c49e3c2ac6d]
reverse link MLCouplingNormalization<In,Out> to MLCouplingMinMaxNormalization<In,Out>--><path d="M1358.5,839.83 C1358.5,852.59 1358.5,866.16 1358.5,879.19 " fill="none" id="MLCouplingNormalization&lt;In,Out&gt;&lt;-MLCouplingMinMaxNormalization&lt;In,Out&gt;" style="stroke: #000000; stroke-width: 1.0;"/><polygon fill="none" points="1351.5,840.19,1358.5,820.19,1365.5,840.19,1351.5,840.19" style="stroke: #000000; stroke-width: 1.0;"/><!--MD5=[c579de39c61fe3f98a3d4912dbb11bab]
reverse link MLCouplingApplication<In,Out> to MLCouplingApplicationTurbulenceClosure<In,Out>--><path d="M1025.13,433.68 C1016.22,461.35 1007.05,489.81 999.29,513.89 " fill="none" id="MLCouplingApplication&lt;In,Out&gt;&lt;-MLCouplingApplicationTurbulenceClosure&lt;In,Out&gt;" style="stroke: #000000; stroke-width: 1.0;"/><polygon fill="none" points="1018.45,431.59,1031.25,414.7,1031.78,435.89,1018.45,431.59" style="stroke: #000000; stroke-width: 1.0;"/><!--MD5=[e3c6df0024f4e001d3dbc4060b2b7e2b]
reverse link MLCouplingBehavior to MLCouplingBehaviorDefault--><path d="M1675.5,384.29 C1675.5,431.29 1675.5,492.84 1675.5,533.19 " fill="none" id="MLCouplingBehavior&lt;-MLCouplingBehaviorDefault" style="stroke: #000000; stroke-width: 1.0;"/><polygon fill="none" points="1668.5,384.39,1675.5,364.39,1682.5,384.39,1668.5,384.39" style="stroke: #000000; stroke-width: 1.0;"/><!--MD5=[e9b84672a41d93ca8993bc20b03ec48b]
reverse link MLCouplingBehavior to MLCouplingBehaviorPeriodic--><path d="M1729,378.96 C1761.07,415.68 1802.07,462.62 1835.93,501.39 " fill="none" id="MLCouplingBehavior&lt;-MLCouplingBehaviorPeriodic" style="stroke: #000000; stroke-width: 1.0;"/><polygon fill="none" points="1723.83,383.68,1715.95,364.01,1734.37,374.47,1723.83,383.68" style="stroke: #000000; stroke-width: 1.0;"/><!--MD5=[ab33557bf1fed1f0338cee95bd2d126f]
reverse link MLCouplingProvider<In,Out> to MLCouplingProviderPhydll<In,Out>--><path d="M469.89,372.12 C404.11,404.34 320.55,446.99 248.5,489.07 C225.35,502.6 200.66,518.56 179.09,533.05 " fill="none" id="MLCouplingProvider&lt;In,Out&gt;&lt;-MLCouplingProviderPhydll&lt;In,Out&gt;" style="stroke: #000000; stroke-width: 1.0;"/><polygon fill="none" points="466.41,366.03,487.45,363.55,472.54,378.61,466.41,366.03" style="stroke: #000000; stroke-width: 1.0;"/><!--MD5=[b419ec6e50e8b21fa3170c8b0acee3b6]
reverse link MLCouplingProvider<In,Out> to MLCouplingProviderAixelerate<In,Out>--><path d="M532.55,386.34 C497.28,432.93 451.76,493.07 421.65,532.84 " fill="none" id="MLCouplingProvider&lt;In,Out&gt;&lt;-MLCouplingProviderAixelerate&lt;In,Out&gt;" style="stroke: #000000; stroke-width: 1.0;"/><polygon fill="none" points="526.94,382.15,544.59,370.42,538.1,390.6,526.94,382.15" style="stroke: #000000; stroke-width: 1.0;"/><!--MD5=[0a60636bc2f5c6a9accdd88e8836e263]
reverse link MLCouplingProvider<In,Out> to MLCouplingProviderSmartsim<In,Out>--><path d="M607.89,389.44 C622.93,435.57 641.97,493.94 654.65,532.84 " fill="none" id="MLCouplingProvider&lt;In,Out&gt;&lt;-MLCouplingProviderSmartsim&lt;In,Out&gt;" style="stroke: #000000; stroke-width: 1.0;"/><polygon fill="none" points="601.31,391.84,601.77,370.66,614.62,387.5,601.31,391.84" style="stroke: #000000; stroke-width: 1.0;"/><!--MD5=[d14d36c5d0cdba36d8e4b85f40eb58e7]
@startuml CPP_NEW_ML_Interface

top to bottom direction
skinparam classAttributeIconSize 0
skinparam backgroundColor #FFFFFF
skinparam class {
    BackgroundColor<<abstract>> LightYellow
    BorderColor Black
    ArrowColor Black
}


class "MLCoupling<In,Out>" {
    - provider: std::unique_ptr<MLCouplingProvider<In,Out>>
    - application: std::unique_ptr<MLCouplingApplication<In,Out>>
    - behavior: std::unique_ptr<MLCouplingBehavior<In,Out>>
    + init(MLCouplingDataProcessor<In,Out>*, MLCouplingProvider<In,Out>*,
           MLCouplingApplication<In,Out>*, MLCouplingBehavior<In,Out>* = nullptr)
    + infer_ml_model()
    + finalize()
}

class "MLCouplingProvider<In,Out>" <<abstract>> {
    + ~MLCouplingProvider()
    + init()
    + inference()
    + finalize()
}

class "MLCouplingApplication<In,Out>" <<abstract>> {
    + MLCouplingApplication(std::unique_ptr<MLCouplingDataProcessor<In,Out>> data_processor)
    + ~MLCouplingApplication()
    - data_processor: std::unique_ptr<MLCouplingDataProcessor<In,Out>>
    + init()
    + finalize()
    + ml_step()
    # preprocess()
    # infer_ml_model()
    # postprocess()
    - normalize_input()
    - denormalize_output()
}

class "MLCouplingNormalization<In,Out>" <<abstract>> {
    + normalize_input(In*, int)
    + denormalize_output(Out*, int)
}

class "MLCouplingMinMaxNormalization<In,Out>" {
    - input_min: In
    - input_max: In
    - output_min: Out
    - output_max: Out
    + MLCouplingMinMaxNormalization(In, In, Out, Out)
    + normalize_input(In*, int)
    + denormalize_output(Out*, int)
}

class "MLCouplingApplicationTurbulenceClosure<In,Out>" {
    + preprocess()
    + postprocess()
    + infer_ml_model()
    - uniform_filtering()
    - downsampling()
    - compute_tau_ij()
}

class "MLCouplingDataProcessor<In,Out>" {
    + MLCouplingDataProcessor(std::vector<In*>, std::vector<std::vector<int>>,
                              std::vector<Out*>, std::vector<std::vector<int>>,
                              MLCouplingNormalization<In,Out>*)
    # input_data: std::vector<In*>
    # input_data_dimensions: std::vector<std::vector<int>>
    # output_data: std::vector<Out*>
    # output_data_dimensions: std::vector<std::vector<int>>
    # normalize_input(In&)
    # denormalize_output(Out&)
    - normalization: std::unique_ptr<MLCouplingNormalization<In,Out>>
}

class "MLCouplingBehavior" <<abstract>> {
    + should_perform_inference(): bool
    + time_step_delta(): int
    + should_send_data(): bool
}

class "MLCouplingBehaviorDefault" {
    + should_perform_inference(): bool
    + time_step_delta(): int
    + should_send_data(): bool
}

class "MLCouplingBehaviorPeriodic" {
    - step_count: long long
    - inference_interval: int
    - coupled_steps_before_inference: int
    - coupled_steps_stride: int
    - step_increment_after_inference: int
    + should_perform_inference(): bool
    + time_step_delta(): int
    + should_send_data(): bool
}

class "MLCouplingProviderPhydll<In,Out>" {
    + init()
    + inference()
    + finalize()
}

class "MLCouplingProviderAixelerate<In,Out>" {
    + init()
    + inference()
    + finalize()
}

class "MLCouplingProviderSmartsim<In,Out>" {
    + init()
    + inference()
    + finalize()
}

"MLCoupling<In,Out>" "1" ||- -|| "1" "MLCouplingProvider<In,Out>" : owns
"MLCoupling<In,Out>" "1" ||- -|| "1" "MLCouplingApplication<In,Out>" : owns
"MLCoupling<In,Out>" "1" ||- -o| "0..1" "MLCouplingBehavior" : owns
"MLCouplingApplication<In,Out>" "1" ||- -|| "1" "MLCouplingDataProcessor<In,Out>" : owns
"MLCouplingDataProcessor<In,Out>" "1" ||- -o| "0..1" "MLCouplingNormalization<In,Out>" : owns
"MLCouplingNormalization<In,Out>" <|- - "MLCouplingMinMaxNormalization<In,Out>"

"MLCouplingApplication<In,Out>" <|- - "MLCouplingApplicationTurbulenceClosure<In,Out>"
"MLCouplingBehavior" <|- - "MLCouplingBehaviorDefault"
"MLCouplingBehavior" <|- - "MLCouplingBehaviorPeriodic"

"MLCouplingProvider<In,Out>" <|- - "MLCouplingProviderPhydll<In,Out>"
"MLCouplingProvider<In,Out>" <|- - "MLCouplingProviderAixelerate<In,Out>"
"MLCouplingProvider<In,Out>" <|- - "MLCouplingProviderSmartsim<In,Out>"

@enduml

PlantUML version 1.2020.02(Sun Mar 01 11:22:07 CET 2020)
(GPL source distribution)
Java Runtime: OpenJDK Runtime Environment
JVM: OpenJDK 64-Bit Server VM
Java Version: 21.0.9+10-Ubuntu-124.04
Operating System: Linux
Default Encoding: UTF-8
Language: de
Country: DE
--></g></svg>