<?xml version="1.0" encoding="UTF-8" standalone="no"?><svg xmlns="http://www.w3.org/2000/svg" xmlns:xlink="http://www.w3.org/1999/xlink" contentScriptType="application/ecmascript" contentStyleType="text/css" height="1060px" preserveAspectRatio="none" style="width:2175px;height:1060px;" version="1.1" viewBox="0 0 2175 1060" width="2175px" zoomAndPan="magnify"><defs><filter height="300%" id="fr3s27k7718ze" width="300%" x="-1" y="-1"><feGaussianBlur result="blurOut" stdDeviation="2.0"/><feColorMatrix in="blurOut" result="blurOut2" type="matrix" values="0 0 0 0 0 0 0 0 0 0 0 0 0 0 0 0 0 0 .4 0"/><feOffset dx="4.0" dy="4.0" in="blurOut2" result="blurOut3"/><feBlend in="SourceGraphic" in2="blurOut3" mode="normal"/></filter></defs><g><!--MD5=[f500096b95d7d9013cb48b5434f24db3]
class MLCoupling<In,Out>--><rect fill="#FEFECE" filter="url(#fr3s27k7718ze)" height="136.5425" id="MLCoupling&lt;In,Out&gt;" style="stroke: #000000; stroke-width: 1.5;" width="322" x="1085" y="8.45"/><ellipse cx="1185.25" cy="24.45" fill="#ADD1B2" rx="11" ry="11" style="stroke: #000000; stroke-width: 1.0;"/><path d="M1182.9063,24.2938 Q1182.9063,26.1688 1183.4844,27.1844 Q1184.0625,28.1844 1185.2188,28.1844 Q1186.5625,28.1844 1187.2188,26.1688 L1189.4844,26.5906 Q1188.375,30.1219 1185.2031,30.1219 Q1182.8594,30.1219 1181.6406,28.6375 Q1180.4219,27.1531 1180.4219,24.2938 Q1180.4219,18.575 1185.125,18.575 Q1186.6719,18.575 1187.7031,19.3875 Q1188.75,20.2 1189.25,21.8094 L1186.9844,22.3563 Q1186.75,21.4813 1186.2656,20.9969 Q1185.7813,20.4969 1185.1563,20.4969 Q1182.9063,20.4969 1182.9063,24.2938 Z "/><text fill="#000000" font-family="sans-serif" font-size="12" lengthAdjust="spacingAndGlyphs" textLength="113" x="1205.75" y="28.8064">MLCoupling&lt;In,Out&gt;</text><line style="stroke: #000000; stroke-width: 1.5;" x1="1086" x2="1406" y1="40.45" y2="40.45"/><text fill="#000000" font-family="sans-serif" font-size="11" lengthAdjust="spacingAndGlyphs" textLength="274" x="1091" y="54.7679">-provider: std::unique_ptr&lt;MLCouplingProvider&lt;In,Out&gt;&gt;</text><text fill="#000000" font-family="sans-serif" font-size="11" lengthAdjust="spacingAndGlyphs" textLength="296" x="1091" y="67.4168">-application: std::unique_ptr&lt;MLCouplingApplication&lt;In,Out&gt;&gt;</text><text fill="#000000" font-family="sans-serif" font-size="11" lengthAdjust="spacingAndGlyphs" textLength="236" x="1091" y="80.0657">-behavior: std::unique_ptr&lt;MLCouplingBehavior&gt;</text><line style="stroke: #000000; stroke-width: 1.5;" x1="1086" x2="1406" y1="86.3968" y2="86.3968"/><text fill="#000000" font-family="sans-serif" font-size="11" lengthAdjust="spacingAndGlyphs" textLength="214" x="1091" y="100.7146">+MLCoupling(MLCouplingProvider&lt;In,Out&gt;*,</text><text fill="#000000" font-family="sans-serif" font-size="11" lengthAdjust="spacingAndGlyphs" textLength="310" x="1091" y="113.3636">MLCouplingApplication&lt;In,Out&gt;*, MLCouplingBehavior* = nullptr)</text><text fill="#000000" font-family="sans-serif" font-size="11" lengthAdjust="spacingAndGlyphs" textLength="77" x="1091" y="126.0125">+~MLCoupling()</text><text fill="#000000" font-family="sans-serif" font-size="11" lengthAdjust="spacingAndGlyphs" textLength="52" x="1091" y="138.6614">+ml_step()</text><!--MD5=[0624b538302a5a462d2624a255cce169]
class MLCouplingProvider<In,Out>--><rect fill="#FFFFE0" filter="url(#fr3s27k7718ze)" height="91.5444" id="MLCouplingProvider&lt;In,Out&gt;" style="stroke: #000000; stroke-width: 1.5;" width="288" x="558" y="265.26"/><ellipse cx="618.25" cy="284.0588" fill="#ADD1B2" rx="11" ry="11" style="stroke: #000000; stroke-width: 1.0;"/><path d="M615.9063,283.9026 Q615.9063,285.7776 616.4844,286.7932 Q617.0625,287.7932 618.2188,287.7932 Q619.5625,287.7932 620.2188,285.7776 L622.4844,286.1995 Q621.375,289.7307 618.2031,289.7307 Q615.8594,289.7307 614.6406,288.2463 Q613.4219,286.762 613.4219,283.9026 Q613.4219,278.1838 618.125,278.1838 Q619.6719,278.1838 620.7031,278.9963 Q621.75,279.8088 622.25,281.4182 L619.9844,281.9651 Q619.75,281.0901 619.2656,280.6057 Q618.7813,280.1057 618.1563,280.1057 Q615.9063,280.1057 615.9063,283.9026 Z "/><text fill="#000000" font-family="sans-serif" font-size="12" font-style="italic" lengthAdjust="spacingAndGlyphs" textLength="57" x="689.75" y="281.5159">«abstract»</text><text fill="#000000" font-family="sans-serif" font-size="12" lengthAdjust="spacingAndGlyphs" textLength="159" x="638.75" y="295.3147">MLCouplingProvider&lt;In,Out&gt;</text><line style="stroke: #000000; stroke-width: 1.5;" x1="559" x2="845" y1="302.8577" y2="302.8577"/><line style="stroke: #000000; stroke-width: 1.5;" x1="559" x2="845" y1="310.8577" y2="310.8577"/><text fill="#000000" font-family="sans-serif" font-size="11" lengthAdjust="spacingAndGlyphs" textLength="112" x="564" y="325.1755">+MLCouplingProvider()</text><text fill="#000000" font-family="sans-serif" font-size="11" lengthAdjust="spacingAndGlyphs" textLength="166" x="564" y="337.8245">+send_data(MLCouplingData&lt;In&gt;)</text><text fill="#000000" font-family="sans-serif" font-size="11" lengthAdjust="spacingAndGlyphs" textLength="276" x="564" y="350.4734">+inference(MLCouplingData&lt;In&gt;): MLCouplingData&lt;Out&gt;</text><!--MD5=[9734458d82faec336be428a63de85fff]
class MLCouplingApplication<In,Out>--><rect fill="#FFFFE0" filter="url(#fr3s27k7718ze)" height="180.0869" id="MLCouplingApplication&lt;In,Out&gt;" style="stroke: #000000; stroke-width: 1.5;" width="472" x="1010" y="220.99"/><ellipse cx="1154.75" cy="239.7888" fill="#ADD1B2" rx="11" ry="11" style="stroke: #000000; stroke-width: 1.0;"/><path d="M1152.4063,239.6326 Q1152.4063,241.5076 1152.9844,242.5232 Q1153.5625,243.5232 1154.7188,243.5232 Q1156.0625,243.5232 1156.7188,241.5076 L1158.9844,241.9295 Q1157.875,245.4607 1154.7031,245.4607 Q1152.3594,245.4607 1151.1406,243.9763 Q1149.9219,242.492 1149.9219,239.6326 Q1149.9219,233.9138 1154.625,233.9138 Q1156.1719,233.9138 1157.2031,234.7263 Q1158.25,235.5388 1158.75,237.1482 L1156.4844,237.6951 Q1156.25,236.8201 1155.7656,236.3357 Q1155.2813,235.8357 1154.6563,235.8357 Q1152.4063,235.8357 1152.4063,239.6326 Z "/><text fill="#000000" font-family="sans-serif" font-size="12" font-style="italic" lengthAdjust="spacingAndGlyphs" textLength="57" x="1233.75" y="237.2459">«abstract»</text><text fill="#000000" font-family="sans-serif" font-size="12" lengthAdjust="spacingAndGlyphs" textLength="174" x="1175.25" y="251.0447">MLCouplingApplication&lt;In,Out&gt;</text><line style="stroke: #000000; stroke-width: 1.5;" x1="1011" x2="1481" y1="258.5877" y2="258.5877"/><text fill="#000000" font-family="sans-serif" font-size="11" lengthAdjust="spacingAndGlyphs" textLength="346" x="1016" y="272.9055">#data_processor: std::unique_ptr&lt;MLCouplingDataProcessor&lt;In,Out&gt;&gt;</text><line style="stroke: #000000; stroke-width: 1.5;" x1="1011" x2="1481" y1="279.2366" y2="279.2366"/><text fill="#000000" font-family="sans-serif" font-size="11" lengthAdjust="spacingAndGlyphs" textLength="460" x="1016" y="293.5545">+MLCouplingApplication(std::unique_ptr&lt;MLCouplingDataProcessor&lt;In,Out&gt;&gt; data_processor)</text><text fill="#000000" font-family="sans-serif" font-size="11" lengthAdjust="spacingAndGlyphs" textLength="129" x="1016" y="306.2034">+~MLCouplingApplication()</text><text fill="#000000" font-family="sans-serif" font-size="11" lengthAdjust="spacingAndGlyphs" textLength="27" x="1016" y="318.8523">+init()</text><text fill="#000000" font-family="sans-serif" font-size="11" lengthAdjust="spacingAndGlyphs" textLength="47" x="1016" y="331.5012">+finalize()</text><text fill="#000000" font-family="sans-serif" font-size="11" lengthAdjust="spacingAndGlyphs" textLength="81" x="1016" y="344.1502">+step(bool, bool)</text><text fill="#000000" font-family="sans-serif" font-size="11" lengthAdjust="spacingAndGlyphs" textLength="278" x="1016" y="356.7991">#preprocess(MLCouplingData&lt;In&gt;): MLCouplingData&lt;In&gt;</text><text fill="#000000" font-family="sans-serif" font-size="11" lengthAdjust="spacingAndGlyphs" textLength="182" x="1016" y="369.448">#coupling_step(MLCouplingData&lt;In&gt;)</text><text fill="#000000" font-family="sans-serif" font-size="11" lengthAdjust="spacingAndGlyphs" textLength="269" x="1016" y="382.0969">#ml_step(MLCouplingData&lt;In&gt;): MLCouplingData&lt;Out&gt;</text><text fill="#000000" font-family="sans-serif" font-size="11" lengthAdjust="spacingAndGlyphs" textLength="301" x="1016" y="394.7459">#postprocess(MLCouplingData&lt;Out&gt;): MLCouplingData&lt;Out&gt;</text><!--MD5=[6c19f86b9d5afcf28bd36d0fe178c1fc]
class MLCouplingNormalization<In,Out>--><rect fill="#FFFFE0" filter="url(#fr3s27k7718ze)" height="78.8955" id="MLCouplingNormalization&lt;In,Out&gt;" style="stroke: #000000; stroke-width: 1.5;" width="221" x="1173.5" y="762.71"/><ellipse cx="1188.5" cy="781.5088" fill="#ADD1B2" rx="11" ry="11" style="stroke: #000000; stroke-width: 1.0;"/><path d="M1186.1563,781.3526 Q1186.1563,783.2276 1186.7344,784.2432 Q1187.3125,785.2432 1188.4688,785.2432 Q1189.8125,785.2432 1190.4688,783.2276 L1192.7344,783.6495 Q1191.625,787.1807 1188.4531,787.1807 Q1186.1094,787.1807 1184.8906,785.6963 Q1183.6719,784.212 1183.6719,781.3526 Q1183.6719,775.6338 1188.375,775.6338 Q1189.9219,775.6338 1190.9531,776.4463 Q1192,777.2588 1192.5,778.8682 L1190.2344,779.4151 Q1190,778.5401 1189.5156,778.0557 Q1189.0313,777.5557 1188.4063,777.5557 Q1186.1563,777.5557 1186.1563,781.3526 Z "/><text fill="#000000" font-family="sans-serif" font-size="12" font-style="italic" lengthAdjust="spacingAndGlyphs" textLength="57" x="1268.5" y="778.9659">«abstract»</text><text fill="#000000" font-family="sans-serif" font-size="12" lengthAdjust="spacingAndGlyphs" textLength="189" x="1202.5" y="792.7647">MLCouplingNormalization&lt;In,Out&gt;</text><line style="stroke: #000000; stroke-width: 1.5;" x1="1174.5" x2="1393.5" y1="800.3077" y2="800.3077"/><line style="stroke: #000000; stroke-width: 1.5;" x1="1174.5" x2="1393.5" y1="808.3077" y2="808.3077"/><text fill="#000000" font-family="sans-serif" font-size="11" lengthAdjust="spacingAndGlyphs" textLength="120" x="1179.5" y="822.6255">+normalize_input(In*, int)</text><text fill="#000000" font-family="sans-serif" font-size="11" lengthAdjust="spacingAndGlyphs" textLength="148" x="1179.5" y="835.2745">+denormalize_output(Out*, int)</text><!--MD5=[97416592fb3e02693e6c76276d79ae5f]
class MLCouplingMinMaxNormalization<In,Out>--><rect fill="#FEFECE" filter="url(#fr3s27k7718ze)" height="136.5425" id="MLCouplingMinMaxNormalization&lt;In,Out&gt;" style="stroke: #000000; stroke-width: 1.5;" width="264" x="1152" y="912.46"/><ellipse cx="1167" cy="928.46" fill="#ADD1B2" rx="11" ry="11" style="stroke: #000000; stroke-width: 1.0;"/><path d="M1164.6563,928.3038 Q1164.6563,930.1788 1165.2344,931.1944 Q1165.8125,932.1944 1166.9688,932.1944 Q1168.3125,932.1944 1168.9688,930.1788 L1171.2344,930.6006 Q1170.125,934.1319 1166.9531,934.1319 Q1164.6094,934.1319 1163.3906,932.6475 Q1162.1719,931.1631 1162.1719,928.3038 Q1162.1719,922.585 1166.875,922.585 Q1168.4219,922.585 1169.4531,923.3975 Q1170.5,924.21 1171,925.8194 L1168.7344,926.3663 Q1168.5,925.4913 1168.0156,925.0069 Q1167.5313,924.5069 1166.9063,924.5069 Q1164.6563,924.5069 1164.6563,928.3038 Z "/><text fill="#000000" font-family="sans-serif" font-size="12" lengthAdjust="spacingAndGlyphs" textLength="232" x="1181" y="932.8164">MLCouplingMinMaxNormalization&lt;In,Out&gt;</text><line style="stroke: #000000; stroke-width: 1.5;" x1="1153" x2="1415" y1="944.46" y2="944.46"/><text fill="#000000" font-family="sans-serif" font-size="11" lengthAdjust="spacingAndGlyphs" textLength="65" x="1158" y="958.7779">-input_min: In</text><text fill="#000000" font-family="sans-serif" font-size="11" lengthAdjust="spacingAndGlyphs" textLength="69" x="1158" y="971.4268">-input_max: In</text><text fill="#000000" font-family="sans-serif" font-size="11" lengthAdjust="spacingAndGlyphs" textLength="81" x="1158" y="984.0757">-output_min: Out</text><text fill="#000000" font-family="sans-serif" font-size="11" lengthAdjust="spacingAndGlyphs" textLength="85" x="1158" y="996.7246">-output_max: Out</text><line style="stroke: #000000; stroke-width: 1.5;" x1="1153" x2="1415" y1="1003.0557" y2="1003.0557"/><text fill="#000000" font-family="sans-serif" font-size="11" lengthAdjust="spacingAndGlyphs" textLength="247" x="1158" y="1017.3736">+MLCouplingMinMaxNormalization(In, In, Out, Out)</text><text fill="#000000" font-family="sans-serif" font-size="11" lengthAdjust="spacingAndGlyphs" textLength="120" x="1158" y="1030.0225">+normalize_input(In*, int)</text><text fill="#000000" font-family="sans-serif" font-size="11" lengthAdjust="spacingAndGlyphs" textLength="148" x="1158" y="1042.6714">+denormalize_output(Out*, int)</text><!--MD5=[b8fbc68d072974482eee1b95ce0fc17b]
class MLCouplingApplicationTurbulenceClosure<In,Out>--><rect fill="#FEFECE" filter="url(#fr3s27k7718ze)" height="136.5425" id="MLCouplingApplicationTurbulenceClosure&lt;In,Out&gt;" style="stroke: #000000; stroke-width: 1.5;" width="313" x="989.5" y="508.7"/><ellipse cx="1005.4" cy="524.7" fill="#ADD1B2" rx="11" ry="11" style="stroke: #000000; stroke-width: 1.0;"/><path d="M1003.0563,524.5438 Q1003.0563,526.4188 1003.6344,527.4344 Q1004.2125,528.4344 1005.3688,528.4344 Q1006.7125,528.4344 1007.3688,526.4188 L1009.6344,526.8406 Q1008.525,530.3719 1005.3531,530.3719 Q1003.0094,530.3719 1001.7906,528.8875 Q1000.5719,527.4031 1000.5719,524.5438 Q1000.5719,518.825 1005.275,518.825 Q1006.8219,518.825 1007.8531,519.6375 Q1008.9,520.45 1009.4,522.0594 L1007.1344,522.6063 Q1006.9,521.7313 1006.4156,521.2469 Q1005.9313,520.7469 1005.3063,520.7469 Q1003.0563,520.7469 1003.0563,524.5438 Z "/><text fill="#000000" font-family="sans-serif" font-size="12" lengthAdjust="spacingAndGlyphs" textLength="279" x="1019.6" y="529.0564">MLCouplingApplicationTurbulenceClosure&lt;In,Out&gt;</text><line style="stroke: #000000; stroke-width: 1.5;" x1="990.5" x2="1301.5" y1="540.7" y2="540.7"/><line style="stroke: #000000; stroke-width: 1.5;" x1="990.5" x2="1301.5" y1="548.7" y2="548.7"/><text fill="#000000" font-family="sans-serif" font-size="11" lengthAdjust="spacingAndGlyphs" textLength="278" x="995.5" y="563.0179">+preprocess(MLCouplingData&lt;In&gt;): MLCouplingData&lt;In&gt;</text><text fill="#000000" font-family="sans-serif" font-size="11" lengthAdjust="spacingAndGlyphs" textLength="301" x="995.5" y="575.6668">+postprocess(MLCouplingData&lt;Out&gt;): MLCouplingData&lt;Out&gt;</text><text fill="#000000" font-family="sans-serif" font-size="11" lengthAdjust="spacingAndGlyphs" textLength="182" x="995.5" y="588.3157">+coupling_step(MLCouplingData&lt;In&gt;)</text><text fill="#000000" font-family="sans-serif" font-size="11" lengthAdjust="spacingAndGlyphs" textLength="269" x="995.5" y="600.9646">+ml_step(MLCouplingData&lt;In&gt;): MLCouplingData&lt;Out&gt;</text><text fill="#000000" font-family="sans-serif" font-size="11" lengthAdjust="spacingAndGlyphs" textLength="88" x="995.5" y="613.6136">-uniform_filtering()</text><text fill="#000000" font-family="sans-serif" font-size="11" lengthAdjust="spacingAndGlyphs" textLength="81" x="995.5" y="626.2625">-downsampling()</text><text fill="#000000" font-family="sans-serif" font-size="11" lengthAdjust="spacingAndGlyphs" textLength="85" x="995.5" y="638.9114">-compute_tau_ij()</text><!--MD5=[a8a4cbeec90b54dbba0dcc7b11288957]
class MLCouplingDataProcessor<In,Out>--><rect fill="#FEFECE" filter="url(#fr3s27k7718ze)" height="199.7871" id="MLCouplingDataProcessor&lt;In,Out&gt;" style="stroke: #000000; stroke-width: 1.5;" width="378" x="1337" y="477.07"/><ellipse cx="1424.75" cy="493.07" fill="#ADD1B2" rx="11" ry="11" style="stroke: #000000; stroke-width: 1.0;"/><path d="M1422.4063,492.9138 Q1422.4063,494.7888 1422.9844,495.8044 Q1423.5625,496.8044 1424.7188,496.8044 Q1426.0625,496.8044 1426.7188,494.7888 L1428.9844,495.2106 Q1427.875,498.7419 1424.7031,498.7419 Q1422.3594,498.7419 1421.1406,497.2575 Q1419.9219,495.7731 1419.9219,492.9138 Q1419.9219,487.195 1424.625,487.195 Q1426.1719,487.195 1427.2031,488.0075 Q1428.25,488.82 1428.75,490.4294 L1426.4844,490.9763 Q1426.25,490.1013 1425.7656,489.6169 Q1425.2813,489.1169 1424.6563,489.1169 Q1422.4063,489.1169 1422.4063,492.9138 Z "/><text fill="#000000" font-family="sans-serif" font-size="12" lengthAdjust="spacingAndGlyphs" textLength="194" x="1445.25" y="497.4264">MLCouplingDataProcessor&lt;In,Out&gt;</text><line style="stroke: #000000; stroke-width: 1.5;" x1="1338" x2="1714" y1="509.07" y2="509.07"/><text fill="#000000" font-family="sans-serif" font-size="11" lengthAdjust="spacingAndGlyphs" textLength="163" x="1343" y="523.3879">+input_data: MLCouplingData&lt;In&gt;</text><text fill="#000000" font-family="sans-serif" font-size="11" lengthAdjust="spacingAndGlyphs" textLength="267" x="1343" y="536.0368">+input_data_after_preprocessing: MLCouplingData&lt;In&gt;</text><text fill="#000000" font-family="sans-serif" font-size="11" lengthAdjust="spacingAndGlyphs" textLength="297" x="1343" y="548.6857">+output_data_before_postprocessing: MLCouplingData&lt;Out&gt;</text><text fill="#000000" font-family="sans-serif" font-size="11" lengthAdjust="spacingAndGlyphs" textLength="179" x="1343" y="561.3346">+output_data: MLCouplingData&lt;Out&gt;</text><text fill="#000000" font-family="sans-serif" font-size="11" lengthAdjust="spacingAndGlyphs" textLength="234" x="1343" y="573.9836">std::vector&lt;Out*&gt;, std::vector&lt;std::vector&lt;int&gt;&gt;,</text><text fill="#000000" font-family="sans-serif" font-size="11" lengthAdjust="spacingAndGlyphs" textLength="323" x="1343" y="586.6325">-normalization: std::unique_ptr&lt;MLCouplingNormalization&lt;In,Out&gt;&gt;</text><line style="stroke: #000000; stroke-width: 1.5;" x1="1338" x2="1714" y1="592.9636" y2="592.9636"/><text fill="#000000" font-family="sans-serif" font-size="11" lengthAdjust="spacingAndGlyphs" textLength="366" x="1343" y="607.2814">+MLCouplingDataProcessor(std::vector&lt;In*&gt;, std::vector&lt;std::vector&lt;int&gt;&gt;,</text><text fill="#000000" font-family="sans-serif" font-size="11" lengthAdjust="spacingAndGlyphs" textLength="173" x="1343" y="619.9304">MLCouplingNormalization&lt;In,Out&gt;*)</text><text fill="#000000" font-family="sans-serif" font-size="11" lengthAdjust="spacingAndGlyphs" textLength="361" x="1343" y="632.5793">+MLCouplingDataProcessor(MLCouplingData&lt;In&gt;, MLCouplingData&lt;Out&gt;,</text><text fill="#000000" font-family="sans-serif" font-size="11" lengthAdjust="spacingAndGlyphs" textLength="173" x="1343" y="645.2282">MLCouplingNormalization&lt;In,Out&gt;*)</text><text fill="#000000" font-family="sans-serif" font-size="11" lengthAdjust="spacingAndGlyphs" textLength="106" x="1343" y="657.8771">#normalize_input(In&amp;)</text><text fill="#000000" font-family="sans-serif" font-size="11" lengthAdjust="spacingAndGlyphs" textLength="134" x="1343" y="670.5261">#denormalize_output(Out&amp;)</text><!--MD5=[6b8a1d6566fc54ac3a67302d6d4280a4]
class MLCouplingData<T>--><rect fill="#FEFECE" filter="url(#fr3s27k7718ze)" height="98.5957" id="MLCouplingData&lt;T&gt;" style="stroke: #000000; stroke-width: 1.5;" width="400" x="1430" y="752.86"/><ellipse cx="1568.75" cy="768.86" fill="#ADD1B2" rx="11" ry="11" style="stroke: #000000; stroke-width: 1.0;"/><path d="M1566.4063,768.7038 Q1566.4063,770.5788 1566.9844,771.5944 Q1567.5625,772.5944 1568.7188,772.5944 Q1570.0625,772.5944 1570.7188,770.5788 L1572.9844,771.0006 Q1571.875,774.5319 1568.7031,774.5319 Q1566.3594,774.5319 1565.1406,773.0475 Q1563.9219,771.5631 1563.9219,768.7038 Q1563.9219,762.985 1568.625,762.985 Q1570.1719,762.985 1571.2031,763.7975 Q1572.25,764.61 1572.75,766.2194 L1570.4844,766.7663 Q1570.25,765.8913 1569.7656,765.4069 Q1569.2813,764.9069 1568.6563,764.9069 Q1566.4063,764.9069 1566.4063,768.7038 Z "/><text fill="#000000" font-family="sans-serif" font-size="12" lengthAdjust="spacingAndGlyphs" textLength="114" x="1589.25" y="773.2164">MLCouplingData&lt;T&gt;</text><line style="stroke: #000000; stroke-width: 1.5;" x1="1431" x2="1829" y1="784.86" y2="784.86"/><text fill="#000000" font-family="sans-serif" font-size="11" lengthAdjust="spacingAndGlyphs" textLength="108" x="1436" y="799.1779">+data: std::vector&lt;T*&gt;</text><text fill="#000000" font-family="sans-serif" font-size="11" lengthAdjust="spacingAndGlyphs" textLength="233" x="1436" y="811.8268">+data_dimensions: std::vector&lt;std::vector&lt;int&gt;&gt;</text><line style="stroke: #000000; stroke-width: 1.5;" x1="1431" x2="1829" y1="818.1579" y2="818.1579"/><text fill="#000000" font-family="sans-serif" font-size="11" lengthAdjust="spacingAndGlyphs" textLength="388" x="1436" y="832.4757">+MLCouplingData(const std::vector&lt;T*&gt;&amp;, const std::vector&lt;std::vector&lt;int&gt;&gt;&amp;)</text><text fill="#000000" font-family="sans-serif" font-size="11" lengthAdjust="spacingAndGlyphs" textLength="94" x="1436" y="845.1246">+MLCouplingData()</text><!--MD5=[be39cfb2cfae71551c2ac1a911145cde]
class MLCouplingBehavior--><rect fill="#FFFFE0" filter="url(#fr3s27k7718ze)" height="91.5444" id="MLCouplingBehavior" style="stroke: #000000; stroke-width: 1.5;" width="179" x="1753.5" y="265.26"/><ellipse cx="1782.45" cy="284.0588" fill="#ADD1B2" rx="11" ry="11" style="stroke: #000000; stroke-width: 1.0;"/><path d="M1780.1063,283.9026 Q1780.1063,285.7776 1780.6844,286.7932 Q1781.2625,287.7932 1782.4188,287.7932 Q1783.7625,287.7932 1784.4188,285.7776 L1786.6844,286.1995 Q1785.575,289.7307 1782.4031,289.7307 Q1780.0594,289.7307 1778.8406,288.2463 Q1777.6219,286.762 1777.6219,283.9026 Q1777.6219,278.1838 1782.325,278.1838 Q1783.8719,278.1838 1784.9031,278.9963 Q1785.95,279.8088 1786.45,281.4182 L1784.1844,281.9651 Q1783.95,281.0901 1783.4656,280.6057 Q1782.9813,280.1057 1782.3563,280.1057 Q1780.1063,280.1057 1780.1063,283.9026 Z "/><text fill="#000000" font-family="sans-serif" font-size="12" font-style="italic" lengthAdjust="spacingAndGlyphs" textLength="57" x="1829.05" y="281.5159">«abstract»</text><text fill="#000000" font-family="sans-serif" font-size="12" lengthAdjust="spacingAndGlyphs" textLength="116" x="1799.55" y="295.3147">MLCouplingBehavior</text><line style="stroke: #000000; stroke-width: 1.5;" x1="1754.5" x2="1931.5" y1="302.8577" y2="302.8577"/><line style="stroke: #000000; stroke-width: 1.5;" x1="1754.5" x2="1931.5" y1="310.8577" y2="310.8577"/><text fill="#000000" font-family="sans-serif" font-size="11" lengthAdjust="spacingAndGlyphs" textLength="167" x="1759.5" y="325.1755">+should_perform_inference(): bool</text><text fill="#000000" font-family="sans-serif" font-size="11" lengthAdjust="spacingAndGlyphs" textLength="107" x="1759.5" y="337.8245">+time_step_delta(): int</text><text fill="#000000" font-family="sans-serif" font-size="11" lengthAdjust="spacingAndGlyphs" textLength="129" x="1759.5" y="350.4734">+should_send_data(): bool</text><!--MD5=[3f906eb8a64c5fa7c99969f7f216ea4d]
class MLCouplingBehaviorDefault--><rect fill="#FEFECE" filter="url(#fr3s27k7718ze)" height="85.9468" id="MLCouplingBehaviorDefault" style="stroke: #000000; stroke-width: 1.5;" width="187" x="1749.5" y="533.99"/><ellipse cx="1764.5" cy="549.99" fill="#ADD1B2" rx="11" ry="11" style="stroke: #000000; stroke-width: 1.0;"/><path d="M1762.1563,549.8338 Q1762.1563,551.7088 1762.7344,552.7244 Q1763.3125,553.7244 1764.4688,553.7244 Q1765.8125,553.7244 1766.4688,551.7088 L1768.7344,552.1306 Q1767.625,555.6619 1764.4531,555.6619 Q1762.1094,555.6619 1760.8906,554.1775 Q1759.6719,552.6931 1759.6719,549.8338 Q1759.6719,544.115 1764.375,544.115 Q1765.9219,544.115 1766.9531,544.9275 Q1768,545.74 1768.5,547.3494 L1766.2344,547.8963 Q1766,547.0213 1765.5156,546.5369 Q1765.0313,546.0369 1764.4063,546.0369 Q1762.1563,546.0369 1762.1563,549.8338 Z "/><text fill="#000000" font-family="sans-serif" font-size="12" lengthAdjust="spacingAndGlyphs" textLength="155" x="1778.5" y="554.3464">MLCouplingBehaviorDefault</text><line style="stroke: #000000; stroke-width: 1.5;" x1="1750.5" x2="1935.5" y1="565.99" y2="565.99"/><line style="stroke: #000000; stroke-width: 1.5;" x1="1750.5" x2="1935.5" y1="573.99" y2="573.99"/><text fill="#000000" font-family="sans-serif" font-size="11" lengthAdjust="spacingAndGlyphs" textLength="167" x="1755.5" y="588.3079">+should_perform_inference(): bool</text><text fill="#000000" font-family="sans-serif" font-size="11" lengthAdjust="spacingAndGlyphs" textLength="107" x="1755.5" y="600.9568">+time_step_delta(): int</text><text fill="#000000" font-family="sans-serif" font-size="11" lengthAdjust="spacingAndGlyphs" textLength="129" x="1755.5" y="613.6057">+should_send_data(): bool</text><!--MD5=[1ad52a24b6e8672bdb7d3010e92aa71a]
class MLCouplingBehaviorPeriodic--><rect fill="#FEFECE" filter="url(#fr3s27k7718ze)" height="149.1914" id="MLCouplingBehaviorPeriodic" style="stroke: #000000; stroke-width: 1.5;" width="193" x="1971.5" y="502.37"/><ellipse cx="1986.5" cy="518.37" fill="#ADD1B2" rx="11" ry="11" style="stroke: #000000; stroke-width: 1.0;"/><path d="M1984.1563,518.2138 Q1984.1563,520.0888 1984.7344,521.1044 Q1985.3125,522.1044 1986.4688,522.1044 Q1987.8125,522.1044 1988.4688,520.0888 L1990.7344,520.5106 Q1989.625,524.0419 1986.4531,524.0419 Q1984.1094,524.0419 1982.8906,522.5575 Q1981.6719,521.0731 1981.6719,518.2138 Q1981.6719,512.495 1986.375,512.495 Q1987.9219,512.495 1988.9531,513.3075 Q1990,514.12 1990.5,515.7294 L1988.2344,516.2763 Q1988,515.4013 1987.5156,514.9169 Q1987.0313,514.4169 1986.4063,514.4169 Q1984.1563,514.4169 1984.1563,518.2138 Z "/><text fill="#000000" font-family="sans-serif" font-size="12" lengthAdjust="spacingAndGlyphs" textLength="161" x="2000.5" y="522.7264">MLCouplingBehaviorPeriodic</text><line style="stroke: #000000; stroke-width: 1.5;" x1="1972.5" x2="2163.5" y1="534.37" y2="534.37"/><text fill="#000000" font-family="sans-serif" font-size="11" lengthAdjust="spacingAndGlyphs" textLength="107" x="1977.5" y="548.6879">-step_count: long long</text><text fill="#000000" font-family="sans-serif" font-size="11" lengthAdjust="spacingAndGlyphs" textLength="107" x="1977.5" y="561.3368">-inference_interval: int</text><text fill="#000000" font-family="sans-serif" font-size="11" lengthAdjust="spacingAndGlyphs" textLength="180" x="1977.5" y="573.9857">-coupled_steps_before_inference: int</text><text fill="#000000" font-family="sans-serif" font-size="11" lengthAdjust="spacingAndGlyphs" textLength="125" x="1977.5" y="586.6346">-coupled_steps_stride: int</text><text fill="#000000" font-family="sans-serif" font-size="11" lengthAdjust="spacingAndGlyphs" textLength="175" x="1977.5" y="599.2836">-step_increment_after_inference: int</text><line style="stroke: #000000; stroke-width: 1.5;" x1="1972.5" x2="2163.5" y1="605.6146" y2="605.6146"/><text fill="#000000" font-family="sans-serif" font-size="11" lengthAdjust="spacingAndGlyphs" textLength="167" x="1977.5" y="619.9325">+should_perform_inference(): bool</text><text fill="#000000" font-family="sans-serif" font-size="11" lengthAdjust="spacingAndGlyphs" textLength="107" x="1977.5" y="632.5814">+time_step_delta(): int</text><text fill="#000000" font-family="sans-serif" font-size="11" lengthAdjust="spacingAndGlyphs" textLength="129" x="1977.5" y="645.2304">+should_send_data(): bool</text><!--MD5=[7074944c2ab3aac83cd978942c4df225]
class MLCouplingProviderPhydll<In,Out>--><rect fill="#FEFECE" filter="url(#fr3s27k7718ze)" height="73.2979" id="MLCouplingProviderPhydll&lt;In,Out&gt;" style="stroke: #000000; stroke-width: 1.5;" width="288" x="6" y="540.32"/><ellipse cx="49.35" cy="556.32" fill="#ADD1B2" rx="11" ry="11" style="stroke: #000000; stroke-width: 1.0;"/><path d="M47.0063,556.1637 Q47.0063,558.0387 47.5844,559.0544 Q48.1625,560.0544 49.3188,560.0544 Q50.6625,560.0544 51.3188,558.0387 L53.5844,558.4606 Q52.475,561.9919 49.3031,561.9919 Q46.9594,561.9919 45.7406,560.5075 Q44.5219,559.0231 44.5219,556.1637 Q44.5219,550.445 49.225,550.445 Q50.7719,550.445 51.8031,551.2575 Q52.85,552.07 53.35,553.6794 L51.0844,554.2262 Q50.85,553.3512 50.3656,552.8669 Q49.8813,552.3669 49.2563,552.3669 Q47.0063,552.3669 47.0063,556.1637 Z "/><text fill="#000000" font-family="sans-serif" font-size="12" lengthAdjust="spacingAndGlyphs" textLength="193" x="69.65" y="560.6764">MLCouplingProviderPhydll&lt;In,Out&gt;</text><line style="stroke: #000000; stroke-width: 1.5;" x1="7" x2="293" y1="572.32" y2="572.32"/><line style="stroke: #000000; stroke-width: 1.5;" x1="7" x2="293" y1="580.32" y2="580.32"/><text fill="#000000" font-family="sans-serif" font-size="11" lengthAdjust="spacingAndGlyphs" textLength="166" x="12" y="594.6379">+send_data(MLCouplingData&lt;In&gt;)</text><text fill="#000000" font-family="sans-serif" font-size="11" lengthAdjust="spacingAndGlyphs" textLength="276" x="12" y="607.2868">+inference(MLCouplingData&lt;In&gt;): MLCouplingData&lt;Out&gt;</text><!--MD5=[8607bbea39033dadd3415aaeaff18542]
class MLCouplingProviderAixelerate<In,Out>--><rect fill="#FEFECE" filter="url(#fr3s27k7718ze)" height="73.2979" id="MLCouplingProviderAixelerate&lt;In,Out&gt;" style="stroke: #000000; stroke-width: 1.5;" width="288" x="329" y="540.32"/><ellipse cx="362.9" cy="556.32" fill="#ADD1B2" rx="11" ry="11" style="stroke: #000000; stroke-width: 1.0;"/><path d="M360.5563,556.1637 Q360.5563,558.0387 361.1344,559.0544 Q361.7125,560.0544 362.8688,560.0544 Q364.2125,560.0544 364.8688,558.0387 L367.1344,558.4606 Q366.025,561.9919 362.8531,561.9919 Q360.5094,561.9919 359.2906,560.5075 Q358.0719,559.0231 358.0719,556.1637 Q358.0719,550.445 362.775,550.445 Q364.3219,550.445 365.3531,551.2575 Q366.4,552.07 366.9,553.6794 L364.6344,554.2262 Q364.4,553.3512 363.9156,552.8669 Q363.4313,552.3669 362.8063,552.3669 Q360.5563,552.3669 360.5563,556.1637 Z "/><text fill="#000000" font-family="sans-serif" font-size="12" lengthAdjust="spacingAndGlyphs" textLength="214" x="381.1" y="560.6764">MLCouplingProviderAixelerate&lt;In,Out&gt;</text><line style="stroke: #000000; stroke-width: 1.5;" x1="330" x2="616" y1="572.32" y2="572.32"/><line style="stroke: #000000; stroke-width: 1.5;" x1="330" x2="616" y1="580.32" y2="580.32"/><text fill="#000000" font-family="sans-serif" font-size="11" lengthAdjust="spacingAndGlyphs" textLength="166" x="335" y="594.6379">+send_data(MLCouplingData&lt;In&gt;)</text><text fill="#000000" font-family="sans-serif" font-size="11" lengthAdjust="spacingAndGlyphs" textLength="276" x="335" y="607.2868">+inference(MLCouplingData&lt;In&gt;): MLCouplingData&lt;Out&gt;</text><!--MD5=[c3379b928cd3c8484581ec34c761cdd7]
class MLCouplingProviderSmartsim<In,Out>--><rect fill="#FEFECE" filter="url(#fr3s27k7718ze)" height="85.9468" id="MLCouplingProviderSmartsim&lt;In,Out&gt;" style="stroke: #000000; stroke-width: 1.5;" width="303" x="651.5" y="533.99"/><ellipse cx="693.95" cy="549.99" fill="#ADD1B2" rx="11" ry="11" style="stroke: #000000; stroke-width: 1.0;"/><path d="M691.6063,549.8338 Q691.6063,551.7088 692.1844,552.7244 Q692.7625,553.7244 693.9188,553.7244 Q695.2625,553.7244 695.9188,551.7088 L698.1844,552.1306 Q697.075,555.6619 693.9031,555.6619 Q691.5594,555.6619 690.3406,554.1775 Q689.1219,552.6931 689.1219,549.8338 Q689.1219,544.115 693.825,544.115 Q695.3719,544.115 696.4031,544.9275 Q697.45,545.74 697.95,547.3494 L695.6844,547.8963 Q695.45,547.0213 694.9656,546.5369 Q694.4813,546.0369 693.8563,546.0369 Q691.6063,546.0369 691.6063,549.8338 Z "/><text fill="#000000" font-family="sans-serif" font-size="12" lengthAdjust="spacingAndGlyphs" textLength="210" x="714.05" y="554.3464">MLCouplingProviderSmartsim&lt;In,Out&gt;</text><line style="stroke: #000000; stroke-width: 1.5;" x1="652.5" x2="953.5" y1="565.99" y2="565.99"/><line style="stroke: #000000; stroke-width: 1.5;" x1="652.5" x2="953.5" y1="573.99" y2="573.99"/><text fill="#000000" font-family="sans-serif" font-size="11" lengthAdjust="spacingAndGlyphs" textLength="291" x="657.5" y="588.3079">+MLCouplingProviderSmartsim(std::string, int, int, int, int, int)</text><text fill="#000000" font-family="sans-serif" font-size="11" lengthAdjust="spacingAndGlyphs" textLength="166" x="657.5" y="600.9568">+send_data(MLCouplingData&lt;In&gt;)</text><text fill="#000000" font-family="sans-serif" font-size="11" lengthAdjust="spacingAndGlyphs" textLength="276" x="657.5" y="613.6057">+inference(MLCouplingData&lt;In&gt;): MLCouplingData&lt;Out&gt;</text><!--MD5=[1fd91dcbf383aedd2f1e4b0e3de37ea0]
link MLCoupling<In,Out> to MLCouplingProvider<In,Out>--><path d="M1079.86,148.67 C994.26,185.22 892.08,228.86 815.57,261.53 " fill="none" id="MLCoupling&lt;In,Out&gt;-MLCouplingProvider&lt;In,Out&gt;" style="stroke: #000000; stroke-width: 1.0;"/><line style="stroke: #000000; stroke-width: 1.0;" x1="814.4172" x2="811.2836" y1="266.3736" y2="259.0128"/><line style="stroke: #000000; stroke-width: 1.0;" x1="817.1775" x2="814.0438" y1="265.1985" y2="257.8377"/><line style="stroke: #000000; stroke-width: 1.0;" x1="816.5307" x2="809.17" y1="261.1264" y2="264.26"/><line style="stroke: #000000; stroke-width: 1.0;" x1="1080.9089" x2="1084.0563" y1="143.8663" y2="151.2211"/><line style="stroke: #000000; stroke-width: 1.0;" x1="1078.1508" x2="1081.2982" y1="145.0466" y2="152.4014"/><line style="stroke: #000000; stroke-width: 1.0;" x1="1078.8052" x2="1086.16" y1="149.1174" y2="145.97"/><text fill="#000000" font-family="sans-serif" font-size="13" lengthAdjust="spacingAndGlyphs" textLength="30" x="1008" y="188.1838">owns</text><text fill="#000000" font-family="sans-serif" font-size="13" lengthAdjust="spacingAndGlyphs" textLength="7" x="1070.1857" y="162.4511">1</text><text fill="#000000" font-family="sans-serif" font-size="13" lengthAdjust="spacingAndGlyphs" textLength="7" x="817.0809" y="254.6551">1</text><!--MD5=[295b831e619ddb9550140844d5637beb]
link MLCoupling<In,Out> to MLCouplingApplication<In,Out>--><path d="M1246,153.64 C1246,172.39 1246,192.74 1246,212.36 " fill="none" id="MLCoupling&lt;In,Out&gt;-MLCouplingApplication&lt;In,Out&gt;" style="stroke: #000000; stroke-width: 1.0;"/><line style="stroke: #000000; stroke-width: 1.0;" x1="1250" x2="1242" y1="215.21" y2="215.21"/><line style="stroke: #000000; stroke-width: 1.0;" x1="1250" x2="1242" y1="212.21" y2="212.21"/><line style="stroke: #000000; stroke-width: 1.0;" x1="1246" x2="1246" y1="211.21" y2="219.21"/><line style="stroke: #000000; stroke-width: 1.0;" x1="1242" x2="1250" y1="150.74" y2="150.74"/><line style="stroke: #000000; stroke-width: 1.0;" x1="1242" x2="1250" y1="153.74" y2="153.74"/><line style="stroke: #000000; stroke-width: 1.0;" x1="1246" x2="1246" y1="154.74" y2="146.74"/><text fill="#000000" font-family="sans-serif" font-size="13" lengthAdjust="spacingAndGlyphs" textLength="30" x="1247" y="188.1838">owns</text><text fill="#000000" font-family="sans-serif" font-size="13" lengthAdjust="spacingAndGlyphs" textLength="7" x="1238.6391" y="165.2486">1</text><text fill="#000000" font-family="sans-serif" font-size="13" lengthAdjust="spacingAndGlyphs" textLength="7" x="1238.6883" y="210.2891">1</text><!--MD5=[0db71367c1a681db51e43fb06fd0011e]
link MLCoupling<In,Out> to MLCouplingBehavior--><path d="M1416.01,143.87 C1522.18,185.19 1655.15,236.93 1744.25,271.6 " fill="none" id="MLCoupling&lt;In,Out&gt;-MLCouplingBehavior" style="stroke: #000000; stroke-width: 1.0;"/><line style="stroke: #000000; stroke-width: 1.0;" x1="1741.3379" x2="1751.59" y1="270.4731" y2="274.46"/><ellipse cx="1741.3379" cy="270.4731" fill="none" rx="4" ry="4" style="stroke: #000000; stroke-width: 1.0;"/><line style="stroke: #000000; stroke-width: 1.0;" x1="1749.3118" x2="1746.4122" y1="269.2822" y2="276.7382"/><line style="stroke: #000000; stroke-width: 1.0;" x1="1410.8482" x2="1413.7478" y1="146.1578" y2="138.7018"/><line style="stroke: #000000; stroke-width: 1.0;" x1="1413.6442" x2="1416.5438" y1="147.2451" y2="139.7891"/><line style="stroke: #000000; stroke-width: 1.0;" x1="1416.026" x2="1408.57" y1="143.8796" y2="140.98"/><text fill="#000000" font-family="sans-serif" font-size="13" lengthAdjust="spacingAndGlyphs" textLength="30" x="1528" y="188.1838">owns</text><text fill="#000000" font-family="sans-serif" font-size="13" lengthAdjust="spacingAndGlyphs" textLength="7" x="1415.1357" y="141.3937">1</text><text fill="#000000" font-family="sans-serif" font-size="13" lengthAdjust="spacingAndGlyphs" textLength="22" x="1723.5828" y="270.0792">0..1</text><!--MD5=[7b9297ed4e2a7a6b5f90a6f15c97368a]
link MLCouplingApplication<In,Out> to MLCouplingDataProcessor<In,Out>--><path d="M1346.86,407.1 C1368.89,427.87 1392.33,449.96 1414.74,471.09 " fill="none" id="MLCouplingApplication&lt;In,Out&gt;-MLCouplingDataProcessor&lt;In,Out&gt;" style="stroke: #000000; stroke-width: 1.0;"/><line style="stroke: #000000; stroke-width: 1.0;" x1="1419.4487" x2="1413.9657" y1="470.0357" y2="475.8613"/><line style="stroke: #000000; stroke-width: 1.0;" x1="1417.2641" x2="1411.7811" y1="467.9796" y2="473.8052"/><line style="stroke: #000000; stroke-width: 1.0;" x1="1413.7944" x2="1419.62" y1="470.2071" y2="475.69"/><line style="stroke: #000000; stroke-width: 1.0;" x1="1342.0634" x2="1347.5545" y1="408.0845" y2="402.2666"/><line style="stroke: #000000; stroke-width: 1.0;" x1="1344.2451" x2="1349.7362" y1="410.1436" y2="404.3257"/><line style="stroke: #000000; stroke-width: 1.0;" x1="1347.7179" x2="1341.9" y1="407.9211" y2="402.43"/><text fill="#000000" font-family="sans-serif" font-size="13" lengthAdjust="spacingAndGlyphs" textLength="30" x="1387" y="444.2638">owns</text><text fill="#000000" font-family="sans-serif" font-size="13" lengthAdjust="spacingAndGlyphs" textLength="7" x="1341.0755" y="421.3797">1</text><text fill="#000000" font-family="sans-serif" font-size="13" lengthAdjust="spacingAndGlyphs" textLength="7" x="1405.0516" y="466.4165">1</text><!--MD5=[8c542636dc8d8f2d0d67fa52e25ac382]
link MLCouplingDataProcessor<In,Out> to MLCouplingNormalization<In,Out>--><path d="M1411.53,683.54 C1383.87,709.05 1355.75,734.99 1332.98,755.99 " fill="none" id="MLCouplingDataProcessor&lt;In,Out&gt;-MLCouplingNormalization&lt;In,Out&gt;" style="stroke: #000000; stroke-width: 1.0;"/><line style="stroke: #000000; stroke-width: 1.0;" x1="1335.2956" x2="1327.2" y1="753.8628" y2="761.31"/><ellipse cx="1335.2956" cy="753.8628" fill="none" rx="4" ry="4" style="stroke: #000000; stroke-width: 1.0;"/><line style="stroke: #000000; stroke-width: 1.0;" x1="1332.8519" x2="1327.4358" y1="761.5458" y2="755.6581"/><line style="stroke: #000000; stroke-width: 1.0;" x1="1411.6778" x2="1417.1016" y1="677.9616" y2="683.8422"/><line style="stroke: #000000; stroke-width: 1.0;" x1="1409.4725" x2="1414.8964" y1="679.9956" y2="685.8762"/><line style="stroke: #000000; stroke-width: 1.0;" x1="1411.4494" x2="1417.33" y1="683.6139" y2="678.19"/><text fill="#000000" font-family="sans-serif" font-size="13" lengthAdjust="spacingAndGlyphs" textLength="30" x="1385" y="720.0538">owns</text><text fill="#000000" font-family="sans-serif" font-size="13" lengthAdjust="spacingAndGlyphs" textLength="7" x="1403.6418" y="696.9245">1</text><text fill="#000000" font-family="sans-serif" font-size="13" lengthAdjust="spacingAndGlyphs" textLength="22" x="1309.8222" y="751.9893">0..1</text><!--MD5=[de17429b82dfa94af5a6f071e6277d4c]
link MLCouplingDataProcessor<In,Out> to MLCouplingData<T>--><path d="M1577.9238,689.4092 C1577.9238,689.4092 1594.12,724.15 1601.3,739.56 " fill="none" id="MLCouplingDataProcessor&lt;In,Out&gt;-MLCouplingData&lt;T&gt;" style="stroke: #000000; stroke-width: 1.0;"/><line style="stroke: #000000; stroke-width: 1.0;" x1="1608.6985" x2="1601.4457" y1="745.9657" y2="749.3415"/><line style="stroke: #000000; stroke-width: 1.0;" x1="1607.4325" x2="1600.1797" y1="743.2458" y2="746.6217"/><line style="stroke: #000000; stroke-width: 1.0;" x1="1603.3841" x2="1606.76" y1="744.0272" y2="751.28"/><polygon fill="#FFFFFF" points="1572.86,678.53,1571.7655,685.6576,1577.9238,689.4092,1579.0183,682.2817,1572.86,678.53" style="stroke: #000000; stroke-width: 1.0;"/><text fill="#000000" font-family="sans-serif" font-size="13" lengthAdjust="spacingAndGlyphs" textLength="28" x="1595" y="720.0538">uses</text><text fill="#000000" font-family="sans-serif" font-size="13" lengthAdjust="spacingAndGlyphs" textLength="7" x="1568.2238" y="696.9245">1</text><text fill="#000000" font-family="sans-serif" font-size="13" lengthAdjust="spacingAndGlyphs" textLength="7" x="1596.3919" y="742.2637">4</text><!--MD5=[f4e824b13bafebbbd0227c49e3c2ac6d]
reverse link MLCouplingNormalization<In,Out> to MLCouplingMinMaxNormalization<In,Out>--><path d="M1284,863.38 C1284,879.11 1284,896.16 1284,912.24 " fill="none" id="MLCouplingNormalization&lt;In,Out&gt;&lt;-MLCouplingMinMaxNormalization&lt;In,Out&gt;" style="stroke: #000000; stroke-width: 1.0;"/><polygon fill="none" points="1277,863.42,1284,843.42,1291,863.42,1277,863.42" style="stroke: #000000; stroke-width: 1.0;"/><!--MD5=[c579de39c61fe3f98a3d4912dbb11bab]
reverse link MLCouplingApplication<In,Out> to MLCouplingApplicationTurbulenceClosure<In,Out>--><path d="M1204.54,421.47 C1193.37,450.94 1181.62,481.96 1171.6,508.4 " fill="none" id="MLCouplingApplication&lt;In,Out&gt;&lt;-MLCouplingApplicationTurbulenceClosure&lt;In,Out&gt;" style="stroke: #000000; stroke-width: 1.0;"/><polygon fill="none" points="1197.98,419.03,1211.61,402.8,1211.07,423.99,1197.98,419.03" style="stroke: #000000; stroke-width: 1.0;"/><!--MD5=[e3c6df0024f4e001d3dbc4060b2b7e2b]
reverse link MLCouplingBehavior to MLCouplingBehaviorDefault--><path d="M1843,378.56 C1843,427.26 1843,491.88 1843,533.7 " fill="none" id="MLCouplingBehavior&lt;-MLCouplingBehaviorDefault" style="stroke: #000000; stroke-width: 1.0;"/><polygon fill="none" points="1836,378.62,1843,358.62,1850,378.62,1836,378.62" style="stroke: #000000; stroke-width: 1.0;"/><!--MD5=[e9b84672a41d93ca8993bc20b03ec48b]
reverse link MLCouplingBehavior to MLCouplingBehaviorPeriodic--><path d="M1895.25,373.32 C1927.95,411.68 1970.27,461.33 2004.85,501.89 " fill="none" id="MLCouplingBehavior&lt;-MLCouplingBehaviorPeriodic" style="stroke: #000000; stroke-width: 1.0;"/><polygon fill="none" points="1890.05,378.02,1882.41,358.26,1900.71,368.93,1890.05,378.02" style="stroke: #000000; stroke-width: 1.0;"/><!--MD5=[ab33557bf1fed1f0338cee95bd2d126f]
reverse link MLCouplingProvider<In,Out> to MLCouplingProviderPhydll<In,Out>--><path d="M562,365.14 C486.41,395.3 392.2,435.3 311,477.07 C274.25,495.98 234.67,520.23 203.95,539.99 " fill="none" id="MLCouplingProvider&lt;In,Out&gt;&lt;-MLCouplingProviderPhydll&lt;In,Out&gt;" style="stroke: #000000; stroke-width: 1.0;"/><polygon fill="none" points="559.22,358.71,580.4,357.85,564.38,371.73,559.22,358.71" style="stroke: #000000; stroke-width: 1.0;"/><!--MD5=[b419ec6e50e8b21fa3170c8b0acee3b6]
reverse link MLCouplingProvider<In,Out> to MLCouplingProviderAixelerate<In,Out>--><path d="M649.02,373.1 C604.17,424.78 541.42,497.11 504.22,539.98 " fill="none" id="MLCouplingProvider&lt;In,Out&gt;&lt;-MLCouplingProviderAixelerate&lt;In,Out&gt;" style="stroke: #000000; stroke-width: 1.0;"/><polygon fill="none" points="643.51,368.77,661.9,358.25,654.08,377.94,643.51,368.77" style="stroke: #000000; stroke-width: 1.0;"/><!--MD5=[0a60636bc2f5c6a9accdd88e8836e263]
reverse link MLCouplingProvider<In,Out> to MLCouplingProviderSmartsim<In,Out>--><path d="M726.83,376.91 C745.53,425.8 770.64,491.41 786.83,533.7 " fill="none" id="MLCouplingProvider&lt;In,Out&gt;&lt;-MLCouplingProviderSmartsim&lt;In,Out&gt;" style="stroke: #000000; stroke-width: 1.0;"/><polygon fill="none" points="720.4,379.7,719.79,358.52,733.47,374.69,720.4,379.7" style="stroke: #000000; stroke-width: 1.0;"/><!--MD5=[d7e0d443e7571c6677a75d8129e6a0f8]
@startuml CPP_NEW_ML_Interface

top to bottom direction
skinparam classAttributeIconSize 0
skinparam backgroundColor #FFFFFF
skinparam class {
    BackgroundColor<<abstract>> LightYellow
    BorderColor Black
    ArrowColor Black
}


class "MLCoupling<In,Out>" {
    - provider: std::unique_ptr<MLCouplingProvider<In,Out>>
    - application: std::unique_ptr<MLCouplingApplication<In,Out>>
    - behavior: std::unique_ptr<MLCouplingBehavior>
    + MLCoupling(MLCouplingProvider<In,Out>*,
                 MLCouplingApplication<In,Out>*, MLCouplingBehavior* = nullptr)
    + ~MLCoupling()
    + ml_step()
}

class "MLCouplingProvider<In,Out>" <<abstract>> {
    + MLCouplingProvider()
    + send_data(MLCouplingData<In>)
    + inference(MLCouplingData<In>): MLCouplingData<Out>
}

class "MLCouplingApplication<In,Out>" <<abstract>> {
    + MLCouplingApplication(std::unique_ptr<MLCouplingDataProcessor<In,Out>> data_processor)
    + ~MLCouplingApplication()
    # data_processor: std::unique_ptr<MLCouplingDataProcessor<In,Out>>
    + init()
    + finalize()
    + step(bool, bool)
    # preprocess(MLCouplingData<In>): MLCouplingData<In>
    # coupling_step(MLCouplingData<In>)
    # ml_step(MLCouplingData<In>): MLCouplingData<Out>
    # postprocess(MLCouplingData<Out>): MLCouplingData<Out>
}

class "MLCouplingNormalization<In,Out>" <<abstract>> {
    + normalize_input(In*, int)
    + denormalize_output(Out*, int)
}

class "MLCouplingMinMaxNormalization<In,Out>" {
    - input_min: In
    - input_max: In
    - output_min: Out
    - output_max: Out
    + MLCouplingMinMaxNormalization(In, In, Out, Out)
    + normalize_input(In*, int)
    + denormalize_output(Out*, int)
}

class "MLCouplingApplicationTurbulenceClosure<In,Out>" {
    + preprocess(MLCouplingData<In>): MLCouplingData<In>
    + postprocess(MLCouplingData<Out>): MLCouplingData<Out>
    + coupling_step(MLCouplingData<In>)
    + ml_step(MLCouplingData<In>): MLCouplingData<Out>
    - uniform_filtering()
    - downsampling()
    - compute_tau_ij()
}

class "MLCouplingDataProcessor<In,Out>" {
    + input_data: MLCouplingData<In>
    + input_data_after_preprocessing: MLCouplingData<In>
    + output_data_before_postprocessing: MLCouplingData<Out>
    + output_data: MLCouplingData<Out>
    + MLCouplingDataProcessor(std::vector<In*>, std::vector<std::vector<int>>,
                              std::vector<Out*>, std::vector<std::vector<int>>,
                              MLCouplingNormalization<In,Out>*)
    + MLCouplingDataProcessor(MLCouplingData<In>, MLCouplingData<Out>,
                              MLCouplingNormalization<In,Out>*)
    # normalize_input(In&)
    # denormalize_output(Out&)
    - normalization: std::unique_ptr<MLCouplingNormalization<In,Out>>
}

class "MLCouplingData<T>" {
    + data: std::vector<T*>
    + data_dimensions: std::vector<std::vector<int>>
    + MLCouplingData(const std::vector<T*>&, const std::vector<std::vector<int>>&)
    + MLCouplingData()
}

class "MLCouplingBehavior" <<abstract>> {
    + should_perform_inference(): bool
    + time_step_delta(): int
    + should_send_data(): bool
}

class "MLCouplingBehaviorDefault" {
    + should_perform_inference(): bool
    + time_step_delta(): int
    + should_send_data(): bool
}

class "MLCouplingBehaviorPeriodic" {
    - step_count: long long
    - inference_interval: int
    - coupled_steps_before_inference: int
    - coupled_steps_stride: int
    - step_increment_after_inference: int
    + should_perform_inference(): bool
    + time_step_delta(): int
    + should_send_data(): bool
}

class "MLCouplingProviderPhydll<In,Out>" {
    + send_data(MLCouplingData<In>)
    + inference(MLCouplingData<In>): MLCouplingData<Out>
}

class "MLCouplingProviderAixelerate<In,Out>" {
    + send_data(MLCouplingData<In>)
    + inference(MLCouplingData<In>): MLCouplingData<Out>
}

class "MLCouplingProviderSmartsim<In,Out>" {
    + MLCouplingProviderSmartsim(std::string, int, int, int, int, int)
    + send_data(MLCouplingData<In>)
    + inference(MLCouplingData<In>): MLCouplingData<Out>
}

"MLCoupling<In,Out>" "1" ||- -|| "1" "MLCouplingProvider<In,Out>" : owns
"MLCoupling<In,Out>" "1" ||- -|| "1" "MLCouplingApplication<In,Out>" : owns
"MLCoupling<In,Out>" "1" ||- -o| "0..1" "MLCouplingBehavior" : owns
"MLCouplingApplication<In,Out>" "1" ||- -|| "1" "MLCouplingDataProcessor<In,Out>" : owns
"MLCouplingDataProcessor<In,Out>" "1" ||- -o| "0..1" "MLCouplingNormalization<In,Out>" : owns
"MLCouplingDataProcessor<In,Out>" "1" o- -|| "4" "MLCouplingData<T>" : uses
"MLCouplingNormalization<In,Out>" <|- - "MLCouplingMinMaxNormalization<In,Out>"

"MLCouplingApplication<In,Out>" <|- - "MLCouplingApplicationTurbulenceClosure<In,Out>"
"MLCouplingBehavior" <|- - "MLCouplingBehaviorDefault"
"MLCouplingBehavior" <|- - "MLCouplingBehaviorPeriodic"

"MLCouplingProvider<In,Out>" <|- - "MLCouplingProviderPhydll<In,Out>"
"MLCouplingProvider<In,Out>" <|- - "MLCouplingProviderAixelerate<In,Out>"
"MLCouplingProvider<In,Out>" <|- - "MLCouplingProviderSmartsim<In,Out>"

@enduml

PlantUML version 1.2020.02(Sun Mar 01 11:22:07 CET 2020)
(GPL source distribution)
Java Runtime: OpenJDK Runtime Environment
JVM: OpenJDK 64-Bit Server VM
Java Version: 21.0.9+10-Ubuntu-124.04
Operating System: Linux
Default Encoding: UTF-8
Language: de
Country: DE
--></g></svg>